<?xml version="1.0" encoding="UTF-8" standalone="no"?>
<!-- Created with Inkscape (http://www.inkscape.org/) -->

<svg
   xmlns:dc="http://purl.org/dc/elements/1.1/"
   xmlns:cc="http://creativecommons.org/ns#"
   xmlns:rdf="http://www.w3.org/1999/02/22-rdf-syntax-ns#"
   xmlns:svg="http://www.w3.org/2000/svg"
   xmlns="http://www.w3.org/2000/svg"
   xmlns:sodipodi="http://sodipodi.sourceforge.net/DTD/sodipodi-0.dtd"
   xmlns:inkscape="http://www.inkscape.org/namespaces/inkscape"
   width="744.09448819"
   height="1052.3622047"
   id="svg2"
   version="1.1"
   inkscape:version="0.48.2 r9819"
   sodipodi:docname="Новый документ 1">
  <defs
     id="defs4" />
  <sodipodi:namedview
     id="base"
     pagecolor="#ffffff"
     bordercolor="#666666"
     borderopacity="1.0"
     inkscape:pageopacity="0.0"
     inkscape:pageshadow="2"
     inkscape:zoom="0.98994949"
     inkscape:cx="407.90215"
     inkscape:cy="719.8339"
     inkscape:document-units="px"
     inkscape:current-layer="layer1"
     showgrid="false"
     inkscape:window-width="1280"
     inkscape:window-height="750"
     inkscape:window-x="-4"
     inkscape:window-y="-4"
     inkscape:window-maximized="1" />
  <metadata
     id="metadata7">
    <rdf:RDF>
      <cc:Work
         rdf:about="">
        <dc:format>image/svg+xml</dc:format>
        <dc:type
           rdf:resource="http://purl.org/dc/dcmitype/StillImage" />
        <dc:title></dc:title>
      </cc:Work>
    </rdf:RDF>
  </metadata>
  <g
     inkscape:label="Layer 1"
     inkscape:groupmode="layer"
     id="layer1">
    <path
       style="fill:#e6e6e6;fill-opacity:1;stroke:#ffffff;stroke-width:1;stroke-opacity:1"
       d="m 168.57143,158.07646 77.14286,0 -28.57143,31.42857 -48.57143,42.85714 z"
       id="rect2985"
       inkscape:connector-curvature="0"
       sodipodi:nodetypes="ccccc" />
    <path
       style="fill:#cccccc;fill-opacity:1;stroke:#ffffff;stroke-width:1;stroke-opacity:1"
       d="m 426.56481,206.14111 -39.03434,-29.05558 -25.67637,71.05015 6.85803,-41.91717 17.41347,-62.39142 z"
       id="rect2985-1"
       inkscape:connector-curvature="0"
       sodipodi:nodetypes="cccccc" />
    <path
       style="fill:#e6e6e6;fill-opacity:1;stroke:#ffffff;stroke-width:1;stroke-opacity:1"
       d="m 185.68244,245.48309 28.4699,14.14214 48.67296,-14.14214 -28.57143,31.42857 -15.29271,-0.35146 -33.27872,43.2086 12.12183,-42.19362 z"
       id="rect2985-7"
       inkscape:connector-curvature="0"
       sodipodi:nodetypes="cccccccc" />
    <path
       style="fill:#e6e6e6;fill-opacity:1;stroke:#ffffff;stroke-width:1;stroke-opacity:1"
       inkscape:transform-center-x="-3.1841564"
       inkscape:transform-center-y="-0.78762835"
       d="M 89.903576,326.06249 68.736417,301.64027 42.926542,313.94924 59.604659,288.624 39.930227,265.52823 l 21.734626,3.54237 23.390584,-21.35496 -9.266665,21.75576 7.407683,12.22118 32.744215,3.4353 -29.82069,7.76307 z"
       id="path3013"
       inkscape:connector-curvature="0"
       sodipodi:nodetypes="cccccccccccc" />
    <path
       style="fill:#e6e6e6;fill-opacity:1;stroke:#ffffff;stroke-width:1;stroke-opacity:1"
       d="m 311.9515,278.81812 38.57143,30.30458 38.57143,-30.30458 -28.57143,31.42857 -48.57143,42.85714 30.30458,-32.09209 z"
       id="rect2985-4"
       inkscape:connector-curvature="0"
       sodipodi:nodetypes="ccccccc" />
    <path
       style="fill:#e6e6e6;fill-opacity:1;stroke:#ffffff;stroke-width:1;stroke-opacity:1"
       d="m 257.40327,358.62017 29.48005,26.26397 47.66281,-26.26397 -52.76706,51.58922 9.04334,85.90537 -33.41914,-63.20888 10.10153,-35.12255 z"
       id="rect2985-0"
       inkscape:connector-curvature="0"
       sodipodi:nodetypes="cccccccc" />
    <path
       style="fill:#ececec;fill-opacity:1;stroke:#ffffff;stroke-width:1;stroke-opacity:1"
       d="m 456.40332,218.20896 31.50036,28.28427 45.6425,-28.28427 -50.00434,40.80586 28.491,51.3381 76.78457,96.86841 -85.23219,-73.74245 -21.38301,35.91679 10.81044,-58.1661 -36.60933,-18.7349 15.15229,-27.04132 z"
       id="rect2985-9"
       inkscape:connector-curvature="0"
       sodipodi:nodetypes="cccccccccccc" />
    <path
       style="fill:#e6e6e6;fill-opacity:1;stroke:#ffffff;stroke-width:1;stroke-opacity:1"
       d="m 441.25103,404.07704 76.95723,24.24366 0.18563,-24.24366 -67.87791,21.03965 50.12133,40.41648 -40.00026,-6.12494 -12.23084,76.10248 -7.15518,-57.14796 z"
       id="rect2985-48"
       inkscape:connector-curvature="0"
       sodipodi:nodetypes="ccccccccc" />
    <path
       style="fill:#e6e6e6;fill-opacity:1;stroke:#ffffff;stroke-width:1;stroke-opacity:1"
       d="m 321.04288,374.78261 39.58158,15.15229 37.56128,-15.15229 -33.97535,37.44713 73.08414,21.25556 -98.45983,-11.25406 -17.79182,26.83708 19.1929,-51.28499 z"
       id="rect2985-8"
       inkscape:connector-curvature="0"
       sodipodi:nodetypes="ccccccccc" />
  </g>
</svg>
