<?xml version="1.0" encoding="UTF-8" standalone="no"?>
<!-- Created with Inkscape (http://www.inkscape.org/) -->

<svg
   xmlns:dc="http://purl.org/dc/elements/1.1/"
   xmlns:cc="http://creativecommons.org/ns#"
   xmlns:rdf="http://www.w3.org/1999/02/22-rdf-syntax-ns#"
   xmlns:svg="http://www.w3.org/2000/svg"
   xmlns="http://www.w3.org/2000/svg"
   xmlns:sodipodi="http://sodipodi.sourceforge.net/DTD/sodipodi-0.dtd"
   xmlns:inkscape="http://www.inkscape.org/namespaces/inkscape"
   width="744.09448819"
   height="1052.3622047"
   id="svg3763"
   version="1.1"
   inkscape:version="0.48.2 r9819"
   sodipodi:docname="Новый документ 3">
  <defs
     id="defs3765" />
  <sodipodi:namedview
     id="base"
     pagecolor="#ffffff"
     bordercolor="#666666"
     borderopacity="1.0"
     inkscape:pageopacity="0.0"
     inkscape:pageshadow="2"
     inkscape:zoom="0.35"
     inkscape:cx="375"
     inkscape:cy="520"
     inkscape:document-units="px"
     inkscape:current-layer="layer1"
     showgrid="false"
     inkscape:window-width="1280"
     inkscape:window-height="750"
     inkscape:window-x="-4"
     inkscape:window-y="-4"
     inkscape:window-maximized="1" />
  <metadata
     id="metadata3768">
    <rdf:RDF>
      <cc:Work
         rdf:about="">
        <dc:format>image/svg+xml</dc:format>
        <dc:type
           rdf:resource="http://purl.org/dc/dcmitype/StillImage" />
        <dc:title></dc:title>
      </cc:Work>
    </rdf:RDF>
  </metadata>
  <g
     inkscape:label="Layer 1"
     inkscape:groupmode="layer"
     id="layer1">
    <path
       style="fill:#000000;fill-opacity:1;stroke:#000000;stroke-width:10;stroke-opacity:1"
       d="M 334.47697,854.89965 C 325.67915,853.95288 298.73323,848.195 286.74003,844.69911 185.0572,815.05957 100.88559,734.14053 68.557973,634.948 36.812295,537.54123 54.489505,428.50879 115.22208,347.12525 c 54.28779,-72.7473 131.11568,-117.91761 219.25489,-128.90912 16.27356,-2.02941 64.80021,-2.00429 81.15272,0.0421 47.33319,5.92308 99.23932,25.97447 139.79398,54.00252 45.92997,31.74301 81.27681,72.29801 105.47779,121.01934 21.95001,44.18972 32.02341,84.9899 33.5902,136.05013 3.00536,97.94213 -41.71407,193.72391 -119.5401,256.03552 -48.88169,39.13728 -110.79128,64.66311 -167.61603,69.10954 -14.90139,1.16599 -63.34551,1.44823 -72.85856,0.42448 l 0,0 z m 72.08743,-19.4644 c 20.26148,-1.31225 23.93884,-2.62515 22.64341,-8.08432 -0.42359,-1.785 -3.38342,-11.51478 -6.57744,-21.62173 -3.19398,-10.10693 -5.80725,-20.15275 -5.80725,-22.32404 0,-3.64853 0.65583,-4.32412 8.6523,-8.91264 23.55267,-13.51497 45.74694,-27.15031 49.63398,-30.49331 l 4.33381,-3.72717 -5.59463,-11.1906 c -14.87795,-29.75941 -33.02894,-59.52419 -36.29871,-59.52419 -1.101,0 -7.81556,1.87948 -14.92129,4.1766 -7.10572,2.29713 -18.83739,5.34421 -26.07041,6.77131 l -13.1509,2.59471 0,51.70639 0,51.70639 -23.08198,0 c -12.6951,0 -31.15794,0.34954 -41.02855,0.77679 l -17.94658,0.7768 -2.05603,9.06895 c -1.13082,4.98791 -2.33947,13.96716 -2.68591,19.95391 l -0.62987,10.88498 8.80686,1.94323 c 29.18158,6.43891 29.51788,6.4776 57.14047,6.57513 14.7686,0.0523 34.85602,-0.42361 44.63872,-1.05719 z m 67.54298,-14.61742 c 34.34605,-12.68051 58.25747,-25.53726 83.22865,-44.7506 13.89992,-10.69488 13.90356,-10.70913 5.06343,-19.91522 -4.01867,-4.18499 -12.6127,-12.04009 -19.09788,-17.45574 -10.66503,-8.90617 -11.66595,-10.085 -10.47987,-12.34247 0.72123,-1.3727 7.60317,-13.50516 15.29318,-26.96098 14.69616,-25.71511 20.27285,-36.17781 20.27285,-38.03495 0,-1.26233 -11.24426,-8.6117 -33.92921,-22.17653 -23.88786,-14.28413 -34.98414,-20.00554 -37.3453,-19.25588 -1.16653,0.37038 -10.82267,9.40663 -21.45811,20.08056 l -19.33716,19.40713 23.15325,40.4766 c 12.73428,22.26212 23.78378,41.99882 24.55442,43.85936 2.20586,5.32537 5.16899,3.20667 -48.30561,34.53965 -7.15931,4.19496 -14.05128,9.02349 -15.31552,10.73011 -2.14972,2.902 -2.18381,3.48157 -0.52629,8.95065 2.65627,8.7645 8.84423,25.05429 10.56246,27.80562 1.866,2.98793 2.51417,2.85216 23.66671,-4.95731 l 0,0 z m -197.72547,-6.55811 c 0.91772,-3.11782 3.43234,-14.34396 5.58804,-24.94699 l 3.91948,-19.27821 3.55809,-0.71159 c 1.95689,-0.39139 18.80982,-0.71163 37.4509,-0.71163 l 33.8929,0 1.1639,-3.06124 c 0.67175,-1.76687 1.16389,-19.88851 1.16389,-42.85831 l 0,-39.79705 -5.07206,-0.8263 c -10.59582,-1.72618 -25.55312,-5.67931 -36.54919,-9.65972 l -11.41106,-4.13064 -2.07652,2.72811 c -1.9392,2.54767 -15.63795,25.36993 -35.30528,58.81892 -9.59969,16.3266 -15.14893,24.29004 -17.57494,25.221 -0.92322,0.35427 -16.82888,-8.1023 -35.34589,-18.79232 l -33.66735,-19.43646 -5.37823,5.90719 c -9.60912,10.55412 -19.30789,23.31961 -19.30789,25.41297 0,4.17788 26.26043,27.05032 46.54346,40.53864 17.82716,11.85516 57.51099,30.64382 65.89036,31.19642 0.46685,0.0307 1.59968,-2.49498 2.51739,-5.61279 l 0,0 z m 320.5381,-74.19925 c 20.73445,-20.79218 48.92331,-66.24696 58.76191,-94.75411 2.72607,-7.89874 2.74337,-8.18819 0.58403,-9.77891 -2.34199,-1.72527 -16.74691,-5.19567 -34.7709,-8.37694 -5.90744,-1.04269 -11.68061,-2.16766 -12.82928,-2.49995 -1.92267,-0.55624 -2.08931,-3.17996 -2.09886,-33.04454 -0.007,-17.84219 -0.34905,-35.25981 -0.76294,-38.70581 l -0.75257,-6.26546 -41.52315,0 c -38.50968,0 -41.56895,0.15146 -42.15449,2.08849 -4.19913,13.89026 -12.62877,49.82478 -12.08784,51.52905 0.92351,2.90979 12.76235,10.50247 47.76432,30.63309 15.75318,9.06007 30.87439,17.87838 33.60269,19.59624 l 4.96056,3.12337 -11.99007,20.80542 c -6.59455,11.44298 -15.15393,26.8699 -19.02085,34.28204 l -7.03078,13.47659 2.12608,3.6833 c 2.3436,4.06016 13.0295,13.92291 20.57669,18.99166 6.22428,4.18029 8.30195,3.58323 16.64545,-4.78353 l 0,0 z m -437.27946,-21.1743 c 4.5947,-5.21701 11.49847,-13.10454 15.34174,-17.52791 6.56366,-7.5543 7.14318,-7.94184 9.54739,-6.3847 6.97406,4.51686 55.13553,31.12664 59.291,32.75892 4.62129,1.81532 4.86344,1.78647 7.74765,-0.92312 2.75216,-2.58552 22.06647,-34.68405 33.92584,-56.38145 5.03662,-9.21473 5.05524,-9.29403 2.94109,-12.53093 -1.17018,-1.79163 -10.22018,-11.4513 -20.11108,-21.46596 l -17.98352,-18.20845 -30.19854,17.18605 c -38.44246,21.8776 -56.5478,31.19603 -58.87651,30.30242 -1.00883,-0.38711 -9.92617,-14.31945 -19.81632,-30.96071 -17.4131,-29.29942 -20.97886,-34.41158 -24.00227,-34.41158 -0.78611,0 -8.93367,2.51577 -18.105737,5.59061 -11.99705,4.02189 -16.671514,6.11484 -16.658826,7.45891 0.207926,22.01845 45.311193,108.01925 61.166013,116.62843 3.58085,1.9444 5.41581,0.65109 15.79208,-11.13053 l 0,0 z m 238.08781,-57.85238 c 9.3265,-1.67153 24.55458,-6.79437 27.65165,-9.30221 l 2.62773,-2.12785 -3.17908,-6.43278 c -1.74852,-3.53804 -4.39931,-7.88598 -5.8907,-9.66207 l -2.71156,-3.22924 -15.67909,4.26233 -15.6791,4.26233 -0.71732,4.3373 c -0.39455,2.38554 -0.72324,7.94894 -0.73048,12.36311 l -0.0142,8.02576 3.87862,-0.66015 c 2.13324,-0.36305 6.83235,-1.18948 10.44244,-1.83653 l 0,0 z m -34.7333,0.27142 c 1.35973,-0.86096 1.46947,-3.08659 0.59672,-12.10327 l -1.06938,-11.04832 -14.89793,-3.94611 -14.8979,-3.94611 -3.30484,3.1662 c -1.81761,1.7414 -4.44514,5.52185 -5.83889,8.40097 -4.14048,8.55306 -1.21481,12.055 13.69157,16.38841 12.54064,3.64565 22.87976,4.88705 25.72065,3.08823 l 0,0 z M 182.70203,635.10663 c 13.09038,-6.58444 41.36973,-22.67407 48.54388,-27.61927 9.75323,-6.72296 9.61779,-4.3606 1.99952,-34.8735 l -6.77323,-27.12816 -51.61551,-0.0212 c -28.38854,-0.0124 -51.71787,-0.15643 -51.84295,-0.32055 -0.12499,-0.16421 -0.52788,-18.54529 -0.89508,-40.84708 l -0.66762,-40.54876 -8.95067,-2.13843 c -4.92287,-1.17614 -13.270897,-2.4689 -18.551197,-2.87276 -11.736735,-0.89775 -12.719606,-0.17699 -15.314552,11.23216 -4.326355,19.02175 -5.939547,37.46495 -6.027284,68.9094 -0.08504,30.48209 0.98328,42.82781 4.344493,50.2049 1.720011,3.77502 1.946448,3.73221 30.47608,-5.76248 11.97877,-3.98654 21.9668,-7.02428 22.19565,-6.75056 0.22897,0.27371 3.54405,6.1366 7.36709,13.0286 18.05505,32.54893 30.11984,51.31715 32.9882,51.31715 0.64648,0 6.37192,-2.6138 12.72318,-5.80848 l 0,0 z m 124.10106,-1.65039 c 1.90839,-2.78964 4.41896,-6.92248 5.57911,-9.18414 l 2.10932,-4.11208 -11.56298,-11.24819 c -10.91156,-10.61451 -11.79284,-11.21087 -15.64347,-10.58601 -5.13354,0.83307 -17.25294,8.77151 -17.25294,11.30104 0,1.04251 6.12725,7.9718 13.6161,15.39843 15.89479,15.76268 17.69165,16.41692 23.15486,8.43095 z m 155.89293,-6.00834 c 11.4406,-11.72169 14.56802,-16.22113 13.39659,-19.27379 -0.79377,-2.06861 -14.64174,-11.41562 -16.91264,-11.41562 -2.4998,0 -23.2621,22.37374 -23.2621,25.06759 0,3.3091 3.11798,9.35302 6.92334,13.42028 5.20907,5.56755 7.8041,4.54828 19.85481,-7.79846 z m 202.66993,-14.87657 c 5.18903,-5.78188 10.43942,-45.33474 10.41604,-78.46751 -0.0124,-15.94314 -2.55831,-46.70454 -4.22731,-51.05388 -1.17595,-3.06445 -4.16441,-2.60773 -25.0274,3.82479 -10.48581,3.23304 -20.99536,6.23083 -23.35457,6.66179 l -4.28946,0.78351 -16.51122,-27.84499 c -9.08116,-15.31476 -17.76637,-29.86239 -19.30048,-32.32808 l -2.78926,-4.48305 -4.40241,1.83945 c -6.42399,2.68411 -40.77275,21.97666 -54.63232,30.68513 -14.03449,8.81838 -13.51939,6.57959 -7.21061,31.33896 2.17421,8.53298 4.60032,19.40805 5.39135,24.16681 l 1.43821,8.6523 51.73213,0 51.73212,0 0.37227,39.34197 c 0.31785,33.58973 0.64251,39.61194 2.22036,41.1884 2.14566,2.14374 24.50215,7.57708 31.68114,7.69952 3.22684,0.0551 5.52384,-0.62613 6.76142,-2.00512 l 0,0 z M 269.02423,585.89786 c 2.39941,-1.21024 5.51616,-3.66703 6.92618,-5.45955 2.94899,-3.74904 2.72073,-7.24239 -1.41387,-21.63639 -3.37916,-11.76413 -5.89889,-13.74472 -16.71509,-13.13856 -4.41855,0.24763 -8.58611,1.00261 -9.26127,1.67777 -2.50309,2.50312 4.40573,33.99514 8.6385,39.37622 2.54535,3.23588 3.98298,3.13624 11.82555,-0.81949 l 0,0 z m 221.48015,0.99228 c 2.89272,-2.23692 8.90289,-23.73232 9.08655,-32.49815 0.16824,-8.02639 0.0597,-8.37023 -2.76471,-8.76868 -1.61685,-0.22801 -6.80323,-0.0526 -11.52528,0.38982 l -8.58555,0.80453 -3.69204,13.33454 c -5.44461,19.66433 -5.32016,20.19052 6.2184,26.2923 5.47408,2.89481 7.96786,2.99348 11.26263,0.44564 l 0,0 z m -298.4289,-61.737 c 27.02266,0 35.17007,-0.34226 35.51161,-1.49177 0.24381,-0.82048 1.36978,-6.55796 2.50212,-12.74997 1.13239,-6.19203 3.86977,-16.63555 6.08311,-23.20788 2.21333,-6.57233 4.02426,-12.89822 4.02426,-14.05754 0,-2.77752 -6.56261,-7.11329 -49.2287,-32.52422 -20.62149,-12.2817 -35.50432,-21.87442 -35.50432,-22.8843 0,-2.18201 7.20056,-16.54324 18.69228,-37.28112 4.87806,-8.80292 10.73176,-19.70381 13.0082,-24.22421 l 4.13897,-8.21893 -5.03468,-5.46198 c -6.94348,-7.53281 -22.14257,-19.58648 -24.6976,-19.58648 -5.18615,0 -26.84295,26.00758 -42.96123,51.59199 -14.73463,23.38813 -27.590717,50.2884 -27.590717,57.73123 0,5.59017 2.95003,6.75234 28.531807,11.23995 11.42602,2.00439 21.22701,3.92395 21.77996,4.26571 0.55295,0.34173 1.00539,18.11996 1.00539,39.50716 l 0,38.88581 7.33558,-0.7667 c 4.03458,-0.4217 23.11637,-0.76675 42.40396,-0.76675 z m 77.56693,-0.6612 c 2.23883,-0.45906 3.03152,-2.4139 5.79155,-14.28267 1.75872,-7.56293 2.87482,-15.03723 2.4802,-16.60952 -1.39217,-5.54688 -14.23638,-10.81581 -19.4995,-7.99907 -3.78015,2.02308 -12.51474,32.84029 -10.67032,37.64681 0.94682,2.4673 12.68138,3.13416 21.89807,1.24445 l 0,0 z m 231.20647,-2.02401 c -3.54794,-21.251 -6.97174,-32.93249 -11.1732,-38.12108 -2.12473,-2.62393 -2.33178,-2.64978 -6.19804,-0.77369 -7.2482,3.51718 -14.14395,9.26442 -14.14395,11.78823 0,1.96342 4.90129,23.74922 6.6353,29.49339 0.32307,1.07021 3.99384,1.49178 12.98889,1.49178 l 12.53854,0 -0.64754,-3.87863 z m -27.45536,-54.9219 c 2.86407,-2.35232 3.3197,-3.41586 2.63394,-6.14813 -0.99889,-3.97988 -25.51355,-29.33923 -28.35766,-29.33479 -2.27899,0.005 -10.24126,11.44358 -11.83676,17.0068 -1.04971,3.66013 -0.72639,4.1212 10.85272,15.47586 l 11.93464,11.70331 5.655,-2.92934 c 3.11025,-1.61115 7.21342,-4.20932 9.11812,-5.77371 l 0,0 z m -173.2802,-2.36236 c 13.50011,-13.05984 14.14997,-17.38552 4.42899,-29.48194 l -3.81122,-4.74257 -3.11689,2.42264 c -10.09457,7.84614 -27.58207,27.20801 -27.58207,30.53835 0,1.39094 15.70047,11.05611 18.00735,11.08527 1.0429,0.0141 6.47614,-4.4066 12.07384,-9.82175 z m 349.89815,0.20486 c 7.15107,-2.50144 13.53504,-5.08119 14.18661,-5.73274 2.48945,-2.48946 -5.96556,-28.41445 -17.36601,-53.24816 -9.85341,-21.46374 -31.04901,-54.65284 -40.66645,-63.6775 l -2.99773,-2.81295 -6.22331,5.79652 c -3.42283,3.18809 -11.54831,11.83819 -18.05667,19.2225 -6.50831,7.3843 -12.27883,13.426 -12.82338,13.426 -0.54452,0 -12.07485,-6.45706 -25.62292,-14.34907 -13.54808,-7.89199 -28.08532,-16.05157 -32.30498,-18.13237 -7.63864,-3.7668 -7.68352,-3.77318 -10.28437,-1.46376 -3.60484,3.20091 -8.68458,11.23951 -26.35245,41.70247 l -15.22755,26.25529 10.40934,10.55634 c 5.72515,5.80599 15.15558,14.84778 20.95658,20.09289 8.81181,7.96744 11.0279,9.41591 13.46843,8.80337 1.60667,-0.40324 14.00929,-7.21597 27.56143,-15.13942 21.40518,-12.51484 47.79854,-27.53023 56.04356,-31.88359 2.48154,-1.31021 3.41242,0.0492 20.50987,29.95096 9.85068,17.22788 19.05603,32.54916 20.45633,34.04725 3.16259,3.38348 6.06545,2.97619 24.33367,-3.41403 l 0,0 z M 271.26631,433.21897 c 20.85921,-20.80083 20.09828,-19.39156 15.44303,-28.60149 -1.1612,-2.29733 -11.56457,-20.7712 -23.11858,-41.05304 -11.55403,-20.2818 -21.00735,-37.2851 -21.00735,-37.78505 0,-2.01047 8.5244,-7.78663 33.19775,-22.49489 14.23218,-8.48408 27.6579,-16.94674 29.83497,-18.8059 3.93437,-3.35991 3.95024,-3.41615 2.62308,-9.30384 -1.50826,-6.69104 -7.62137,-22.53628 -10.26125,-26.59725 -1.04029,-1.60032 -2.94811,-2.6852 -4.72202,-2.6852 -6.13774,0 -32.87234,10.03168 -52.46265,19.68564 -28.50874,14.04891 -62.6547,37.09485 -62.6547,42.2872 0,1.38991 5.65555,7.3391 14.61945,15.37848 21.34244,19.14133 22.70283,20.68945 21.33713,24.28156 -0.62099,1.63328 -7.27972,13.67033 -14.79719,26.74901 -16.41391,28.55639 -18.77252,33.10695 -18.77252,36.21838 0,3.08228 7.31585,7.99029 37.02779,24.84092 23.03184,13.06212 30.20427,16.73383 33.05898,16.92353 0.80576,0.0536 10.10007,-8.51359 20.65408,-19.03806 l 0,0 z m 77.53173,4.10095 c 6.23562,-1.70418 12.05948,-3.69125 12.94189,-4.41573 2.25492,-1.85127 1.48503,-20.77934 -0.90525,-22.25644 -2.0191,-1.24771 -7.00679,-0.60543 -19.75046,2.54328 -19.41496,4.79707 -21.9533,7.41613 -16.88373,17.42051 3.29323,6.49889 6.95199,9.80914 10.84039,9.80776 1.3308,-4.7e-4 7.52152,-1.39519 13.75716,-3.09938 z m 69.68756,0.60057 c 3.93289,-3.09361 8.15258,-11.1281 7.65754,-14.5803 -0.70198,-4.89523 -16.93326,-11.1339 -34.51797,-13.26735 l -6.69988,-0.81287 -0.75899,3.79503 c -1.31089,6.55444 -0.86731,18.62975 0.73277,19.94752 2.07278,1.70706 22.16382,7.22518 26.69105,7.33085 2.07952,0.0487 5.11795,-1.01466 6.89548,-2.41288 z m -92.24341,-39.8527 c 7.08235,-2.28959 17.95239,-5.06218 24.15561,-6.16129 l 11.2786,-1.99843 0.70822,-4.28117 c 0.38952,-2.35463 0.73172,-16.63308 0.76046,-31.72987 0.0725,-38.06114 1.64566,-63.64435 4.06234,-66.06103 1.57286,-1.57285 7.45911,-2.01176 36.78324,-2.74268 19.20092,-0.4786 36.63662,-1.19116 38.74596,-1.5835 4.41804,-0.8217 5.1132,-2.55748 8.19798,-20.47081 2.71112,-15.74352 2.35676,-17.21541 -4.78075,-19.85706 -15.07501,-5.57941 -57.08328,-9.96069 -84.22817,-8.78463 -19.70083,0.85357 -38.61282,3.40306 -41.20561,5.55487 -2.85308,2.36786 -2.11584,6.48095 4.87042,27.17275 3.64542,10.7969 6.46489,20.77448 6.26547,22.17242 -0.40994,2.87394 -0.85963,3.17315 -36.76193,24.45974 -17.92212,10.62604 -25.75719,15.91236 -25.98551,17.53239 -0.35837,2.54265 13.08717,27.8808 26.24547,49.45953 10.5171,17.24743 13.68991,21.48162 16.09686,21.48162 1.05286,0 7.70895,-1.87329 14.79134,-4.16285 z m 115.35846,-0.31249 c 1.92311,-2.46143 9.38558,-14.41056 16.58331,-26.55366 7.19772,-12.14306 17.34459,-29.26037 22.54859,-38.03846 5.20403,-8.77807 10.04521,-16.18399 10.7582,-16.4576 0.713,-0.27359 14.01332,6.51135 29.55628,15.07765 15.54298,8.56633 31.82821,17.04049 36.18942,18.83151 l 7.92949,3.25639 2.50598,-3.41156 c 1.37827,-1.87636 6.13971,-7.77797 10.5809,-13.11469 9.2759,-11.14622 10.48677,-14.08233 7.28264,-17.65881 -8.12796,-9.07256 -37.27384,-31.18774 -54.55127,-41.39215 -19.83762,-11.71651 -49.03064,-25.24109 -54.48331,-25.24109 -3.50866,0 -5.16381,4.57103 -9.54711,26.36635 -2.03382,10.11284 -3.95171,19.59533 -4.26198,21.0722 -0.53819,2.56179 -1.09779,2.68532 -12.17723,2.68795 -6.38723,0.001 -24.09932,0.35579 -39.3602,0.78732 l -27.74709,0.78457 0.005,27.55644 c 0.002,15.15608 0.35405,34.40376 0.78088,42.77261 0.73427,14.39702 0.91069,15.21714 3.27706,15.23485 4.2469,0.0317 23.40558,4.44481 35.32016,8.13573 6.23563,1.93169 12.2322,3.57238 13.32572,3.64598 1.09352,0.0737 3.56163,-1.88009 5.48472,-4.34153 l 7e-5,0 z"
       id="path3829"
       inkscape:connector-curvature="0" />
  </g>
</svg>
