<?xml version="1.0" encoding="UTF-8" standalone="no"?>
<!-- Created with Inkscape (http://www.inkscape.org/) -->

<svg
   xmlns:dc="http://purl.org/dc/elements/1.1/"
   xmlns:cc="http://creativecommons.org/ns#"
   xmlns:rdf="http://www.w3.org/1999/02/22-rdf-syntax-ns#"
   xmlns:svg="http://www.w3.org/2000/svg"
   xmlns="http://www.w3.org/2000/svg"
   xmlns:sodipodi="http://sodipodi.sourceforge.net/DTD/sodipodi-0.dtd"
   xmlns:inkscape="http://www.inkscape.org/namespaces/inkscape"
   width="428.43216"
   height="416.85822"
   id="svg2"
   version="1.1"
   inkscape:version="0.48.2 r9819"
   sodipodi:docname="pyatno2.svg">
  <defs
     id="defs4" />
  <sodipodi:namedview
     id="base"
     pagecolor="#ffffff"
     bordercolor="#666666"
     borderopacity="1.0"
     inkscape:pageopacity="0.0"
     inkscape:pageshadow="2"
     inkscape:zoom="0.49497475"
     inkscape:cx="71.061723"
     inkscape:cy="150.36707"
     inkscape:document-units="px"
     inkscape:current-layer="layer1"
     showgrid="false"
     inkscape:window-width="1280"
     inkscape:window-height="750"
     inkscape:window-x="-4"
     inkscape:window-y="-4"
     inkscape:window-maximized="1"
     fit-margin-top="0"
     fit-margin-left="0"
     fit-margin-right="0"
     fit-margin-bottom="0" />
  <metadata
     id="metadata7">
    <rdf:RDF>
      <cc:Work
         rdf:about="">
        <dc:format>image/svg+xml</dc:format>
        <dc:type
           rdf:resource="http://purl.org/dc/dcmitype/StillImage" />
        <dc:title></dc:title>
      </cc:Work>
    </rdf:RDF>
  </metadata>
  <g
     inkscape:label="Layer 1"
     inkscape:groupmode="layer"
     id="layer1"
     transform="translate(-211.67691,-276.74992)">
    <path
       style="fill:#ff0000;fill-opacity:1;stroke:none"
       d="m 432.10276,464.57739 c 0,7.5741 250.04405,211.60184 201.83431,201.79756 -39.64681,-8.06285 -165.67524,-113.38486 -185.86839,-114.37419 -6.49123,-0.31802 19.33418,163.08658 3.40654,139.22749 -4.14112,-6.20327 -17.13399,-49.75879 -27.82892,-62.17394 -9.26069,-10.7502 6.16727,-25.5625 2.34566,-36.94458 -8.14622,-24.26225 -12.22181,-29.78069 -14.86907,-30.33131 -17.81371,-3.70517 -83.43307,92.20013 -85.76213,55.1437 -2.09418,-33.31921 41.77707,-85.80841 35.67971,-85.80841 -15.13651,0 -94.51016,64.67652 -104.71658,55.49874 -6.19079,-5.56686 -56.92373,37.55367 -41.86775,10.39137 11.7474,-21.19332 89.58243,-113.41036 89.58243,-120.24076 0,-4.18866 -79.21487,14.7283 -80.18848,2.31461 -0.81158,-10.34775 77.62784,-51.04664 68.94855,-64.80952 -14.37214,-22.79017 -57.82206,-51.26584 -54.26002,-64.63203 1.53531,-5.76109 8.80681,-7.40666 31.82534,9.37087 30.38295,22.14525 79.15625,65.256 88.92469,63.26037 16.91935,-3.45652 -51.66539,-101.71712 -57.4327,-126.41392 -5.13883,-22.00557 52.92311,29.07364 58.24716,29.07364 3.59272,0 28.49658,-24.20113 56.25807,-45.81823 28.78794,-22.41637 -25.58827,121.98372 -11.23163,134.9921 6.61891,5.99733 91.80523,-136.90685 87.74211,-111.56294 -7.71933,48.14988 -26.31188,111.49667 -23.84089,115.11532 6.30315,9.23066 65.65064,63.24539 79.88161,86.85236 18.56351,30.79395 -116.80962,-50.28145 -116.80962,-39.9283 z"
       id="path2985"
       inkscape:connector-curvature="0"
       sodipodi:nodetypes="sssssssssssssssssssssssss" />
  </g>
</svg>
