<?xml version="1.0" encoding="UTF-8" standalone="no"?>
<!-- Created with Inkscape (http://www.inkscape.org/) -->

<svg
   xmlns:dc="http://purl.org/dc/elements/1.1/"
   xmlns:cc="http://creativecommons.org/ns#"
   xmlns:rdf="http://www.w3.org/1999/02/22-rdf-syntax-ns#"
   xmlns:svg="http://www.w3.org/2000/svg"
   xmlns="http://www.w3.org/2000/svg"
   xmlns:sodipodi="http://sodipodi.sourceforge.net/DTD/sodipodi-0.dtd"
   xmlns:inkscape="http://www.inkscape.org/namespaces/inkscape"
   width="591.75061"
   height="542.91779"
   id="svg2"
   version="1.1"
   inkscape:version="0.48.2 r9819"
   sodipodi:docname="pyatno1.svg">
  <defs
     id="defs4" />
  <sodipodi:namedview
     id="base"
     pagecolor="#ffffff"
     bordercolor="#666666"
     borderopacity="1.0"
     inkscape:pageopacity="0.0"
     inkscape:pageshadow="2"
     inkscape:zoom="0.35"
     inkscape:cx="312.14286"
     inkscape:cy="449.16749"
     inkscape:document-units="px"
     inkscape:current-layer="layer1"
     showgrid="false"
     inkscape:window-width="1280"
     inkscape:window-height="750"
     inkscape:window-x="-4"
     inkscape:window-y="-4"
     inkscape:window-maximized="1"
     fit-margin-top="0"
     fit-margin-left="0"
     fit-margin-right="0"
     fit-margin-bottom="0" />
  <metadata
     id="metadata7">
    <rdf:RDF>
      <cc:Work
         rdf:about="">
        <dc:format>image/svg+xml</dc:format>
        <dc:type
           rdf:resource="http://purl.org/dc/dcmitype/StillImage" />
        <dc:title></dc:title>
      </cc:Work>
    </rdf:RDF>
  </metadata>
  <g
     inkscape:label="Layer 1"
     inkscape:groupmode="layer"
     id="layer1"
     transform="translate(-62.857141,-438.61188)">
    <path
       style="fill:#ff0000;fill-opacity:1;stroke:none"
       d="m 482.85714,723.79077 c 0,5.97325 127.52241,15.36292 136.93522,45.77853 7.61139,24.59469 -103.54114,69.86021 -96.4354,83.95801 27.90346,55.36058 52.74768,63.45522 40.76718,76.81809 -15.23204,16.98959 -46.8372,16.61486 -102.77155,-14.686 -28.73506,-16.08014 -91.23124,-71.86863 -104.20974,-71.86863 -9.69771,0 14.14551,80.84115 -13.30439,109.64064 -19.52399,20.4839 -90.40804,-12.18267 -103.30994,1.82403 -33.23952,36.08584 -28.42652,27.92884 -40.16115,16.89829 -12.05853,-11.33503 -71.70443,-20.57465 -60.38069,-78.10711 10.41991,-52.94036 -77.129539,-19.93052 -77.129539,-35.97014 0,-10.62938 93.338559,-117.98431 85.001359,-147.14425 -8.17953,-28.60847 -75.00052,-9.64734 -66.095648,-50.23868 5.660667,-25.80319 -12.003094,-154.16024 14.044865,-189.32049 22.393183,-30.22693 89.020613,30.79051 92.955543,27.07723 9.13353,-8.61907 83.61735,-83.23593 120.81139,-52.42177 9.6925,8.02995 -15.10471,111.10247 -6.42311,120.34278 40.83178,43.45952 62.72061,97.41947 79.7056,97.41947 14.77534,0 59.63427,-33.51835 115.21505,-74.07082 65.31901,-47.6576 142.17945,-102.85231 154.18797,-92.61936 25.78912,21.97597 -169.40302,191.09458 -169.40302,226.69018 z"
       id="path2985"
       inkscape:connector-curvature="0"
       sodipodi:nodetypes="sssssssssssssssssssss" />
  </g>
</svg>
