<?xml version="1.0" encoding="UTF-8" standalone="no"?>
<!-- Created with Inkscape (http://www.inkscape.org/) -->

<svg
   xmlns:dc="http://purl.org/dc/elements/1.1/"
   xmlns:cc="http://creativecommons.org/ns#"
   xmlns:rdf="http://www.w3.org/1999/02/22-rdf-syntax-ns#"
   xmlns:svg="http://www.w3.org/2000/svg"
   xmlns="http://www.w3.org/2000/svg"
   xmlns:sodipodi="http://sodipodi.sourceforge.net/DTD/sodipodi-0.dtd"
   xmlns:inkscape="http://www.inkscape.org/namespaces/inkscape"
   width="744.09448819"
   height="1052.3622047"
   id="svg2"
   version="1.1"
   inkscape:version="0.48.2 r9819"
   sodipodi:docname="strelka_black.svg">
  <defs
     id="defs4" />
  <sodipodi:namedview
     id="base"
     pagecolor="#ffffff"
     bordercolor="#666666"
     borderopacity="1.0"
     inkscape:pageopacity="0.0"
     inkscape:pageshadow="2"
     inkscape:zoom="0.7"
     inkscape:cx="668.41504"
     inkscape:cy="586.37676"
     inkscape:document-units="px"
     inkscape:current-layer="layer1"
     showgrid="false"
     inkscape:window-width="1280"
     inkscape:window-height="750"
     inkscape:window-x="-4"
     inkscape:window-y="-4"
     inkscape:window-maximized="1" />
  <metadata
     id="metadata7">
    <rdf:RDF>
      <cc:Work
         rdf:about="">
        <dc:format>image/svg+xml</dc:format>
        <dc:type
           rdf:resource="http://purl.org/dc/dcmitype/StillImage" />
        <dc:title></dc:title>
      </cc:Work>
    </rdf:RDF>
  </metadata>
  <g
     inkscape:label="Layer 1"
     inkscape:groupmode="layer"
     id="layer1">
    <g
       id="g3039"
       style="fill:#000000">
      <g
         transform="matrix(0,-0.25427907,0.25427907,0,47.909787,510.36557)"
         id="g2990"
         style="fill:#000000">
        <rect
           style="fill:#000000;fill-opacity:1;stroke:none"
           id="rect2985"
           width="322.85684"
           height="40.238159"
           x="274.65979"
           y="-312.59747"
           transform="matrix(8.7148154e-4,0.99999962,-0.99999559,0.00297025,0,0)" />
        <path
           style="fill:#000000;fill-opacity:1;stroke:none"
           d="M 289.40132,237.9003 394.47859,396.91383 290.5273,282.33275 198.85141,333.15881 z"
           id="rect2987"
           inkscape:connector-curvature="0"
           sodipodi:nodetypes="ccccc" />
      </g>
      <path
         inkscape:connector-curvature="0"
         id="path3829"
         d="m 223.59704,463.25745 c -0.78671,-0.0847 -3.19625,-0.59954 -4.26869,-0.91215 -9.09261,-2.6504 -16.61933,-9.88628 -19.51011,-18.75619 -2.83873,-8.71024 -1.25801,-18.46004 4.17276,-25.73745 4.85448,-6.50516 11.72452,-10.54434 19.60604,-11.52722 1.4552,-0.18147 5.79451,-0.17922 7.25677,0.004 4.2326,0.52965 8.8741,2.32267 12.50055,4.82897 4.10711,2.8385 7.26787,6.46498 9.43195,10.8217 1.9628,3.9515 2.86358,7.5999 3.00368,12.16577 0.26874,8.7581 -3.73013,17.32302 -10.68942,22.895 -4.37106,3.4997 -9.9071,5.78225 -14.98843,6.17986 -1.3325,0.10426 -5.66443,0.1295 -6.5151,0.038 l 0,0 z m 6.44614,-1.74053 c 1.81181,-0.11735 2.14065,-0.23475 2.0248,-0.72291 -0.0378,-0.15962 -0.30254,-1.02967 -0.58815,-1.93344 -0.28561,-0.90378 -0.5193,-1.80209 -0.5193,-1.99624 0,-0.32626 0.0587,-0.38667 0.7737,-0.79699 2.1061,-1.20852 4.09075,-2.42781 4.43833,-2.72674 l 0.38754,-0.33329 -0.50028,-1.00068 c -1.33041,-2.66112 -2.95349,-5.32272 -3.24588,-5.32272 -0.0984,0 -0.69887,0.16806 -1.33428,0.37348 -0.6354,0.20541 -1.68446,0.47788 -2.33124,0.60549 l -1.17597,0.23203 0,4.62364 0,4.62365 -2.06402,0 c -1.13522,0 -2.78618,0.0313 -3.66882,0.0694 l -1.60481,0.0694 -0.18385,0.81096 c -0.10112,0.44601 -0.2092,1.24895 -0.24018,1.7843 l -0.0563,0.97334 0.78752,0.17377 c 2.60945,0.57578 2.63952,0.57923 5.10957,0.58795 1.32062,0.005 3.11686,-0.0379 3.99164,-0.0945 z m 6.03978,-1.30711 c 3.07127,-1.13391 5.20945,-2.28357 7.4424,-4.00166 1.24295,-0.95634 1.24328,-0.95761 0.45279,-1.78084 -0.35936,-0.37422 -1.12785,-1.07663 -1.70776,-1.5609 -0.95369,-0.79641 -1.04318,-0.90182 -0.93713,-1.10369 0.0645,-0.12275 0.67989,-1.20765 1.36754,-2.41088 1.31415,-2.29948 1.81282,-3.23506 1.81282,-3.40113 0,-0.11288 -1.00547,-0.77007 -3.03399,-1.98305 -2.13608,-1.2773 -3.12833,-1.78892 -3.33946,-1.72189 -0.10431,0.0332 -0.96778,0.84116 -1.91881,1.79564 l -1.72915,1.7354 2.07039,3.61947 c 1.13872,1.9907 2.12677,3.75558 2.19568,3.92195 0.19725,0.47621 0.46222,0.28675 -4.31954,3.08858 -0.64019,0.37512 -1.25648,0.80689 -1.36953,0.9595 -0.19223,0.2595 -0.19528,0.31133 -0.047,0.80038 0.23753,0.78373 0.79086,2.24038 0.9445,2.48641 0.16687,0.26718 0.22483,0.25504 2.11631,-0.44329 l 0,0 z m -17.68085,-0.58644 c 0.0821,-0.27879 0.30693,-1.28264 0.49969,-2.23078 l 0.35048,-1.72388 0.31817,-0.0637 c 0.17499,-0.035 1.682,-0.0637 3.3489,-0.0637 l 3.03075,0 0.10408,-0.27374 c 0.0601,-0.158 0.10408,-1.77846 0.10408,-3.83244 l 0,-3.55871 -0.45355,-0.0739 c -0.9475,-0.15436 -2.285,-0.50785 -3.26828,-0.86379 l -1.02039,-0.36936 -0.18568,0.24395 c -0.17341,0.22781 -1.39837,2.26861 -3.15704,5.25965 -0.85842,1.45995 -1.35464,2.17205 -1.57158,2.2553 -0.0825,0.0317 -1.50485,-0.72452 -3.16067,-1.68043 l -3.01057,-1.73803 -0.48093,0.52823 c -0.85926,0.94375 -1.72653,2.08526 -1.72653,2.27245 0,0.37359 2.34823,2.41887 4.16197,3.62502 1.59412,1.0601 5.1427,2.74021 5.89199,2.78962 0.0417,0.003 0.14305,-0.22311 0.22511,-0.50191 l 0,0 z m 28.6629,-6.63498 c 1.8541,-1.85926 4.37478,-5.92388 5.25457,-8.47303 0.24376,-0.70631 0.24531,-0.73219 0.0522,-0.87444 -0.20942,-0.15427 -1.49752,-0.4646 -3.10925,-0.74908 -0.52825,-0.0932 -1.04449,-0.19383 -1.14722,-0.22354 -0.17192,-0.0498 -0.18682,-0.28436 -0.18767,-2.95488 -6.4e-4,-1.59547 -0.0312,-3.15298 -0.0682,-3.46112 l -0.0673,-0.56027 -3.71304,0 c -3.44358,0 -3.71715,0.0136 -3.76951,0.18675 -0.37549,1.24209 -1.12928,4.4554 -1.08091,4.6078 0.0826,0.26019 1.14122,0.93914 4.27115,2.73924 1.40866,0.81016 2.76082,1.59871 3.00479,1.75232 l 0.44358,0.2793 -1.07217,1.86044 c -0.58969,1.02325 -1.35508,2.40274 -1.70087,3.06554 l -0.62869,1.2051 0.19011,0.32936 c 0.20957,0.36306 1.16511,1.24501 1.83999,1.69826 0.55659,0.37381 0.74237,0.32041 1.48845,-0.42775 l 0,0 z m -39.10206,-1.89343 c 0.41087,-0.46652 1.02821,-1.17183 1.37188,-1.56737 0.58694,-0.67551 0.63876,-0.71016 0.85374,-0.57093 0.62364,0.40391 4.93029,2.78339 5.30187,2.92935 0.41325,0.16232 0.4349,0.15975 0.69281,-0.0825 0.2461,-0.2312 1.97321,-3.10149 3.03369,-5.0417 0.45038,-0.82399 0.45204,-0.83108 0.26299,-1.12053 -0.10463,-0.16021 -0.9139,-1.02399 -1.79835,-1.91951 l -1.60811,-1.62822 -2.70039,1.53679 c -3.43757,1.95633 -5.05657,2.78959 -5.26481,2.70968 -0.0902,-0.0346 -0.88761,-1.28046 -1.772,-2.76854 -1.5571,-2.61998 -1.87595,-3.07712 -2.14631,-3.07712 -0.0703,0 -0.79886,0.22496 -1.61904,0.49991 -1.07279,0.35965 -1.49078,0.5468 -1.48965,0.66699 0.0186,1.96892 4.05178,9.65921 5.46955,10.42906 0.32019,0.17387 0.48428,0.0582 1.41213,-0.99531 l 0,0 z m 21.2901,-5.17323 c 0.83399,-0.14947 2.19571,-0.60756 2.47265,-0.83182 l 0.23497,-0.19027 -0.28427,-0.57522 c -0.15635,-0.31638 -0.3934,-0.70518 -0.52676,-0.864 l -0.24247,-0.28876 -1.40204,0.38114 -1.40204,0.38114 -0.0641,0.38785 c -0.0353,0.21331 -0.0647,0.7108 -0.0653,1.10552 l -0.002,0.71767 0.34683,-0.0591 c 0.19075,-0.0324 0.61096,-0.10636 0.93377,-0.16422 l 0,0 z m -3.10589,0.0243 c 0.12159,-0.077 0.1314,-0.276 0.0534,-1.08229 l -0.0956,-0.98795 -1.33219,-0.35287 -1.33219,-0.35286 -0.29552,0.28312 c -0.16253,0.15572 -0.39749,0.49378 -0.52212,0.75123 -0.37024,0.76482 -0.10863,1.07797 1.22432,1.46547 1.1214,0.326 2.04593,0.43701 2.29997,0.27615 l 0,0 z m -16.12202,-2.34271 c 1.17056,-0.58879 3.69933,-2.02754 4.34086,-2.46974 0.87214,-0.60118 0.86003,-0.38993 0.1788,-3.11843 l -0.60568,-2.42584 -4.61552,-0.002 c -2.53854,-7.8e-4 -4.62467,-0.014 -4.63586,-0.0286 -0.0112,-0.0147 -0.0472,-1.65834 -0.08,-3.65259 l -0.0597,-3.62592 -0.80038,-0.19122 c -0.4402,-0.10517 -1.1867,-0.22078 -1.65887,-0.25689 -1.04951,-0.0803 -1.1374,-0.0158 -1.36944,1.00439 -0.38688,1.70095 -0.53113,3.35016 -0.53897,6.16196 -0.008,2.72575 0.0879,3.82972 0.38849,4.48939 0.15381,0.33757 0.17405,0.33374 2.72521,-0.51529 1.07115,-0.35648 1.96429,-0.62812 1.98476,-0.60364 0.0204,0.0245 0.31691,0.54874 0.65877,1.16503 1.61451,2.91057 2.69335,4.58884 2.94984,4.58884 0.0578,0 0.56979,-0.23373 1.13773,-0.5194 l 0,0 z m 11.09727,-0.14757 c 0.17065,-0.24946 0.39515,-0.61903 0.49889,-0.82126 l 0.18862,-0.36771 -1.03397,-1.00583 c -0.97574,-0.94916 -1.05454,-1.00249 -1.39886,-0.94661 -0.45905,0.0745 -1.54279,0.78436 -1.54279,1.01055 0,0.0932 0.54791,0.71285 1.21757,1.37694 1.42133,1.40953 1.58202,1.46803 2.07054,0.75392 z m 13.94013,-0.53728 c 1.02304,-1.04817 1.30269,-1.45051 1.19794,-1.72348 -0.071,-0.18498 -1.30928,-1.02081 -1.51235,-1.02081 -0.22353,0 -2.08012,2.0007 -2.08012,2.24158 0,0.29591 0.27881,0.83636 0.61909,1.20006 0.4658,0.49786 0.69785,0.40671 1.77544,-0.69735 z m 18.12299,-1.33028 c 0.46401,-0.51702 0.93351,-4.05388 0.93142,-7.01666 -7.8e-4,-1.42565 -0.22877,-4.17637 -0.37802,-4.5653 -0.10515,-0.27402 -0.37238,-0.23318 -2.23798,0.34202 -0.93765,0.28911 -1.87743,0.55717 -2.08839,0.5957 l -0.38357,0.0701 -1.47646,-2.48993 c -0.81204,-1.36947 -1.58869,-2.67034 -1.72586,-2.89082 l -0.24943,-0.40088 -0.39366,0.16448 c -0.57444,0.24002 -3.64595,1.96519 -4.88529,2.74391 -1.25498,0.78854 -1.20892,0.58835 -0.64478,2.80236 0.19442,0.76303 0.41136,1.7355 0.4821,2.16103 l 0.12861,0.7737 4.62595,0 4.62594,0 0.0333,3.51801 c 0.0284,3.00363 0.0574,3.54214 0.19854,3.68311 0.19187,0.19169 2.19101,0.67755 2.83297,0.6885 0.28855,0.005 0.49395,-0.056 0.60462,-0.1793 l 0,0 z m -35.44135,-2.38517 c 0.21456,-0.10823 0.49326,-0.32792 0.61934,-0.4882 0.2637,-0.33525 0.24329,-0.64763 -0.12642,-1.93475 -0.30218,-1.05197 -0.52749,-1.22907 -1.49469,-1.17487 -0.39511,0.0222 -0.76778,0.0897 -0.82815,0.15003 -0.22383,0.22383 0.39396,3.03989 0.77246,3.52106 0.22761,0.28937 0.35617,0.28046 1.05746,-0.0733 l 0,0 z m 19.80502,0.0887 c 0.25867,-0.20003 0.7961,-2.12217 0.81253,-2.90603 0.0151,-0.71772 0.005,-0.74847 -0.24723,-0.7841 -0.14458,-0.0204 -0.60834,-0.005 -1.0306,0.0349 l -0.76773,0.0719 -0.33015,1.19239 c -0.48686,1.7584 -0.47573,1.80546 0.55606,2.35108 0.4895,0.25886 0.7125,0.26768 1.00712,0.0399 l 0,0 z m -26.68588,-5.5206 c 2.41641,0 3.14495,-0.0306 3.1755,-0.13339 0.0218,-0.0733 0.12248,-0.58643 0.22375,-1.14012 0.10125,-0.5537 0.34603,-1.48757 0.54395,-2.07528 0.19792,-0.5877 0.35985,-1.15337 0.35985,-1.25704 0,-0.24837 -0.58683,-0.63608 -4.40208,-2.90836 -1.844,-1.09824 -3.17484,-1.95603 -3.17484,-2.04633 0,-0.19513 0.64388,-1.47933 1.67148,-3.33373 0.43621,-0.78717 0.95965,-1.76194 1.16321,-2.16616 l 0.37011,-0.73495 -0.45021,-0.48841 c -0.62089,-0.67359 -1.98001,-1.75144 -2.20848,-1.75144 -0.46375,0 -2.40033,2.32562 -3.84165,4.61341 -1.31759,2.0914 -2.46719,4.49685 -2.46719,5.1624 0,0.49988 0.26379,0.6038 2.55134,1.00508 1.02174,0.17924 1.89815,0.35089 1.9476,0.38145 0.0495,0.0306 0.0899,1.62031 0.0899,3.53278 l 0,3.47722 0.65596,-0.0686 c 0.36077,-0.0377 2.06708,-0.0686 3.7918,-0.0686 z m 6.93614,-0.0591 c 0.20019,-0.041 0.27108,-0.21585 0.51788,-1.27717 0.15727,-0.67629 0.25707,-1.34465 0.22178,-1.48525 -0.12449,-0.496 -1.27303,-0.96716 -1.74366,-0.71528 -0.33803,0.18091 -1.11909,2.93662 -0.95416,3.36642 0.0847,0.22063 1.13399,0.28026 1.95816,0.11128 l 0,0 z m 20.67476,-0.18099 c -0.31726,-1.90029 -0.62342,-2.94486 -0.99912,-3.40883 -0.19,-0.23463 -0.20851,-0.23695 -0.55424,-0.0692 -0.64815,0.31451 -1.26477,0.82844 -1.26477,1.05412 0,0.17557 0.43828,2.12368 0.59334,2.63733 0.0289,0.0957 0.35713,0.1334 1.16148,0.1334 l 1.12121,0 -0.0579,-0.34683 z m -2.45509,-4.91118 c 0.2561,-0.21035 0.29685,-0.30545 0.23552,-0.54978 -0.0893,-0.35588 -2.28145,-2.62354 -2.53577,-2.62315 -0.20379,4.3e-4 -0.91579,1.0233 -1.05846,1.52077 -0.0939,0.3273 -0.065,0.36852 0.97047,1.38387 l 1.0672,1.04653 0.50568,-0.26195 c 0.27812,-0.14407 0.64504,-0.3764 0.81536,-0.51629 l 0,0 z M 220.5242,428.4086 c 1.2072,-1.16782 1.26531,-1.55463 0.39604,-2.63631 l -0.3408,-0.42409 -0.27871,0.21664 c -0.90267,0.70161 -2.46643,2.43298 -2.46643,2.73078 0,0.12438 1.40396,0.98865 1.61024,0.99126 0.0933,0.002 0.57911,-0.39405 1.07966,-0.87828 z m 31.28831,0.0183 c 0.63947,-0.22369 1.21033,-0.45437 1.26858,-0.51263 0.22262,-0.22261 -0.53344,-2.54086 -1.55288,-4.76151 -0.8811,-1.91931 -2.77644,-4.88713 -3.63644,-5.69412 l -0.26807,-0.25154 -0.55649,0.51833 c -0.30608,0.28508 -1.03266,1.05859 -1.61465,1.7189 -0.58198,0.66032 -1.09799,1.20057 -1.14668,1.20057 -0.0487,0 -1.07975,-0.5774 -2.29124,-1.28311 -1.21148,-0.70571 -2.51142,-1.43535 -2.88875,-1.62142 -0.68305,-0.33683 -0.68706,-0.3374 -0.91963,-0.13089 -0.32235,0.28623 -0.77659,1.00505 -2.35647,3.72908 l -1.36167,2.34779 0.93082,0.94396 c 0.51194,0.51918 1.35523,1.3277 1.87396,1.79672 0.78796,0.71246 0.98613,0.84199 1.20436,0.78721 0.14367,-0.036 1.25273,-0.64526 2.46458,-1.35379 1.91408,-1.11909 4.27421,-2.46178 5.01148,-2.85106 0.2219,-0.11716 0.30514,0.005 1.83402,2.67825 0.88086,1.54054 1.70401,2.91058 1.82923,3.04454 0.2828,0.30256 0.54238,0.26614 2.17594,-0.30528 l 0,0 z m -33.86784,-2.87664 c 1.86525,-1.86004 1.79721,-1.73402 1.38093,-2.55758 -0.10384,-0.20543 -1.03411,-1.85738 -2.06729,-3.67102 -1.03318,-1.81362 -1.8785,-3.33407 -1.8785,-3.37878 0,-0.17978 0.76226,-0.69629 2.96858,-2.01152 1.27266,-0.75866 2.47321,-1.51539 2.66788,-1.68165 0.35181,-0.30044 0.35323,-0.30547 0.23455,-0.83195 -0.13486,-0.59833 -0.6815,-2.01522 -0.91756,-2.37836 -0.093,-0.14311 -0.26363,-0.24012 -0.42226,-0.24012 -0.54884,0 -2.93948,0.89705 -4.69126,1.76031 -2.54929,1.25627 -5.60267,3.31707 -5.60267,3.78138 0,0.12429 0.50573,0.65627 1.30729,1.37516 1.90847,1.71164 2.03011,1.85007 1.908,2.17128 -0.0556,0.14606 -0.65097,1.22242 -1.32319,2.39194 -1.46775,2.55355 -1.67866,2.96046 -1.67866,3.23869 0,0.27561 0.6542,0.71449 3.31107,2.2213 2.05953,1.16803 2.7009,1.49636 2.95617,1.51333 0.0721,0.005 0.90316,-0.7613 1.84692,-1.70241 l 0,0 z m 6.93297,0.36671 c 0.5576,-0.15239 1.07838,-0.33008 1.15729,-0.39486 0.20163,-0.16554 0.13279,-1.85812 -0.081,-1.9902 -0.18054,-0.11157 -0.62655,-0.0541 -1.7661,0.22742 -1.73611,0.42897 -1.96309,0.66316 -1.50976,1.55777 0.29448,0.58114 0.62165,0.87714 0.96935,0.87702 0.11901,-4e-5 0.67259,-0.12476 1.23018,-0.27715 z m 6.23155,0.0537 c 0.35168,-0.27664 0.72902,-0.99509 0.68475,-1.30379 -0.0627,-0.43773 -1.51419,-0.9956 -3.08664,-1.18638 l -0.59911,-0.0727 -0.0679,0.33935 c -0.11722,0.58611 -0.0776,1.6659 0.0655,1.78374 0.18534,0.15264 1.98191,0.64608 2.38674,0.65553 0.18595,0.005 0.45766,-0.0907 0.6166,-0.21576 z m -8.24852,-3.56368 c 0.63332,-0.20474 1.60533,-0.45266 2.16003,-0.55095 l 1.00855,-0.1787 0.0633,-0.38282 c 0.0348,-0.21056 0.0655,-1.48735 0.068,-2.83733 0.006,-3.40347 0.14716,-5.69115 0.36326,-5.90726 0.14065,-0.14065 0.667,-0.17989 3.2892,-0.24525 1.71697,-0.0428 3.27609,-0.10651 3.46471,-0.1416 0.39507,-0.0735 0.45723,-0.22869 0.73308,-1.83052 0.24242,-1.40781 0.21074,-1.53942 -0.42751,-1.77564 -1.34802,-0.49892 -5.10445,-0.8907 -7.53178,-0.78554 -1.76167,0.0763 -3.45281,0.30431 -3.68465,0.49673 -0.25513,0.21174 -0.1892,0.57953 0.43552,2.42982 0.32597,0.96547 0.5781,1.85767 0.56026,1.98268 -0.0367,0.25699 -0.0769,0.28375 -3.2873,2.18722 -1.60261,0.95019 -2.30323,1.4229 -2.32365,1.56777 -0.0321,0.22737 1.17027,2.49313 2.3469,4.42273 0.94045,1.54228 1.22417,1.92091 1.4394,1.92091 0.0942,0 0.68934,-0.16751 1.32266,-0.37225 z m 10.3155,-0.0279 c 0.17196,-0.2201 0.83927,-1.28861 1.4829,-2.37446 0.64362,-1.08585 1.55097,-2.61649 2.01632,-3.40144 0.46535,-0.78494 0.89825,-1.44719 0.96201,-1.47166 0.0637,-0.0245 1.25309,0.58225 2.64296,1.34827 1.38987,0.76601 2.84611,1.52377 3.2361,1.68393 l 0.70906,0.29119 0.2241,-0.30507 c 0.12324,-0.16778 0.54901,-0.69551 0.94615,-1.17273 0.82946,-0.9967 0.93774,-1.25926 0.65122,-1.57907 -0.72681,-0.81128 -3.33307,-2.78884 -4.87804,-3.70134 -1.7739,-1.0477 -4.38437,-2.25708 -4.87196,-2.25708 -0.31375,0 -0.46175,0.40874 -0.85372,2.35771 -0.18186,0.9043 -0.35336,1.75223 -0.3811,1.8843 -0.0481,0.22908 -0.0982,0.24012 -1.08891,0.24036 -0.57115,1.4e-4 -2.15499,0.0318 -3.51964,0.0704 l -2.48117,0.0701 4.2e-4,2.46413 c 2.1e-4,1.35528 0.0317,3.07643 0.0698,3.82478 0.0657,1.2874 0.0814,1.36074 0.29304,1.36232 0.37976,0.003 2.09295,0.39746 3.15836,0.7275 0.5576,0.17274 1.09383,0.31945 1.19161,0.32604 0.0978,0.006 0.31849,-0.16813 0.49045,-0.38823 l 0,0 z"
         style="fill:#000000;fill-opacity:1;stroke:none" />
    </g>
  </g>
</svg>
