<?xml version="1.0" encoding="UTF-8" standalone="no"?>
<!-- Created with Inkscape (http://www.inkscape.org/) -->

<svg
   xmlns:dc="http://purl.org/dc/elements/1.1/"
   xmlns:cc="http://creativecommons.org/ns#"
   xmlns:rdf="http://www.w3.org/1999/02/22-rdf-syntax-ns#"
   xmlns:svg="http://www.w3.org/2000/svg"
   xmlns="http://www.w3.org/2000/svg"
   xmlns:sodipodi="http://sodipodi.sourceforge.net/DTD/sodipodi-0.dtd"
   xmlns:inkscape="http://www.inkscape.org/namespaces/inkscape"
   width="292.09305"
   height="746.8219"
   id="svg3016"
   version="1.1"
   inkscape:version="0.48.2 r9819"
   sodipodi:docname="ovosh.svg"
   inkscape:export-filename="D:\flash\gra_vec\mems\ovosh.png"
   inkscape:export-xdpi="38.515125"
   inkscape:export-ydpi="38.515125">
  <defs
     id="defs3018" />
  <sodipodi:namedview
     id="base"
     pagecolor="#ffffff"
     bordercolor="#666666"
     borderopacity="1.0"
     inkscape:pageopacity="0.0"
     inkscape:pageshadow="2"
     inkscape:zoom="0.49497475"
     inkscape:cx="822.23707"
     inkscape:cy="479.47969"
     inkscape:document-units="px"
     inkscape:current-layer="layer1"
     showgrid="false"
     fit-margin-top="0"
     fit-margin-left="0"
     fit-margin-right="0"
     fit-margin-bottom="0"
     inkscape:window-width="1280"
     inkscape:window-height="750"
     inkscape:window-x="-4"
     inkscape:window-y="-4"
     inkscape:window-maximized="1" />
  <metadata
     id="metadata3021">
    <rdf:RDF>
      <cc:Work
         rdf:about="">
        <dc:format>image/svg+xml</dc:format>
        <dc:type
           rdf:resource="http://purl.org/dc/dcmitype/StillImage" />
        <dc:title></dc:title>
      </cc:Work>
    </rdf:RDF>
  </metadata>
  <g
     inkscape:label="Layer 1"
     inkscape:groupmode="layer"
     id="layer1"
     transform="translate(-203.55785,-274.7803)">
    <g
       style="fill:#999999"
       id="g4151"
       transform="matrix(0.90471313,0,0,0.90471313,26.492575,63.700271)">
      <rect
         style="fill:#999999;fill-opacity:1;stroke:none"
         id="rect4013"
         width="245.71428"
         height="390"
         x="234.28572"
         y="455.2193"
         ry="62.85714" />
      <rect
         style="fill:#999999;fill-opacity:1;stroke:none"
         id="rect4013-8"
         width="82.85714"
         height="390"
         x="377.14288"
         y="668.79077"
         ry="122.85714" />
      <rect
         style="fill:#999999;fill-opacity:1;stroke:none"
         id="rect4013-8-4"
         width="82.85714"
         height="390"
         x="241.42857"
         y="665.93359"
         ry="122.85714" />
      <rect
         style="fill:#999999;fill-opacity:1;stroke:none"
         id="rect4013-8-1"
         width="82.85714"
         height="367.14285"
         x="435.71423"
         y="523.07648"
         ry="115.65672" />
      <rect
         style="fill:#999999;fill-opacity:1;stroke:none"
         id="rect4013-8-1-4"
         width="82.85714"
         height="367.14285"
         x="195.71428"
         y="520.2193"
         ry="115.65672" />
    </g>
    <path
       style="fill:none;stroke:#000000;stroke-width:3.73332906px;stroke-linecap:butt;stroke-linejoin:miter;stroke-opacity:1"
       d="M 467.67684,625.29019 415.22381,486.19463"
       id="path3339"
       inkscape:connector-curvature="0" />
    <path
       style="fill:none;stroke:#000000;stroke-width:4.00627661px;stroke-linecap:butt;stroke-linejoin:miter;stroke-opacity:1"
       d="m 251.26455,624.05096 42.60929,-135.2989"
       id="path3341"
       inkscape:connector-curvature="0" />
    <g
       id="g3199">
      <path
         inkscape:connector-curvature="0"
         id="path3056"
         d="m 390.88556,308.53887 c 0,-0.53534 11.6427,-9.00114 11.95265,-8.69118 0.36063,0.36062 -1.64147,4.35558 -3.52585,7.03543 -1.1888,1.69063 -1.872,1.96429 -4.90401,1.96429 -1.93754,0 -3.52279,-0.13884 -3.52279,-0.30854 z"
         style="fill:#00ff00;fill-opacity:1;stroke:none" />
      <g
         transform="matrix(0.61305048,0,0,0.61305048,93.240732,52.027347)"
         id="g3060">
        <path
           style="fill:#ff0000;fill-opacity:1;stroke:none"
           d="m 389.85533,754.10986 c -23.95378,-2.88736 -48.5439,-7.87759 -64.75655,-13.14148 -37.94615,-12.32026 -69.10495,-38.9213 -101.10434,-86.31528 -5.16145,-7.64456 -18.07743,-32.35737 -21.38195,-40.91118 -7.15949,-18.53244 -12.94359,-43.04355 -13.87895,-58.81439 -1.5386,-25.94177 6.18236,-50.93506 24.11476,-78.06128 10.80508,-16.34474 19.83362,-25.86202 36.89375,-38.89087 11.93375,-9.11383 19.43796,-13.61342 30.31127,-18.17491 17.52632,-7.35252 22.37849,-7.69788 48.1827,-3.42947 17.35569,2.87089 19.89602,3.96817 23.84013,10.29756 1.79792,2.88525 5.33455,7.40511 7.85919,10.04413 l 4.59023,4.79822 -6.02294,0.18368 c -3.31263,0.10102 -9.77314,0.0494 -14.35671,-0.11465 -7.70295,-0.27574 -8.33375,-0.14858 -8.33375,1.68002 0,3.14188 7.22591,13.38726 13.88753,19.69066 l 6.11095,5.78235 -7.3527,6.43819 c -16.88057,14.78102 -24.85659,26.37223 -28.6227,41.59612 -4.18182,16.90432 -4.73121,21.94817 -4.73121,43.43656 0,18.18944 0.27639,22.05605 1.93897,27.12623 2.44652,7.46087 5.58958,12.17974 8.38145,12.58355 3.81511,0.55183 4.69275,-2.94828 3.86371,-15.40879 -1.30431,-19.60371 -0.78565,-24.87568 4.67647,-47.5345 3.71724,-15.42044 5.85697,-20.65233 13.00144,-31.78991 5.30597,-8.27153 16.27189,-19.07479 24.53779,-24.17379 3.66558,-2.26119 4.24113,-2.32748 10.80118,-1.24411 17.87101,2.95133 32.11609,0.50685 42.71647,-7.33022 l 2.84131,-2.10063 9.28052,3.25048 c 14.18404,4.96793 21.84341,6.39226 34.37453,6.39226 8.64334,0 12.97562,-0.50597 18.36289,-2.14463 7.79083,-2.36974 18.15255,-7.67353 23.94226,-12.25516 l 3.75954,-2.97508 9.37244,4.77015 c 7.99053,4.06682 10.93659,6.34735 19.98088,15.46711 14.899,15.02334 21.11445,24.62872 26.20443,40.49647 5.05699,15.76483 6.68143,23.82633 8.61807,42.76841 0.84288,8.24407 1.78857,15.40353 2.10152,15.90991 1.12792,1.82501 3.45872,0.86196 4.96541,-2.05163 4.99723,-9.66361 4.4892,-39.47021 -1.03136,-60.50953 -5.21983,-19.89325 -13.34024,-34.52494 -27.63658,-49.79677 -10.70877,-11.43947 -26.99541,-24.11142 -34.27383,-26.66702 -7.23508,-2.54039 -7.5066,-2.7758 -11.21649,-9.72534 l -3.47763,-6.51446 5.39373,-7.8023 c 2.96654,-4.29127 5.72515,-8.00714 6.13023,-8.25749 0.80601,-0.49814 22.77227,3.20991 41.88461,7.07041 10.43088,2.10693 14.06901,3.42612 26.26397,9.52337 26.07988,13.03945 42.31337,30.40154 51.54445,55.12804 6.3882,17.11149 8.71727,51.81986 5.15257,76.78482 -3.78251,26.49037 -5.59305,32.43721 -18.29907,60.10407 -3.6997,8.05597 -7.31677,16.2382 -8.03795,18.18275 -1.26118,3.40056 -10.31613,17.78198 -18.39503,29.21566 -9.30601,13.17035 -40.07645,41.50106 -55.89289,51.46124 -27.63478,17.40262 -38.67976,22.25209 -64.02762,28.11227 -24.62182,5.69236 -34.46386,7.1741 -55.67546,8.38211 -20.87241,1.1887 -23.31165,1.15333 -37.37564,-0.54193 l 0,0 z"
           id="path3031"
           inkscape:connector-curvature="0" />
        <path
           style="fill:#00ff00;fill-opacity:1;stroke:none"
           d="m 381.51903,464.09922 c -6.47819,-1.34907 -15.56402,-4.63275 -18.24698,-6.59458 -1.09603,-0.80144 -0.25746,-1.0015 5.88533,-1.40406 9.94663,-0.65184 16.14535,-2.67666 20.00253,-6.53384 4.30413,-4.30413 4.22506,-6.72375 -0.32176,-9.8466 -7.16808,-4.92317 -13.42453,-10.96684 -16.11573,-15.56761 -3.0203,-5.16341 -7.14391,-15.31526 -6.81363,-16.77439 0.13642,-0.60266 2.81842,1.02154 7.25273,4.39219 4.90057,3.72508 10.57885,7.08127 18.70768,11.0573 13.49638,6.60144 13.48856,6.59318 17.47034,18.44133 2.86562,8.52691 4.65601,10.57587 8.50294,9.73094 2.94284,-0.64636 6.446,-3.64694 7.66561,-6.56589 2.46749,-5.90552 -0.24065,-17.38948 -6.46092,-27.39774 -4.73564,-7.61954 -4.74782,-7.56511 2.18055,-9.74908 3.46878,-1.09344 3.85252,-1.09218 5.54719,0.0182 2.22625,1.4587 3.30098,3.48202 6.40643,12.06094 5.10011,14.08927 10.43238,22.22105 15.15164,23.10639 3.51607,0.65962 6.80724,-0.15186 9.04989,-2.23136 2.96702,-2.75117 2.60889,-5.24307 -1.52951,-10.64245 -1.9174,-2.50163 -4.05708,-6.10605 -4.75484,-8.00981 -4.43845,-12.10985 -6.24435,-16.31585 -8.83953,-20.5876 -1.6057,-2.64304 -2.91945,-5.28891 -2.91945,-5.87972 0,-1.40963 3.48053,-5.9167 8.84858,-11.45836 4.68557,-4.8371 6.06223,-5.60213 4.44167,-2.46833 -3.4144,6.60272 -4.18587,17.81514 -1.85751,26.99693 1.74557,6.88357 5.26327,14.28913 7.307,15.38291 2.3016,1.23177 9.16909,0.29264 18.38363,-2.51398 4.50714,-1.37281 8.30997,-2.38085 8.45073,-2.24009 0.14076,0.14076 -0.0536,0.84595 -0.4318,1.5671 -0.37825,0.72114 -1.34157,3.91735 -2.14072,7.10268 -1.87097,7.45764 -5.81154,15.24134 -9.96292,19.6795 -3.85228,4.11839 -10.91695,8.96833 -17.66049,12.12401 -4.5878,2.14689 -4.96434,2.20793 -8.60046,1.39421 -2.09143,-0.46805 -6.60375,-2.28031 -10.02737,-4.02725 -7.81002,-3.98515 -10.07236,-4.07861 -15.19661,-0.62773 -4.93212,3.32148 -11.235,5.65135 -19.90379,7.35749 -10.9594,2.15696 -12.28306,2.20511 -19.47045,0.70834 l 0,0 z"
           id="path3050"
           inkscape:connector-curvature="0" />
        <path
           style="fill:#008000;fill-opacity:1;stroke:none"
           d="m 324.51138,595.47763 c -3.09085,-3.72425 -6.63778,-18.77534 -7.12861,-30.24967 -0.73406,-17.16022 4.38856,-48.1022 9.71655,-58.6906 5.72199,-11.3714 11.4133,-18.00846 26.34736,-30.7256 4.41964,-3.76356 8.03572,-7.21904 8.03572,-7.67886 0,-0.45981 -1.56814,-1.85214 -3.48475,-3.09406 -4.99836,-3.23882 -18.89894,-18.69411 -17.80105,-19.792 0.1895,-0.1895 2.378,-0.0664 4.86335,0.27345 6.36526,0.8705 24.27959,-1.19344 24.27959,-2.79729 0,-0.3168 -2.30567,-3.24819 -5.1237,-6.51421 -2.81804,-3.26602 -6.33489,-7.86679 -7.81524,-10.22393 -1.48035,-2.35714 -3.33653,-5.11993 -4.12485,-6.13953 -2.38327,-3.08246 -3.58804,-12.9724 -2.89048,-23.72788 0.326,-5.02661 0.8062,-10.56275 1.0671,-12.30255 l 0.47436,-3.16328 11.88498,11.43746 c 11.5306,11.09643 12.12861,11.55531 20.05615,15.39014 11.12303,5.3806 11.59334,5.44196 13.98703,1.82484 3.90168,-5.89583 14.67069,-12.35663 22.15496,-13.29173 5.0154,-0.62663 7.23253,-2.80814 12.1154,-11.92068 1.96429,-3.6658 4.88262,-7.9877 6.48519,-9.60421 3.11607,-3.14319 10.30883,-7.47162 16.0256,-9.64382 5.19288,-1.97314 13.0182,-1.99143 17.41566,-0.0407 3.27537,1.45296 3.42504,1.63214 2.35294,2.8168 -1.64377,1.81635 -7.29259,14.2312 -9.07194,19.93812 -0.9306,2.98472 -1.67467,7.80792 -1.93112,12.51792 -0.41394,7.60251 -0.40383,7.66729 1.29609,8.29878 3.20816,1.19176 16.05166,-3.86875 28.38038,-11.18225 7.22968,-4.28871 20.44245,-16.31736 28.3464,-25.80601 3.94475,-4.73566 4.30734,-4.99886 4.93834,-3.58473 0.43612,0.97738 0.39556,6.44739 -0.11281,15.21189 -0.68486,11.80736 -1.05724,14.42098 -2.71317,19.04286 -1.05565,2.94643 -2.64364,6.16071 -3.52888,7.14285 -0.88523,0.98215 -3.63248,4.73673 -6.10501,8.34352 -5.96032,8.69463 -6.01247,10.19372 -0.67333,19.35546 3.64235,6.25012 4.04928,6.68307 7.14566,7.6026 9.83092,2.91947 22.94835,12.07155 34.79273,24.275 11.85574,12.21517 15.11639,16.69797 21.72077,29.86205 5.31074,10.58556 8.1548,18.63931 11.05895,31.31654 1.61073,7.03117 1.71257,39.20167 0.1399,44.19573 -0.98013,3.11246 -1.01755,2.92685 -2.24673,-11.14335 -1.67495,-19.17296 -2.79536,-25.15495 -7.00099,-37.37897 -1.95983,-5.69643 -4.05993,-11.80358 -4.66688,-13.57143 -1.53197,-4.46211 -3.53743,-8.20428 -7.08167,-13.21429 -4.51965,-6.38882 -16.13762,-19.48967 -21.02008,-23.70301 -6.17695,-5.33043 -21.4345,-14.53304 -26.90442,-16.22744 -1.17263,-0.36324 -2.63808,0.4148 -6.27621,3.33221 -5.7349,4.59881 -14.34144,9.02731 -23.36233,12.02111 -5.29928,1.75869 -8.35638,2.29982 -14.71652,2.6049 -10.78942,0.51755 -16.62651,-0.50695 -31.7733,-5.57669 -6.96202,-2.33024 -13.20163,-4.23679 -13.8658,-4.23679 -0.66417,0 -3.64654,1.42938 -6.6275,3.17641 -2.98095,1.74702 -6.91006,3.83514 -8.73135,4.64026 -6.54735,2.89433 -20.05691,3.19695 -32.59537,0.73016 l -4.29198,-0.8444 -5.89043,3.06454 c -4.74222,2.46718 -7.51982,4.67521 -14.24929,11.32736 -4.59737,4.54455 -9.36444,9.75156 -10.59348,11.57115 -13.99283,20.71621 -21.52612,53.7415 -19.53055,85.62023 0.55696,8.89737 0.30568,10.89123 -1.15134,9.13563 l 0,0 z M 480.19724,467.69004 c 9.78841,-2.05542 23.03348,-10.80262 25.78865,-17.03114 1.23692,-2.79628 1.31344,-3.69221 0.62948,-7.37006 -0.87895,-4.72631 -4.77821,-12.18799 -8.55187,-16.36498 -3.09123,-3.42162 -5.50408,-3.48508 -7.41779,-0.1951 -0.69503,1.19486 -2.40105,6.32239 -3.79116,11.39451 -3.38132,12.33743 -4.63928,14.6942 -11.58472,21.70382 -7.36958,7.43769 -7.63985,8.65777 -1.91783,8.65777 1.68305,0 4.7634,-0.35767 6.84524,-0.79482 l 0,0 z m -77.25064,-1.04015 c 7.61171,-1.44391 13.64677,-3.73935 19.42372,-7.38782 2.54298,-1.60604 4.91029,-2.91924 5.26069,-2.91823 0.35041,7.1e-4 2.50897,1.13056 4.79681,2.51012 6.46474,3.8982 12.12382,5.55706 17.6406,5.17101 3.9142,-0.2739 5.624,-0.87233 10.71428,-3.74998 9.25483,-5.23199 11.78799,-7.17071 15.25287,-11.67357 4.75281,-6.17665 8.02531,-12.69433 9.33325,-18.58861 0.64168,-2.89177 1.90851,-6.71743 2.81518,-8.50145 l 1.64848,-3.24368 5.73745,0.15166 5.73745,0.15166 2.18584,-2.65179 c 4.47053,-5.42353 8.76943,-16.60382 6.46153,-16.8047 -2.01383,-0.17527 -3.14678,0.2761 -5.31496,2.11753 -1.22764,1.04262 -3.16348,2.42882 -4.30187,3.08044 -1.1384,0.65162 -4.34211,2.76481 -7.11937,4.69598 -8.13018,5.65334 -25.4912,12.04238 -31.20488,11.48373 -2.99852,-0.29317 -5.70868,-4.64419 -7.66153,-12.30016 -2.60074,-10.19598 -1.52501,-20.5732 2.87378,-27.72213 2.82465,-4.59066 2.7979,-6.27076 -0.0999,-6.27076 -3.36084,0 -6.91349,2.0122 -11.14634,6.31323 -4.45265,4.52435 -10.92728,13.46026 -10.92284,15.07505 10e-4,0.61145 0.98409,2.55815 2.18312,4.32601 3.35697,4.94954 7.66338,13.7597 8.60576,17.60583 1.09669,4.47595 3.77293,9.86255 6.69015,13.4656 3.27401,4.04371 3.66276,5.68884 1.67356,7.08213 -2.67465,1.8734 -5.72552,1.43447 -8.2662,-1.18927 -2.3633,-2.44058 -6.95598,-11.74235 -9.08132,-18.39286 -1.51586,-4.74333 -5.43608,-12.04047 -7.44531,-13.8588 -1.98972,-1.80067 -7.69729,-1.29477 -13.05152,1.15683 -6.18733,2.83307 -6.27295,3.48362 -1.49567,11.36459 8.75657,14.44556 10.29578,25.56619 4.10047,29.62552 -2.86104,1.87463 -3.91089,0.72632 -6.39823,-6.99831 -1.2064,-3.74657 -3.15562,-8.38198 -4.33159,-10.30089 -2.01419,-3.28668 -2.81723,-3.83049 -13.85228,-9.3806 -6.44278,-3.24042 -13.99111,-7.56778 -16.77407,-9.61637 -8.31323,-6.11952 -14.03718,-9.84911 -15.11583,-9.84911 -1.73603,0 -1.1824,4.6775 1.50376,12.70499 1.38561,4.14082 3.64083,9.37503 5.0116,11.63156 2.9254,4.81573 8.94906,11.05012 14.96912,15.49278 2.35714,1.73952 4.39211,3.26559 4.52215,3.39125 0.68914,0.66595 -1.71059,3.38374 -4.35672,4.93414 -4.31576,2.52869 -10.44095,3.99568 -19.28811,4.61951 -8.79889,0.62044 -10.17947,1.33287 -7.69916,3.97304 2.4474,2.60513 12.11115,7.39828 18.0572,8.95623 6.61658,1.73364 19.48985,1.88159 27.72884,0.31867 l 0,0 z"
           id="path3052"
           inkscape:connector-curvature="0" />
        <path
           style="fill:#00ff00;fill-opacity:1;stroke:none"
           d="m 479.36476,460.90578 c 5.36129,-5.11002 6.99222,-8.20828 9.9224,-18.84949 2.64702,-9.6129 4.26752,-14.29675 4.93288,-14.25786 0.92643,0.0541 5.26875,6.56045 7.01744,10.51453 0.9746,2.20375 1.94826,5.49506 2.16369,7.31401 l 0.39169,3.3072 -4.90523,4.43438 c -5.42519,4.90443 -15.73061,10.47284 -20.84937,11.26571 l -3.08699,0.47815 4.41349,-4.20663 0,0 z"
           id="path3054"
           inkscape:connector-curvature="0" />
      </g>
    </g>
    <rect
       style="fill:none;stroke:#000000;stroke-width:2.31187081;stroke-opacity:1"
       id="rect3337"
       width="238.20491"
       height="144.79123"
       x="235.96017"
       y="623.90076" />
    <text
       xml:space="preserve"
       style="font-size:38.52404785px;font-style:normal;font-variant:normal;font-weight:normal;font-stretch:normal;line-height:125%;letter-spacing:0px;word-spacing:0px;fill:#000000;fill-opacity:1;stroke:none;font-family:Arial;-inkscape-font-specification:Arial"
       x="468.82306"
       y="371.16971"
       id="text3343"
       sodipodi:linespacing="125%"
       transform="scale(0.52009447,1.9227276)"><tspan
         sodipodi:role="line"
         id="tspan3345"
         x="468.82306"
         y="371.16971"
         style="font-weight:bold;-inkscape-font-specification:Arial Bold">Овощ обывательский</tspan></text>
  </g>
</svg>
