<?xml version="1.0" encoding="UTF-8" standalone="no"?>
<!-- Created with Inkscape (http://www.inkscape.org/) -->

<svg
   xmlns:dc="http://purl.org/dc/elements/1.1/"
   xmlns:cc="http://creativecommons.org/ns#"
   xmlns:rdf="http://www.w3.org/1999/02/22-rdf-syntax-ns#"
   xmlns:svg="http://www.w3.org/2000/svg"
   xmlns="http://www.w3.org/2000/svg"
   xmlns:sodipodi="http://sodipodi.sourceforge.net/DTD/sodipodi-0.dtd"
   xmlns:inkscape="http://www.inkscape.org/namespaces/inkscape"
   width="452.32291"
   height="243.84561"
   id="svg8705"
   version="1.1"
   inkscape:version="0.48.2 r9819"
   sodipodi:docname="rushka.svg"
   inkscape:export-filename="D:\flash\scenies\killing\rushka.png"
   inkscape:export-xdpi="63.669998"
   inkscape:export-ydpi="63.669998">
  <defs
     id="defs8707" />
  <sodipodi:namedview
     id="base"
     pagecolor="#ffffff"
     bordercolor="#666666"
     borderopacity="1.0"
     inkscape:pageopacity="0.0"
     inkscape:pageshadow="2"
     inkscape:zoom="0.7"
     inkscape:cx="332.59003"
     inkscape:cy="203.24808"
     inkscape:document-units="px"
     inkscape:current-layer="layer1"
     showgrid="false"
     inkscape:window-width="1280"
     inkscape:window-height="750"
     inkscape:window-x="-4"
     inkscape:window-y="-4"
     inkscape:window-maximized="1"
     fit-margin-top="0"
     fit-margin-left="0"
     fit-margin-right="0"
     fit-margin-bottom="0" />
  <metadata
     id="metadata8710">
    <rdf:RDF>
      <cc:Work
         rdf:about="">
        <dc:format>image/svg+xml</dc:format>
        <dc:type
           rdf:resource="http://purl.org/dc/dcmitype/StillImage" />
        <dc:title></dc:title>
      </cc:Work>
    </rdf:RDF>
  </metadata>
  <g
     inkscape:label="Layer 1"
     inkscape:groupmode="layer"
     id="layer1"
     transform="translate(-147.16387,-479.12399)">
    <g
       transform="matrix(0.47568157,0,0,0.47568157,192.56778,398.09788)"
       id="g2993">
      <g
         style="fill:#e6e6e6"
         id="g12088">
        <path
           inkscape:connector-curvature="0"
           id="path3019-1"
           d="m 735.57609,678.59821 c -2.5052,-1.7915 -9.3663,-11.6355 -9.7654,-14.011 -0.3058,-1.8198 3.541,-4.4907 7.4089,-5.1442 2.6308,-0.4444 2.9538,-0.7509 3.7057,-3.517 1.4919,-5.4883 -0.3243,-24.4397 -3.773,-39.3689 -1.7773,-7.6945 -3.1279,-10.5891 -4.9407,-10.5891 -2.4468,0 -7.0864,4.0609 -8.4051,7.3569 -1.1604,2.9001 -13.6113,16.6527 -15.0765,16.6527 -0.3127,0 -3.4275,-1.8636 -6.9219,-4.1414 -9.775,-6.3716 -12.9868,-7.461 -22.0716,-7.4864 -11.1153,-0.031 -12.1594,-0.458 -17.0675,-6.9789 -2.2709,-3.0172 -4.6207,-5.6745 -5.2218,-5.9051 -0.6011,-0.2307 -2.3892,-2.4721 -3.9737,-4.9809 -1.5844,-2.5088 -4.0329,-5.4402 -5.441,-6.5142 -6.7315,-5.1344 -21.2427,-9.676 -27.9563,-8.7496 -7.7812,1.0738 -17.1854,5.2974 -22.3076,10.0189 -5.8419,5.3849 -6.8643,9.5217 -3.1571,12.7746 2.7948,2.4524 2.8637,5.5272 0.3703,16.5196 -1.0394,4.5824 -1.8151,10.2838 -1.8189,13.3687 l -0.01,5.3788 -3.5338,3.5338 c -3.9391,3.9391 -5.6812,4.3253 -11.0174,2.4426 -3.963,-1.3982 -7.5048,-1.3865 -10.2518,0.035 -2.0127,1.0407 -2.521,1.009 -6.7602,-0.423 -7.5266,-2.5423 -11.4609,-0.8268 -17.4942,7.6281 -2.7215,3.8138 -4.1873,5.0979 -7.9129,6.932 -8.5238,4.1961 -25.0584,6.4224 -30.5766,4.1168 -1.3063,-0.5458 -3.3066,-2.101 -4.445,-3.4559 -1.8449,-2.1957 -4.8911,-4.2304 -11.6126,-7.7561 -1.9215,-1.008 -2.8613,-0.9672 -10.5497,0.4583 -16.7247,3.1007 -24.8105,1.2036 -24.8105,-5.8215 0,-2.4517 -2.9861,-6.0799 -6.4647,-7.8545 -3.9896,-2.0353 -17.4264,-6.3377 -21.5757,-6.9084 -3.0493,-0.4194 -3.8659,-0.2783 -4.8808,0.8431 -2.2942,2.5351 -4.1787,8.0394 -5.5415,16.1854 -0.8567,5.1209 -1.8126,8.5975 -2.5732,9.358 -0.9435,0.9435 -2.6073,1.2099 -7.5527,1.2091 -7.852,0 -10.2111,-0.8163 -16.9465,-5.8553 -2.9342,-2.1952 -6.6598,-4.3676 -8.279,-4.8273 -1.6191,-0.4598 -3.6198,-1.4352 -4.446,-2.1675 -2.3958,-2.1239 -8.8952,-1.476 -20.6886,2.0626 -7.2051,2.1619 -11.1022,4.0176 -14.307,6.8126 -4.9564,4.3224 -11.5815,4.67 -17.0676,0.8956 -1.7539,-1.2067 -5.316,-3.1699 -7.9159,-4.3624 -5.6121,-2.5745 -6.6423,-3.633 -11.8712,-12.1966 -2.199,-3.6015 -4.823,-7.1671 -5.8311,-7.9235 -1.0081,-0.7565 -4.2242,-1.8275 -7.1468,-2.3802 -6.9883,-1.3214 -9.4938,-2.7681 -12.3961,-7.1579 -2.7005,-4.0848 -5.0558,-4.9203 -8.1516,-2.8919 -3.2368,2.1209 -3.2147,2.184 -5.4964,-15.661 -1.4314,-11.1951 -3.1988,-18.1366 -5.9019,-23.18 -1.8185,-3.3929 -1.8038,-3.5009 0.7747,-5.6705 4.6106,-3.8795 2.026,-4.8592 -12.3893,-4.6959 -11.6554,0.1319 -13.803,-0.134 -13.803,-1.7092 0,-2.0402 -4.5197,-6.9133 -9.3846,-10.1183 -5.7725,-3.8029 -5.4554,-2.6589 -3.2286,-11.6481 0.5823,-2.3505 0.8795,-4.7404 0.6606,-5.3109 -0.571,-1.488 -7.1594,-4.2054 -13.51218,-5.5732 -3.0012,-0.6462 -10.28777,-1.6702 -16.19235,-2.2756 -18.33934,-1.8803 -20.18586,-2.7824 -20.18586,-9.8619 0,-3.8239 -0.21239,-4.4595 -1.84845,-5.5315 -3.79265,-2.485 -3.69649,-3.6067 0.66868,-7.8009 2.19528,-2.1093 4.2166,-4.7323 4.49182,-5.8289 0.91663,-3.6522 -0.073,-9.7365 -2.29291,-14.0972 -1.98344,-3.8962 -2.42589,-4.2948 -6.12577,-5.5188 -2.19335,-0.7257 -6.09889,-2.9357 -8.67897,-4.9111 -5.28434,-4.046 -8.00629,-4.5865 -9.84413,-1.9547 -0.62875,0.9004 -2.19921,3.2711 -3.48991,5.2683 -4.01616,6.2146 -8.11619,6.9169 -10.70904,1.8345 -2.49383,-4.8883 -8.44236,-5.4988 -12.88761,-1.3227 -2.37594,2.2321 -2.36569,9.2187 0.0202,13.7497 1.44291,2.7402 2.31589,3.449 6.0024,4.8735 8.73923,3.3769 8.3475,3.0611 5.15721,4.1581 -3.60348,1.239 -8.36449,5.2819 -14.37346,12.2053 -6.17764,7.1177 -7.26639,9.3213 -6.32273,12.7966 0.87104,3.208 2.52069,5.1875 4.32305,5.1875 1.10436,0 1.34236,0.576 1.34236,3.2487 0,2.5636 0.45488,3.7668 2.1569,5.7053 3.49984,3.9861 4.89751,9.2351 2.45907,9.2351 -0.66252,0 -2.36646,-0.9004 -3.78653,-2.0008 -1.42009,-1.1005 -3.90651,-2.6556 -5.52541,-3.4559 -2.21948,-1.0973 -3.48488,-2.4746 -5.14481,-5.5999 -2.34272,-4.4109 -5.184824,-7.8601 -6.476664,-7.8601 -0.43174,0 -2.38042,-1.1343 -4.33043,-2.5207 -2.67955,-1.9051 -4.59564,-2.6396 -7.84528,-3.0072 -4.68608,-0.5302 -5.70235,-1.4656 -5.70235,-5.2486 0,-2.3952 -1.13407,-3.6202 -4.08132,-4.4084 -2.39451,-0.6404 -2.799,-1.3742 -3.82818,-6.9451 -0.4374,-2.3675 -1.42428,-4.9867 -2.1931,-5.8205 -0.76879,-0.8337 -2.35895,-3.3166 -3.53368,-5.5174 -2.38762,-4.4733 -6.85553,-8.3157 -10.9496,-9.4167 -4.69399,-1.2623 -12.67562,-2.195 -18.91061,-2.2099 l -6.02693,-0.014 -1.61249,2.7283 -1.61248,2.7284 -0.39142,-3.8986 c -0.51519,-5.1314 -1.84677,-6.1455 -7.24603,-5.518 -5.48941,0.6379 -11.4658303,3.3991 -12.3413703,5.702 -0.85979,2.2614 -3.21221,3.8212 -6.73323999,4.4644 -3.66426001,0.6695 -4.48353001,1.9037 -4.29855001,6.4757 0.12316,3.0433 -0.10372,3.97 -1.06161,4.3376 -1.69884,0.6519 -0.98849,4.467 1.51417,8.1319 1.67569,2.454 1.90737,3.4188 1.6338,6.8041 -0.26215,3.2442 -0.68102,4.2336 -2.35866,5.5713 -1.89062,1.5075 -2.00779,1.8977 -1.60108,5.3317 0.51573,4.3546 0.48993,4.3637 -7.2687797,2.5409 -6.80182,-1.598 -18.20521,-1.1127 -22.90205,0.9747 -4.12844,1.8348 -5.54382,3.8543 -6.40357,9.1368 -0.68979,4.2383 -2.06227,7.4174 -4.77509,11.0609 -3.0085,4.0405 -4.17214,7.1886 -4.82972,13.066 -0.79449,7.1015 -1.66415,8.2879 -4.86247,6.634 -2.66499,-1.3781 -3.46091,-3.7422 -6.26492,-18.6087 -2.30557,-12.2238 -3.50723,-15.8777 -6.99782,-21.2783 -1.51903,-2.3502 -3.47232,-6.4636 -4.34066,-9.1408 -0.86835,-2.6773 -4.34881,-10.2237 -7.73433,-16.7698 -7.53313,-14.5653 -8.88203,-19.3145 -9.47638,-33.3634 -0.50694,-11.9834 -0.14333,-13.1535 3.51974,-11.3261 1.64884,0.8226 3.79612,1.0255 8.33265,0.7874 5.11952,-0.2688 6.40142,-0.5933 7.89837,-1.9996 1.79213,-1.6836 2.15839,-1.7286 10.22596,-1.2567 l 2.18269,0.1277 -0.20366,-3.8197 c -0.11207,-2.1009 -0.0866,-3.8198 0.0565,-3.8198 0.14304,0 2.27448,0.8186 4.73648,1.819 2.85654,1.1607 5.89395,1.8189 8.39384,1.8189 3.34456,0 4.27767,-0.3248 6.38064,-2.2207 1.35475,-1.2213 4.10019,-3.3016 6.10099,-4.6228 7.14902,-4.7207 7.84391,-6.9114 4.99997,-15.7628 -1.24114,-3.8629 -2.00313,-7.9216 -2.05892,-10.9666 -0.0997,-5.443 -0.59129,-6.295 -5.18548,-8.9873 -3.86683,-2.2662 -4.02189,-3.4978 -1.08833,-8.6445 1.16817,-2.0495 2.50538,-5.8454 2.97157,-8.4353 0.65664,-3.6479 1.40751,-5.3286 3.33276,-7.4596 1.94696,-2.155 2.48516,-3.3747 2.48516,-5.63163 0,-3.79591 -2.3171,-9.84824 -5.46592,-14.27714 -3.02079,-4.24878 -3.12124,-5.31761 -0.71242,-7.58058 l 1.82488,-1.71437 2.17912,1.6111 c 10.08693,7.4576 12.53627,7.00184 13.73639,-2.55604 0.73207,-5.83025 1.75662,-8.09971 6.81404,-15.09363 5.8800897,-8.13162 6.5540497,-10.20981 5.9947397,-18.48505 -0.4683,-6.92854 -0.44042,-7.10216 1.66628,-10.37366 1.1784,-1.82994 3.65447001,-4.56609 5.50237,-6.0803 2.71557,-2.22521 4.17746,-2.84954 7.62371,-3.25589 3.5587603,-0.41962 5.0315203,-1.0798 8.9057803,-3.99212 5.67142,-4.26329 9.48102,-6.26276 11.9324,-6.26276 1.2349,0 3.30808,1.33657 6.20697,4.0016 6.99037,6.42646 9.89872,5.39407 9.05062,-3.21278 -0.445,-4.51602 -0.35131,-5.1878 0.78427,-5.62357 0.7093,-0.27218 6.07136,0.0526 11.91567,0.72181 20.72268,2.37275 23.88892,1.72349 28.9193,-5.93024 1.65794,-2.52254 5.00941,-6.664 7.44772,-9.20323 2.43829,-2.53925 4.74713,-5.44234 5.130754,-6.45132 0.48237,-1.26874 2.52699,-2.78634 6.62954,-4.92072 3.35836,-1.7472 8.09207,-5.06844 10.91061,-7.65499 3.45752,-3.17299 5.93628,-4.81873 8.11344,-5.38687 1.72421,-0.44992 3.93226,-1.04224 4.9068,-1.31624 1.03434,-0.29081 3.61705,-2.92052 6.20479,-6.3177 5.73546,-7.52957 8.29181,-8.66162 14.00712,-6.20296 4.40045,1.89303 6.29331,4.98502 7.13844,11.66066 0.27864,2.20089 1.24631,5.80234 2.1504,8.00321 1.13141,2.75433 1.79088,6.26937 2.11571,11.27724 0.53081,8.18343 -0.54889,24.01663 -1.82938,26.82701 -1.61759,3.55024 -10.76251,6.4029 -15.50673,4.83715 -4.82207,-1.59142 -6.88268,-7.82919 -8.39524,-25.41361 -0.42712,-4.96556 -1.18183,-9.87663 -1.67712,-10.91346 -2.8626,-5.99242 -9.15318,1.72516 -10.45843,12.8309 -0.52333,4.45275 -1.6761,6.01951 -4.4289,6.01951 -2.95485,0 -7.6768,5.42309 -9.54894,10.96681 -2.87677,8.51859 -1.58505,18.27939 2.55659,19.31887 3.15283,0.79131 5.5716,-0.51949 7.16904,-3.88511 1.48041,-3.11905 2.54648,-3.97805 2.54648,-2.05185 0,1.65041 2.28523,6.28275 4.58842,9.30112 2.86408,3.75339 4.67276,3.58592 9.02517,-0.83568 3.97876,-4.042 7.82032,-5.47944 12.60092,-4.71499 4.00048,0.6397 6.95909,3.20787 7.5939,6.59175 0.27717,1.47747 1.41507,4.0167 2.52865,5.64273 1.11359,1.62602 2.7385,4.36264 3.61091,6.08134 0.87241,1.71871 2.77118,4.43658 4.2195,6.03969 2.12452,2.35158 3.05311,2.87239 4.80616,2.69557 2.59073,-0.26131 3.79397,-1.88839 3.17253,-4.29004 -0.24899,-0.9623 -2.09793,-4.53182 -4.10874,-7.93226 -2.0108,-3.40044 -3.65602,-6.35943 -3.65602,-6.57555 0,-0.21612 0.93274,-1.51021 2.07274,-2.87575 l 2.07274,-2.48282 -0.33304,4.01614 c -0.56433,6.80514 0.94686,7.43399 20.56095,8.55582 13.67395,0.78208 16.65614,1.31795 20.51674,3.68655 1.6992,1.04255 2.5383,2.27184 3.1082,4.55342 1.2329,4.93633 1.5947,5.25782 6.6278,5.88833 2.5478,0.31917 5.18,1.07591 5.8493,1.68164 0.6693,0.60574 3.2036,1.38214 5.6317,1.72535 5.7458,0.81216 6.0107,1.02066 5.4836,4.31664 -0.335,2.09494 -0.1732,2.86223 0.6717,3.18647 2.6132,1.00276 10.8129,-2.63534 14.2626,-6.32822 0.9701,-1.03849 2.1676,-1.88815 2.661,-1.88815 2.0169,0 7.5886,7.80322 13.7088,19.19917 3.571,6.64919 7.0906,12.63053 7.8213,13.29187 1.2374,1.11976 1.4267,1.11377 2.7538,-0.0873 2.0268,-1.83425 3.5211,-7.04783 4.0742,-14.21469 0.2911,-3.77218 0.9745,-7.05526 1.7522,-8.41728 0.7012,-1.22815 1.8557,-3.98153 2.5655,-6.11863 1.6758,-5.0454 4.9855,-8.27484 16.2411,-15.84733 7.2314,-4.86512 9.1873,-5.87369 10.2685,-5.29505 2.3951,1.2818 2.3216,2.97316 -0.3923,9.02969 -1.4572,3.25216 -3.2334,8.04114 -3.9471,10.64218 -0.7136,2.60105 -2.3432,7.021 -3.6211,9.82212 -1.278,2.80111 -4.0863,10.25419 -6.2408,16.5624 -4.4708,13.09065 -5.8788,16.1153 -8.7806,18.8634 -4.4448,4.2094 -12.1951,6.2199 -14.8199,3.8444 -1.5356,-1.3896 -6.0913,-1.6137 -7.5861,-0.3731 -1.4356,1.1914 -1.4462,5.2983 -0.021,8.0546 1.7083,3.3036 4.7814,4.4918 11.6993,4.5236 14.1222,0.065 25.218,-7.1236 27.2102,-17.6286 0.6493,-3.4237 1.5869,-5.06336 2.9131,-5.09407 1.1933,-0.0277 5.2266,3.15727 5.7415,4.53377 1.7424,4.6575 1.7315,4.9107 -0.2101,4.9107 -2.9266,0 -3.678,2.271 -2.2119,6.685 1.9949,6.0059 8.3358,11.7643 11.5825,10.5185 1.8135,-0.696 1.285,-4.6856 -1.2258,-9.2527 l -2.3302,-4.2387 1.6026,-3.209 c 0.8815,-1.7649 1.6027,-4.0865 1.6027,-5.1591 0,-4.83556 -7.3251,-13.79452 -11.9951,-14.67062 -1.3505,-0.25334 -2.6265,-0.90654 -2.8357,-1.45154 -0.2091,-0.54499 1.2076,-4.0908 3.1483,-7.87958 2.1815,-4.25901 3.7286,-8.36671 4.0529,-10.76049 0.5568,-4.11004 1.7693,-7.05844 3.49,-8.48648 0.8757,-0.72673 1.1899,-0.31242 1.899,2.50333 1.1916,4.73238 10.2633,14.11614 13.6466,14.11614 2.1916,0 3.1453,-0.99576 3.1453,-3.28392 0,-0.54024 -1.7783,-3.05083 -3.9517,-5.57913 l -3.9517,-4.59689 3.7698,-0.84984 c 2.0734,-0.46742 4.46,-1.06644 5.3037,-1.33113 1.2591,-0.39506 2.2739,0.40877 5.6657,4.48767 5.1448,6.18711 5.5368,7.52727 3.0619,10.4685 -2.121,2.5207 -2.6025,6.80544 -0.8408,7.4815 0.8048,0.30882 1.0364,1.74642 0.9801,6.08303 -0.1106,8.51424 3.0092,13.51105 6.0732,9.72716 4.5682,-5.64153 5.1181,-28.31578 0.9361,-38.60245 -1.443,-3.54929 -1.8277,-5.52115 -1.5529,-7.95896 0.5594,-4.96303 1.252,-5.20582 14.5139,-5.08787 12.7522,0.11351 13.3424,-0.0678 14.0505,-4.31683 1.6582,-9.94925 5.0417,-15.17128 11.1006,-17.13229 1.8758,-0.6071 7.6667,-1.43739 12.8688,-1.8451 10.4765,-0.82106 15.9644,-2.03536 21.9096,-4.84784 4.3697,-2.06724 5.7526,-3.70008 6.4722,-7.64211 0.6602,-3.61688 4.9494,-11.14915 6.5241,-11.4571 1.0887,-0.2129 1.2355,0.13425 0.9229,2.18269 -0.8935,5.85471 4.8471,9.58135 16.4432,10.67453 9.1531,0.86288 10.9401,1.9955 11.2233,7.11337 0.1085,1.96053 0.5783,4.31099 1.044,5.22322 1.1875,2.32625 -0.527,5.53509 -9.61,17.98562 -7.6755,10.52123 -11.2827,16.63634 -10.531,17.8526 0.672,1.08731 5.0946,0.82665 8.3976,-0.49494 1.6429,-0.65739 5.3328,-3.11251 8.1998,-5.45585 2.8669,-2.34334 5.7037,-4.25964 6.304,-4.25844 0.6002,10e-4 2.702,0.81928 4.6706,1.81801 4.8145,2.44256 6.0076,2.33216 7.2628,-0.67205 0.5717,-1.36835 1.7005,-2.84167 2.5084,-3.27403 2.756,-1.47498 7.9822,-0.89601 13.4079,1.48533 4.4811,1.96677 5.7174,2.21229 9.2165,1.83039 4.3413,-0.47384 8.5233,-1.53224 10.1298,-2.56367 0.5476,-0.35161 1.3661,-2.72412 1.8189,-5.27222 0.7531,-4.23856 1.04,-4.74123 3.3697,-5.90506 1.5977,-0.79814 4.2199,-1.27253 7.0379,-1.27323 5.6996,-0.001 8.2986,1.92417 10.093,7.47788 2.2714,7.02985 8.9539,15.44846 13.6697,17.22109 4.4735,1.68156 8.4878,-2.30152 8.4878,-8.4217 0,-2.60056 1.5615,-4.06759 5.2351,-4.91849 1.0786,-0.24981 3.4702,-1.76033 5.3146,-3.3567 1.8445,-1.59638 4.2361,-3.08795 5.3146,-3.31461 5.623,-1.18168 11.7832,-5.81419 11.7832,-8.86111 0,-1.0115 -0.9957,-4.73903 -2.2127,-8.28342 -2.5365,-7.38742 -2.3196,-8.5206 2.0551,-10.73496 4.1485,-2.09985 7.3465,-2.61875 7.8619,-1.27564 0.2352,0.61275 1.547,1.48356 2.9153,1.93512 1.3682,0.45157 2.8241,1.44961 3.2353,2.21788 0.8767,1.63822 4.7028,1.9265 5.2892,0.39853 0.2107,-0.54907 0.6156,-2.59535 0.8998,-4.54726 0.5409,-3.7142 1.9154,-7.03545 3.8024,-9.18758 1.5519,-1.76996 2.0878,-1.60557 2.9645,0.90945 0.6874,1.97184 1.0651,2.1827 3.91,2.1827 6.5134,0 15.4409,-1.53745 18.0105,-3.10171 1.4091,-0.85772 6.5649,-5.46906 11.4574,-10.24744 l 8.8955,-8.68795 5.2713,2.35698 c 5.7985,2.59271 11.863,3.58026 14.2246,2.31636 0.8311,-0.4448 2.0797,-2.36764 2.7745,-4.27296 2.931,-8.03719 3.8331,-9.55253 6.8025,-11.42703 1.8737,-1.1828 3.8084,-3.35941 5.2385,-5.89334 2.5585,-4.5335 4.1473,-5.56436 11.2768,-7.31711 2.7565,-0.67767 5.9075,-1.6809 7.0021,-2.22938 2.3677,-1.18631 3.3253,-4.11088 1.9107,-5.83498 -1.033,-1.25911 -12.1999,-6.77682 -13.715,-6.77682 -0.478,0 1.0023,-1.52438 3.2895,-3.3875 2.9706,-2.41984 4.6466,-4.49131 5.8674,-7.25165 2.1514,-4.86475 5.4662,-8.54227 12.9461,-14.36275 10.1296,-7.88251 28.2913,-18.75379 34.71,-20.77689 1.4397,-0.45377 5.696,-1.06165 9.4584,-1.35084 6.7269,-0.51707 6.8445,-0.55827 7.0661,-2.4765 0.139,-1.20264 -0.5307,-3.0933 -1.7464,-4.93028 -1.8354,-2.77349 -1.9106,-3.18388 -1.0871,-5.93269 0.7277,-2.42853 1.4255,-3.19106 3.9292,-4.29281 1.6744,-0.73685 3.9365,-1.56086 5.0269,-1.83114 2.2477,-0.55716 2.5795,-0.0402 4.5309,7.05999 l 1.1348,4.1288 5.4523,2.58799 c 4.8607,2.30719 5.4523,2.80793 5.4523,4.61497 0,2.56103 -3.0668,7.13353 -5.6595,8.4383 -1.0916,0.54936 -3.1608,0.84863 -4.6122,0.66707 -2.9234,-0.36572 -6.7515,1.23955 -7.8,3.27093 -0.3594,0.69614 -0.879,2.51433 -1.1546,4.04044 l -0.5012,2.77473 -5.678,-0.49529 c -5.4015,-0.47119 -5.736,-0.41243 -6.8702,1.20687 -0.6557,0.93618 -1.1922,2.93137 -1.1922,4.43375 0,3.17744 1.486,4.46686 6.4182,5.56905 3.653,0.81633 5.3992,2.20463 6.9902,5.55729 2.2324,4.70436 1.052,9.81383 -2.6183,11.33412 -2.1887,0.90658 -4.2421,3.23566 -4.2421,4.81163 0,2.9 6.1119,5.0557 7.9736,2.81236 0.4819,-0.58062 2.3276,-1.27336 4.1017,-1.53939 1.7843,-0.26757 3.5161,-1.00276 3.8757,-1.64536 0.5695,-1.01777 1.0916,-1.04853 4.2142,-0.24821 1.9603,0.5024 6.2683,0.85574 9.5733,0.78519 8.2706,-0.17655 8.7427,0.54872 3.5208,5.40853 -2.2861,2.12766 -4.1567,4.4255 -4.1567,5.10626 0,0.68079 0.6186,3.11002 1.3746,5.39832 0.756,2.2883 1.768,7.59828 2.2487,11.79997 1.3781,12.0435 3.6564,25.35106 5.1624,30.15374 1.9413,6.19089 1.853,6.95203 -0.8059,6.95203 -3.554,0 -7.0388,1.8504 -8.4558,4.48994 -0.9951,1.85383 -1.2642,3.82983 -1.147,8.42431 0.1216,4.76906 -0.059,6.00241 -0.8789,6.00241 -2.0208,0 -3.1484,2.17821 -3.6532,7.05702 -0.2814,2.72129 -1.1399,6.03055 -1.9076,7.35396 -1.5289,2.63577 -1.8119,6.95397 -0.6552,9.99636 0.4073,1.07117 1.8289,3.21921 3.1593,4.77339 1.3304,1.55419 3.2045,5.13374 4.1649,7.95455 1.0182,2.99083 2.5921,5.93937 3.7758,7.07342 1.8391,1.76189 2.4984,1.93056 7.0147,1.79443 4.8402,-0.14589 5.0945,-0.063 8.7582,2.85409 2.0754,1.65238 4.8146,3.21732 6.0872,3.47762 l 2.3139,0.47326 0.08,5.18905 c 0.1038,6.73881 2.4166,11.08883 6.8357,12.85703 1.6253,0.6503 3.1245,1.6239 3.3316,2.1637 0.2072,0.5397 0.053,4.1346 -0.3404,7.9887 -0.8382,8.1944 -0.2951,10.8336 2.8142,13.6735 2.2083,2.017 2.5272,3.1549 2.242,7.9975 -0.2638,4.4786 1.2469,10.6284 4.3015,17.51 2.747,6.1888 3.5662,9.3188 2.4393,9.3188 -1.1396,0 -9.5661,-5.2315 -24.9327,-15.4791 -22.2629,-14.8466 -28.1988,-20.8511 -31.0896,-31.4488 -0.5457,-2.0008 -1.2972,-9.3674 -1.67,-16.37016 -0.7176,-13.48098 -0.8575,-14.43443 -4.3768,-29.83013 -1.2348,-5.40216 -2.5633,-12.88863 -2.9521,-16.6366 -0.8014,-7.72404 -1.8666,-10.5119 -7.0326,-18.40494 -2.0069,-3.06635 -4.0271,-7.07704 -4.4893,-8.91265 -0.6672,-2.64962 -1.1579,-3.33747 -2.3811,-3.33747 -2.104,0 -6.1032,2.57428 -7.8836,5.07468 -2.1979,3.08662 -1.8461,5.83192 1.367,10.66694 1.5594,2.34652 3.5239,6.51086 4.3654,9.25409 1.6267,5.30232 2.026,11.71773 0.7774,12.48941 -0.4139,0.25586 -2.1503,-1.05694 -3.8585,-2.91736 -2.4642,-2.68389 -3.7241,-3.46551 -6.0995,-3.78413 -2.8867,-0.38718 -3.0457,-0.30078 -4.4447,2.41463 -0.798,1.54888 -2.6536,3.96208 -4.1233,5.36264 -5.2671,5.01903 -5.7068,7.97026 -3.2923,22.09355 1.7143,10.02749 4.7207,19.5315 7.0568,22.3077 3.3829,4.0204 1.1164,8.3013 -4.6903,8.8593 -4.5413,0.4363 -13.8903,4.9426 -17.6249,8.4952 -2.4527,2.3332 -2.9141,3.2329 -2.9141,5.6823 0,3.4455 -0.8035,4.2829 -7.1622,7.4644 -10.383,5.1949 -16.5605,11.6739 -21.729,22.7891 -3.7212,8.0027 -5.5299,16.5198 -7.1363,33.6048 -1.2883,13.7015 -2.538,21.0458 -5.4769,32.1871 -1.1822,4.4817 -2.1495,9.5876 -2.1495,11.3464 0,4.6575 1.3767,5.606 8.1362,5.606 4.8051,0 5.711,0.2186 7.4027,1.7864 1.9942,1.8482 5.06,2.7143 10.074,2.8457 3.7351,0.098 5.7719,-2.1325 7.0134,-7.6805 1.726,-7.7127 7.0862,-9.5763 15.3725,-5.3446 5.8104,2.9673 12.8815,10.277 13.454,13.9081 1.0722,6.8001 2.9287,12.2376 5.9894,17.5422 10.8365,18.7815 11.3084,20.4014 11.69,40.1273 0.3396,17.5496 -0.6457,36.5785 -2.4358,47.0413 -2.0384,11.9147 -7.0438,24.4442 -11.8699,29.7132 -2.7383,2.9894 -5.3415,4.126 -10.4616,4.5674 -3.9397,0.3396 -4.8337,0.1707 -6.8938,-1.3025 l 0,0 z m -260.4323,-33.2851 c 1.0102,-0.384 2.728,-2.3775 4.0168,-4.6611 1.2385,-2.1945 3.4941,-4.989 5.0124,-6.21 1.5183,-1.2211 4.5613,-3.6408 6.7622,-5.3773 2.3474,-1.852 4.9408,-4.7972 6.2735,-7.1245 1.2496,-2.182 3.1491,-4.8456 4.2213,-5.919 3.65,-3.6543 5.0922,-9.2594 5.1216,-19.9057 0.029,-10.5775 -0.8846,-13.4295 -4.3031,-13.4295 -2.6323,0 -4.5357,3.0264 -7.0521,11.213 -5.6991,18.5412 -14.137,30.7428 -27.2163,39.3561 -8.9807,5.9143 -11.1504,9.6353 -6.875,11.7905 2.1183,1.068 11.465,1.246 14.0387,0.2675 z"
           style="fill:#e6e6e6;fill-opacity:1;stroke:#000000;stroke-width:5.82051229;stroke-opacity:1" />
        <path
           style="fill:#e6e6e6;stroke:#ffffff;stroke-width:1.01504803px;stroke-linecap:butt;stroke-linejoin:miter;stroke-opacity:1"
           d="m -36.649595,380.10339 788.932665,0"
           id="path12068"
           inkscape:connector-curvature="0" />
        <path
           style="fill:#e6e6e6;stroke:#ffffff;stroke-width:1.01504803px;stroke-linecap:butt;stroke-linejoin:miter;stroke-opacity:1"
           d="m -88.88599,512.24476 788.93266,0"
           id="path12068-1"
           inkscape:connector-curvature="0" />
      </g>
      <path
         transform="translate(-95.450225,170.33688)"
         inkscape:connector-curvature="0"
         id="path12093"
         d="M 13.185419,339.15705 C 10.38946,333.93275 7.9004632,325.24421 7.0293653,317.66762 5.4096698,303.57991 4.8293442,304.68418 13.872035,304.64707 c 5.277073,-0.0217 8.467779,-0.51551 9.789519,-1.51523 1.242936,-0.94011 4.294089,-1.4831 8.333759,-1.4831 l 6.372921,0 0,-3.00546 c 0,-2.80876 0.169577,-2.94098 2.591142,-2.0203 1.425128,0.54183 4.747788,0.98515 7.383688,0.98515 4.192945,0 5.694151,-0.6635 11.998987,-5.3033 3.963542,-2.91682 8.008373,-6.76398 8.988512,-8.54925 1.616995,-2.94526 1.654032,-3.83421 0.399836,-9.59645 -0.76023,-3.49277 -1.880987,-9.45933 -2.49057,-13.25901 -0.934928,-5.82764 -1.628605,-7.37337 -4.433705,-9.87973 l -3.32537,-2.97122 2.686784,-7.79794 c 1.477731,-4.28887 3.773229,-9.65615 5.101105,-11.9273 2.790953,-4.77354 2.991072,-7.61901 0.943901,-13.42131 l -1.47042,-4.16761 150.250126,0 150.25012,0 1.78583,3.02318 c 2.62601,4.44547 5.28269,5.57748 8.35904,3.56178 1.3765,-0.90192 2.92576,-2.7525 3.44279,-4.11241 0.83966,-2.20845 1.53178,-2.47255 6.47993,-2.47255 l 5.53986,0 -2.16993,6.03082 c -1.19345,3.31695 -3.10692,7.19851 -4.25216,8.62569 -2.53994,3.16524 -9.42417,5.74297 -11.85834,4.44024 -2.75716,-1.47558 -9.62279,-1.06879 -11.36496,0.67338 -2.00281,2.00281 -2.06715,8.69685 -0.11979,12.46263 2.16819,4.19282 6.1604,5.40162 16.48887,4.99268 7.55758,-0.29924 9.89437,-0.83162 14.90518,-3.39582 3.70101,-1.89393 7.19713,-4.68595 9.26883,-7.40213 l 3.32639,-4.36119 0,3.14923 c 0,7.37197 8.05582,16.59506 14.33876,16.41642 1.72787,-0.0491 3.51994,-0.68597 3.98239,-1.4152 1.34108,-2.11474 1.00622,-7.5149 -0.73599,-11.86911 -1.30582,-3.26359 -1.38986,-4.67828 -0.44749,-7.53367 1.7842,-5.40619 0.37597,-10.11461 -4.72054,-15.78316 l -4.52313,-5.03081 14.23575,0 14.23574,0 0,4.57813 c 0,8.74097 4.34284,14.24517 9.63669,12.21373 1.91226,-0.7338 5.45743,-8.28963 5.50889,-11.7411 0.0207,-1.38896 0.39918,-3.09477 0.84104,-3.79069 0.6399,-1.00785 39.72183,-1.2134 192.0624,-1.01016 l 191.25902,0.25517 1.88749,6.89028 c 1.03812,3.78965 2.78601,8.65153 3.8842,10.80417 2.25587,4.42187 2.19816,4.49483 -5.29575,6.69519 -9.26792,2.72124 -18.94127,9.82983 -18.97193,13.94177 -0.0233,3.12459 -0.92161,4.04002 -8.06576,8.21932 -9.39621,5.49676 -15.81411,12.51179 -20.25506,22.13964 -4.73016,10.25484 -5.4923,13.5341 -7.99833,34.41418 -1.12902,9.40699 -2.55232,19.2628 -3.16289,21.90182 l -1.1101,4.79823 -256.73053,-1.7e-4 -256.73054,-1.7e-4 -0.13147,-6.31929 c -0.19064,-9.16329 -3.3149,-15.30804 -9.34797,-18.38545 -2.56447,-1.30812 -7.24122,-3.93873 -10.39274,-5.8458 -7.93932,-4.80429 -10.7862,-4.2844 -15.75746,2.87757 -2.07147,2.98431 -4.09676,5.43141 -4.50064,5.43798 -0.40388,0.007 -1.44881,-1.07848 -2.32208,-2.41125 -3.26068,-4.97642 -11.19378,-5.84284 -16.45117,-1.79673 -6.21254,4.78119 -3.98599,20.25637 3.39857,23.62099 1.35957,0.61947 2.47195,1.50791 2.47195,1.97432 0,0.46639 -11.08954,0.848 -24.64342,0.848 l -24.64344,0 -3.22316,-5.02285 c -3.71668,-5.79196 -9.15301,-10.88271 -12.4108,-11.6219 -9.34886,-2.12124 -12.31543,-2.50163 -19.67945,-2.52345 -6.96638,-0.0206 -8.66525,-0.35619 -10.35406,-2.045 -4.15499,-4.15499 -15.98354,-1.95461 -22.343973,4.15649 -2.154418,2.06996 -5.285256,4.06407 -6.957419,4.43133 -3.342817,0.73421 -5.043799,3.06809 -5.043799,6.92051 0,6.01672 2.04708,5.70487 -37.448178,5.70487 -34.339488,0 -36.274376,-0.0981 -37.232112,-1.88764 z"
         style="fill:#0000ff;fill-opacity:1;stroke:#ffffff;stroke-width:2.02030516;stroke-opacity:1" />
      <path
         transform="translate(-95.450225,170.33688)"
         inkscape:connector-curvature="0"
         id="path12095"
         d="m 77.673803,206.78478 c 1.061458,-1.06146 2.462701,-4.58437 3.113873,-7.82868 0.819664,-4.08379 2.945442,-8.69605 6.90891,-14.99013 l 5.724962,-9.09137 0.346071,-9.22723 c 0.318509,-8.49234 0.585244,-9.51738 3.349125,-12.87045 2.209494,-2.6805 4.507376,-4.08055 8.695846,-5.29817 3.13104,-0.91021 8.84946,-3.61938 12.70759,-6.02037 l 7.0148,-4.36543 5.57347,3.99107 c 9.04182,6.47471 13.32823,5.09897 13.32369,-4.27627 l -0.002,-4.35956 14.28591,0.9302 c 19.70308,1.28293 20.05589,1.13691 31.53748,-13.05203 6.3522,-7.85006 10.72798,-12.2135 14.90739,-14.86535 3.25376,-2.06452 8.21616,-5.571915 11.02757,-7.794206 2.81141,-2.222292 6.7951,-4.492907 8.85264,-5.045811 2.66266,-0.715515 5.52017,-2.961377 9.91351,-7.79155 l 6.17251,-6.78627 3.20999,1.329623 c 4.0789,1.689533 4.33983,2.240585 7.67321,16.204825 2.4464,10.248479 2.70961,12.943759 2.23464,22.883169 -0.29611,6.19653 -1.04022,12.20413 -1.6536,13.35021 -1.41076,2.63606 -8.37806,4.66339 -11.0719,3.22169 -2.70215,-1.44615 -3.9994,-5.84891 -5.79922,-19.68219 -0.86206,-6.62581 -1.95856,-13.07577 -2.43666,-14.33325 -1.09879,-2.89004 -4.47241,-4.735159 -7.12085,-3.894579 -3.31152,1.051037 -7.58979,7.984419 -8.98571,14.562259 -0.79813,3.761 -1.81468,6.11605 -2.63996,6.11605 -2.35858,0 -8.75843,6.42592 -10.64309,10.68644 -3.99279,9.02627 -3.2764,21.85922 1.40326,25.13699 2.8118,1.96946 6.76022,1.98489 9.54082,0.0373 2.03899,-1.42816 2.29062,-1.30823 4.39327,2.09393 2.39385,3.87334 6.14459,5.89762 9.15638,4.94171 1.02527,-0.32541 3.76283,-2.17797 6.08346,-4.11679 3.51941,-2.94039 4.88705,-3.47488 8.24477,-3.22214 3.94437,0.29689 4.11357,0.4731 8.39981,8.74802 2.4059,4.64476 6.00951,10.44051 8.00804,12.87944 3.12647,3.81545 4.16637,4.43442 7.45009,4.43442 6.01579,0 8.94713,-4.87474 6.11431,-10.16793 -1.26168,-2.35747 -2.08079,-2.31207 14.9162,-0.82665 15.43208,1.34867 19.00448,2.55982 19.92602,6.75555 1.09991,5.00791 3.30969,6.17229 19.23037,10.13297 1.85174,0.46066 3.16509,1.52014 3.38729,2.73252 0.56862,3.10249 3.25173,5.51661 6.11929,5.50581 2.92817,-0.011 12.60119,-4.21968 13.66887,-5.94722 0.37866,-0.61269 1.10225,-1.11398 1.60797,-1.11398 0.97098,0 6.00727,7.51807 11.2002,16.71944 l 3.10622,5.50392 -145.05332,0 c -142.788985,0 -145.023195,-0.0301 -143.123397,-1.92993 z"
         style="fill:#ffffff;fill-opacity:1;stroke:#ffffff;stroke-width:2.02030516;stroke-opacity:1" />
      <path
         transform="translate(-95.450225,170.33688)"
         inkscape:connector-curvature="0"
         id="path12097"
         d="m 383.41266,201.2322 c 2.45552,-14.12071 6.46997,-20.22603 18.55476,-28.21882 3.02506,-2.00075 5.64447,-3.49336 5.82091,-3.31692 0.17645,0.17644 -2.91698,9.02773 -6.87427,19.66953 l -7.19508,19.34872 -5.80374,0 -5.80375,0 1.30117,-7.48251 z"
         style="fill:#ffffff;fill-opacity:1;stroke:#ffffff;stroke-width:2.02030516;stroke-opacity:1" />
      <path
         transform="translate(-95.450225,170.33688)"
         inkscape:connector-curvature="0"
         id="path12099"
         d="m 459.60185,201.3587 c 0,-4.0458 -0.69368,-9.84155 -1.54151,-12.87944 -0.84783,-3.03789 -1.80888,-7.16889 -2.13567,-9.17998 l -0.59416,-3.65655 11.47958,-0.45101 c 6.31377,-0.24805 12.48692,-0.99683 13.71811,-1.66393 1.37668,-0.74595 2.65526,-2.85922 3.32091,-5.48891 1.84053,-7.27113 4.29388,-11.93306 7.02227,-13.34396 1.43859,-0.74393 8.96945,-2.26882 16.73523,-3.38865 20.07006,-2.89412 25.94031,-5.88435 28.74657,-14.64317 l 1.23873,-3.8663 2.16868,1.94484 c 2.93704,2.63387 9.09998,4.88918 15.80575,5.78404 7.72868,1.03138 8.75031,1.78448 9.53697,7.03028 0.66994,4.46752 0.51562,4.8016 -7.82909,16.94815 -12.55615,18.27672 -13.96186,21.77435 -9.67357,24.06938 3.75598,2.01014 10.50164,0.18929 17.79367,-4.80304 l 6.72953,-4.6072 4.60069,1.64874 c 2.53038,0.9068 4.96479,1.6465 5.4098,1.64375 0.44501,-0.003 2.32239,-1.65683 4.17195,-3.67573 l 3.36284,-3.67075 7.4448,2.26768 c 5.54291,1.68834 8.99316,2.13985 13.50572,1.76739 8.66664,-0.71535 11.39719,-2.25271 12.81307,-7.21404 1.7438,-6.1104 2.56504,-6.78893 7.80437,-6.44825 4.58208,0.29794 4.66531,0.36821 7.72923,6.52544 7.16393,14.39655 15.41972,20.38228 22.72199,16.47423 2.30854,-1.23549 4.99481,-6.0935 4.99481,-9.03292 0,-1.31632 1.03011,-2.53965 2.77792,-3.29896 1.52785,-0.66375 4.14213,-2.21266 5.8095,-3.442 1.66736,-1.22935 5.30391,-3.20915 8.08122,-4.39956 5.79144,-2.48234 8.21985,-4.4443 10.17097,-8.21735 1.20074,-2.32196 1.11939,-3.60331 -0.6294,-9.91401 -1.1046,-3.98607 -1.77596,-7.62343 -1.49192,-8.08301 1.46266,-2.36662 5.6616,-1.97731 10.28287,0.95341 7.52972,4.77522 10.67374,3.71148 12.74547,-4.31229 l 1.24577,-4.82484 9.59644,-0.37554 c 5.27805,-0.20655 11.18744,-0.94462 13.13199,-1.64015 1.94454,-0.69553 7.85393,-5.20145 13.13198,-10.01317 l 9.59645,-8.74856 5.01374,1.89121 c 6.60126,2.49001 14.04542,2.65809 16.56922,0.3741 1.05541,-0.95514 2.72016,-3.87357 3.69945,-6.48539 0.97929,-2.61182 3.8736,-7.05055 6.4318,-9.863854 2.55821,-2.8133 5.42562,-6.089414 6.37205,-7.280252 0.98425,-1.238454 4.72749,-3.078432 8.74572,-4.298928 7.51919,-2.283886 9.58321,-3.900653 10.63648,-8.331665 0.75738,-3.186232 -2.16715,-6.619358 -7.53159,-8.84138 -1.67251,-0.692775 -2.90433,-1.538272 -2.73739,-1.878883 4.97546,-10.151525 13.38837,-18.855043 26.90933,-27.838885 14.677,-9.751955 22.53727,-13.348805 31.74684,-14.527315 4.32897,-0.553961 8.53373,-1.557338 9.34391,-2.229729 1.96171,-1.62807 1.86008,-5.145775 -0.2782,-9.629796 -1.72779,-3.623209 -1.71951,-3.698123 0.61699,-5.5901102 1.30253,-1.0547274 2.72711,-1.9176862 3.16573,-1.9176862 0.43861,0 1.32967,2.2183568 1.98011,4.9296814 1.03539,4.31605 1.67737,5.152788 5.15732,6.722028 2.18609,0.985791 4.4894,2.41251 5.11846,3.170487 1.68209,2.026789 -1.71658,5.380855 -5.45242,5.380855 -4.93868,0 -9.6479,2.846786 -11.02948,6.667476 -1.19716,3.310682 -1.43201,3.434049 -6.53739,3.434049 -6.36252,0 -8.44065,2.151287 -8.44065,8.737745 0,4.742176 2.72506,7.763517 8.05885,8.935013 3.36364,0.738777 4.65762,2.038298 5.54325,5.566952 0.5144,2.0495 -0.13085,3.243689 -3.45431,6.39299 -5.87612,5.568191 -5.26864,10.5701 1.55734,12.822874 3.0462,1.005338 4.32352,0.918205 7.83644,-0.534562 7.14976,-2.956791 8.07047,-3.136465 14.00871,-2.733768 l 5.77111,0.391361 -2.12666,2.876456 -2.12665,2.876456 2.1529,11.42689 c 1.18409,6.28479 3.05519,16.98284 4.15801,23.77345 1.10281,6.79061 2.24919,13.38185 2.5475,14.64721 0.44804,1.90044 -0.1185,2.60264 -3.25677,4.03664 -4.86218,2.22174 -6.36407,4.73008 -7.04867,11.77213 -0.30395,3.12663 -1.10361,6.36663 -1.77701,7.20001 -1.35391,1.67558 -4.46402,13.1215 -5.48961,20.20305 l -0.65831,4.54569 -0.68788,-5.38127 c -0.37832,-2.95968 -1.84426,-7.73265 -3.25764,-10.6066 -5.81804,-11.83034 -10.46001,-20.14781 -11.65747,-20.88789 -3.601,-2.22554 -13.45093,4.69828 -14.68645,10.32357 -0.49605,2.25851 0.314,4.86156 3.48886,11.21129 4.93467,9.86935 5.13325,11.12477 1.54377,9.76006 -5.80344,-2.20647 -7.90573,-1.35506 -13.15667,5.3283 -6.99862,8.9078 -7.77789,11.0582 -6.99264,19.29621 0.36289,3.80701 0.9036,7.5572 1.2016,8.33376 0.46281,1.20606 -27.383,1.41192 -190.99018,1.41192 l -191.53198,0 0,-7.35601 z"
         style="fill:#ffffff;fill-opacity:1;stroke:#ffffff;stroke-width:2.02030516;stroke-opacity:1" />
      <path
         transform="translate(-95.450225,170.33688)"
         inkscape:connector-curvature="0"
         id="path12101"
         d="m 831.15266,502.92163 c -3.24301,-3.48692 -6.29722,-8.24884 -5.68398,-8.86208 0.2559,-0.25591 2.24939,-1.07844 4.42998,-1.82785 6.5767,-2.26027 7.71956,-8.83068 5.03708,-28.95855 -2.64662,-19.85891 -5.67247,-29.54448 -9.62148,-30.79785 -3.40972,-1.0822 -8.70556,2.33223 -13.0136,8.39037 -2.24498,3.15698 -5.8554,7.7655 -8.02318,10.24115 l -3.9414,4.5012 -6.97494,-4.11254 c -8.68829,-5.12276 -11.85853,-6.095 -22.63231,-6.94081 -10.01598,-0.78633 -10.98214,-1.46446 -21.90966,-15.37796 -5.73047,-7.29634 -7.45548,-8.77392 -13.81311,-11.83182 -13.50977,-6.49794 -25.13263,-7.18444 -36.42584,-2.15146 -14.81774,6.60372 -21.40886,16.89812 -15.57103,24.31972 2.1719,2.76113 2.17463,2.82727 0.49514,12.00552 -0.92884,5.07601 -1.97149,11.81988 -2.31701,14.98641 -0.45482,4.1682 -1.27243,6.36251 -2.96215,7.94992 -2.22368,2.08904 -2.63938,2.1319 -8.80026,0.90731 -4.46931,-0.88836 -7.37306,-0.97978 -9.40228,-0.29604 -1.61478,0.5441 -4.07238,0.65867 -5.46134,0.2546 -1.38896,-0.40406 -4.7665,-0.77998 -7.50564,-0.83535 -4.92647,-0.0996 -5.06364,-0.0154 -12.69957,7.79694 -6.93023,7.09033 -8.38305,8.08624 -14.21263,9.74277 -3.57134,1.01483 -9.71078,2.06134 -13.6432,2.32558 -6.81026,0.45763 -7.31404,0.33706 -10.6066,-2.53833 -5.4197,-4.73302 -13.61505,-9.40167 -16.75562,-9.54517 -1.57496,-0.0719 -7.73466,0.47791 -13.68823,1.22195 -12.63573,1.57913 -15.35954,0.90868 -16.44835,-4.04867 -1.20469,-5.48488 -6.16747,-9.27072 -16.90585,-12.89655 -13.92952,-4.70332 -18.38285,-5.17135 -21.48408,-2.25789 -2.71397,2.54963 -4.84751,8.21595 -6.8453,18.1799 l -1.31649,6.56599 -6.40909,0.30431 c -5.87224,0.27881 -6.84985,0.0116 -11.6713,-3.18961 -9.87471,-6.55645 -17.26588,-9.74161 -22.60538,-9.74161 -7.15849,0 -21.78683,4.51754 -29.61284,9.14507 -3.70843,2.1928 -7.72957,3.98691 -8.93588,3.98691 -1.20631,0 -6.01925,-2.08554 -10.69544,-4.63452 -7.87354,-4.29187 -8.93006,-5.26192 -14.28982,-13.12023 -6.04248,-8.85928 -8.33616,-10.502 -16.90922,-12.11032 -2.78389,-0.52225 -5.22967,-2.11782 -8.63736,-5.6348 -3.63671,-3.75333 -5.47661,-4.90623 -7.8298,-4.90623 -3.47412,0 -3.07851,1.09778 -5.82448,-16.16244 -0.92809,-5.83363 -2.5353,-12.85849 -3.57158,-15.6108 -1.68624,-4.47857 -1.72696,-5.2441 -0.3877,-7.28807 0.82305,-1.25612 1.49645,-3.15333 1.49645,-4.21602 0,-3.6959 -2.7049,-4.58302 -15.34847,-5.03381 l -12.13241,-0.43256 -5.19992,-5.28762 c -2.85996,-2.90819 -6.05454,-5.74271 -7.09907,-6.29894 -1.7333,-0.92301 -1.81232,-1.61513 -0.90488,-7.92604 0.92577,-6.43835 0.84783,-7.03897 -1.13131,-8.71838 -3.38767,-2.87461 -14.08789,-5.64395 -30.29438,-7.84053 -8.27025,-1.12092 -15.65699,-2.55274 -16.41498,-3.18182 -0.75799,-0.62907 -1.37816,-2.83593 -1.37816,-4.90413 0,-2.4903 -0.68941,-4.38427 -2.04119,-5.60761 -2.03982,-1.84602 -2.03936,-1.84917 0.69406,-4.70225 l 2.73526,-2.855 257.39991,0 c 154.37518,0 257.39991,0.36875 257.39991,0.9213 0,0.50671 -0.65269,4.33259 -1.45042,8.50196 -2.29879,12.01469 -0.10173,15.78289 9.22136,15.81567 2.43406,0.009 5.73142,0.89755 7.75286,2.09024 2.22214,1.31109 5.58165,2.14807 9.1228,2.27284 4.80871,0.16943 5.9457,-0.16142 8.00012,-2.32789 1.31712,-1.38896 3.18484,-4.68458 4.15047,-7.3236 1.44386,-3.94599 2.19656,-4.79823 4.23778,-4.79823 8.28213,0 19.52945,12.06078 19.56855,20.98383 0.003,0.70721 3.18232,7.55564 7.06493,15.21871 6.69863,13.22103 7.11221,14.44327 8.0952,23.92291 1.1198,10.79889 0.57145,34.59868 -1.15079,49.94814 -1.66802,14.86609 -6.84141,29.32806 -12.52423,35.01088 -3.55272,3.55273 -10.30195,3.36664 -13.78663,-0.38012 l 0,0 z M 573.58179,477.10774 c 0.74137,-0.60032 2.61808,-2.93757 4.17048,-5.19389 1.55239,-2.25633 5.37387,-6.13827 8.49218,-8.62655 6.62193,-5.28402 16.09217,-18.01058 17.69297,-23.77665 0.61332,-2.20919 1.11766,-8.47132 1.12076,-13.91585 0.006,-11.26938 -1.3749,-15.22662 -5.69336,-16.31048 -4.35738,-1.09363 -7.49904,2.04875 -11.13944,11.14196 -9.10716,22.74842 -13.24611,29.31922 -23.1344,36.72698 -10.46836,7.84233 -13.56525,11.21827 -13.56525,14.7875 0,3.81086 1.81179,5.54189 6.87146,6.56516 4.52608,0.91536 13.32841,0.10486 15.1846,-1.39818 z"
         style="fill:#ff0000;fill-opacity:1;stroke:#ffffff;stroke-width:2.02030516;stroke-opacity:1" />
      <path
         transform="translate(-95.450225,170.33688)"
         inkscape:connector-curvature="0"
         id="path12103"
         d="m 204.3304,379.17396 c -1.13731,-1.24787 -3.23132,-4.14565 -4.65336,-6.4395 -2.85321,-4.60242 -9.64302,-9.00881 -16.80655,-10.90696 -3.80514,-1.00826 -4.62322,-1.68501 -5.32889,-4.40827 -0.52151,-2.01256 -1.90862,-3.77303 -3.70466,-4.7018 -2.02929,-1.04939 -3.17491,-2.68196 -3.90761,-5.56855 l -1.0366,-4.08389 22.78114,0 22.78114,0 -6.24761,6.50624 c -7.67036,7.98789 -9.54341,11.95351 -8.10553,17.16107 0.56766,2.0559 1.95622,4.66211 3.08569,5.79158 1.85653,1.85653 4.30326,7.82636 3.52614,8.60349 -0.1735,0.1735 -1.24599,-0.70553 -2.3833,-1.95341 z"
         style="fill:#ff0000;fill-opacity:1;stroke:#ffffff;stroke-width:2.02030516;stroke-opacity:1" />
      <path
         transform="translate(-95.450225,170.33688)"
         inkscape:connector-curvature="0"
         id="path12105"
         d="M 38.467199,407.51489 C 37.357897,399.61307 30.698668,375.02483 28.706663,371.47553 27.26452,368.90596 23.665396,361.4624 20.70861,354.93429 l -5.375975,-11.8693 35.256384,0 c 34.423626,0 35.256385,0.0471 35.256385,1.99329 0,1.0963 0.979089,4.00854 2.175753,6.47163 l 2.175754,4.47836 -2.175754,3.68763 c -1.196664,2.02819 -2.175753,4.52181 -2.175753,5.54137 0,1.71124 -0.79599,1.81407 -10.354064,1.33751 -6.557839,-0.32697 -11.998327,-0.0687 -14.838734,0.7044 -5.834028,1.58791 -10.641404,6.41577 -11.596811,11.64623 -0.405936,2.22234 -2.387522,6.99531 -4.403524,10.6066 -2.016002,3.6113 -4.210105,9.2934 -4.875783,12.62691 -0.665679,3.3335 -1.254859,5.74369 -1.309289,5.35597 z"
         style="fill:#ff0000;fill-opacity:1;stroke:#ffffff;stroke-width:2.02030516;stroke-opacity:1" />
    </g>
  </g>
</svg>
