<?xml version="1.0" encoding="UTF-8" standalone="no"?>
<!-- Created with Inkscape (http://www.inkscape.org/) -->

<svg
   xmlns:dc="http://purl.org/dc/elements/1.1/"
   xmlns:cc="http://creativecommons.org/ns#"
   xmlns:rdf="http://www.w3.org/1999/02/22-rdf-syntax-ns#"
   xmlns:svg="http://www.w3.org/2000/svg"
   xmlns="http://www.w3.org/2000/svg"
   xmlns:sodipodi="http://sodipodi.sourceforge.net/DTD/sodipodi-0.dtd"
   xmlns:inkscape="http://www.inkscape.org/namespaces/inkscape"
   width="270.40662"
   height="269.13528"
   id="svg2995"
   version="1.1"
   inkscape:version="0.48.4 r9939"
   sodipodi:docname="Новый документ 2">
  <defs
     id="defs2997" />
  <sodipodi:namedview
     id="base"
     pagecolor="#000000"
     bordercolor="#666666"
     borderopacity="1.0"
     inkscape:pageopacity="1"
     inkscape:pageshadow="2"
     inkscape:zoom="0.35"
     inkscape:cx="755.61163"
     inkscape:cy="216.28807"
     inkscape:document-units="px"
     inkscape:current-layer="layer1"
     showgrid="false"
     fit-margin-top="0"
     fit-margin-left="0"
     fit-margin-right="0"
     fit-margin-bottom="0"
     inkscape:window-width="1024"
     inkscape:window-height="719"
     inkscape:window-x="-4"
     inkscape:window-y="-4"
     inkscape:window-maximized="1" />
  <metadata
     id="metadata3000">
    <rdf:RDF>
      <cc:Work
         rdf:about="">
        <dc:format>image/svg+xml</dc:format>
        <dc:type
           rdf:resource="http://purl.org/dc/dcmitype/StillImage" />
        <dc:title></dc:title>
      </cc:Work>
    </rdf:RDF>
  </metadata>
  <g
     inkscape:label="Layer 1"
     inkscape:groupmode="layer"
     id="layer1"
     transform="translate(-239.70819,-397.76327)">
    <path
       style="fill:#ffffff"
       d="M 353.28552,669.04372 C 317.73264,663.852 283.7192,642.78634 262.13214,612.58938 244.14013,587.42136 235.74402,558.73632 236.97597,526.6441 c 0.83953,-21.87004 4.3847,-35.89021 14.16027,-56 15.83098,-32.56668 46.38741,-58.88044 81.02415,-69.77419 16.23516,-5.1062 23.80721,-6.20669 42.49043,-6.1754 25.06222,0.042 41.65253,3.7781 62.29642,14.02912 38.36094,19.04867 64.95169,54.03069 73.89768,97.21764 3.22384,15.56316 3.03514,39.08892 -0.44278,55.20283 -10.47258,48.52156 -44.95288,86.88736 -92.1,102.47851 -14.66558,4.84978 -26.3287,6.54313 -44.07754,6.39955 -8.29058,-0.0671 -17.71316,-0.50737 -20.93908,-0.97844 z m 48.8653,-3.7369 c 63.53547,-13.72836 108.49626,-68.70536 108.493,-132.66272 -0.003,-58.80323 -37.22595,-110.25578 -93.33287,-129.01216 -14.09116,-4.71064 -25.7577,-6.56554 -41.66013,-6.62368 -37.24525,-0.13616 -70.38109,13.45586 -96.54146,39.60044 -24.74859,24.73363 -38.62256,56.40888 -39.87414,91.0354 -1.34628,37.24645 11.93082,71.35697 38.52007,98.96288 20.41047,21.19087 47.29991,35.27065 76.4257,40.01781 12.06789,1.96693 35.78264,1.31537 47.96983,-1.31797 z m -43.5,-5.77358 c -1.375,-0.24695 -5.7625,-1.14122 -9.75,-1.98728 l -7.25,-1.53828 0.096,-3.68179 c 0.0528,-2.02498 0.61807,-5.93179 1.25617,-8.68179 l 1.16017,-5 17.24383,-0.27361 17.24383,-0.27362 0,-21.80353 0,-21.80354 6.54873,-1.20665 c 3.6018,-0.66365 8.85067,-2.11399 11.66416,-3.22297 4.17435,-1.64537 5.3341,-1.77713 6.30393,-0.7162 2.64821,2.89696 16.55447,28.19071 16.27927,29.60997 -0.16285,0.83987 -5.69609,4.62099 -12.29609,8.4025 -6.6,3.78151 -12.675,7.27657 -13.5,7.76682 -1.29245,0.76801 -1.0465,2.24936 1.77759,10.70609 1.80267,5.39811 3.26517,10.32476 3.25,10.94811 -0.0152,0.62335 -1.04009,1.45846 -2.27759,1.85579 -2.57933,0.82817 -33.98139,1.57681 -37.75,0.89998 z m 27.88869,-2.36876 c 4.61379,-0.53044 8.57458,-1.15031 8.80176,-1.3775 0.22719,-0.22718 -1.03506,-4.67023 -2.80498,-9.87345 -1.76992,-5.20321 -2.97155,-10.09242 -2.67028,-10.86491 0.30126,-0.77248 6.45109,-4.75717 13.66628,-8.85486 7.21519,-4.09769 13.11853,-7.7208 13.11853,-8.05135 0,-0.33056 -2.51807,-4.8529 -5.5957,-10.04966 -3.07764,-5.19676 -6.44566,-11.10454 -7.48449,-13.12841 l -1.88879,-3.67977 -5.56378,1.95551 c -3.06008,1.07553 -7.55861,2.22894 -9.99674,2.56312 l -4.43295,0.6076 -0.26877,22.11665 -0.26878,22.11665 -17.61338,0.27252 -17.61337,0.27252 -0.56561,4.72748 c -0.31109,2.60011 -0.85583,5.47617 -1.21052,6.39124 -0.52921,1.36527 0.39995,1.88079 5.17898,2.87341 13.03829,2.70809 25.24782,3.35879 37.21259,1.98321 z m 20.06208,-3.11238 c -0.61579,-1.15059 -2.02168,-4.83984 -3.12421,-8.19832 -2.37213,-7.22586 -3.87675,-5.54453 14.13345,-15.79333 7.16801,-4.07899 13.03437,-7.78775 13.03637,-8.24168 0.002,-0.45394 -4.72138,-8.92069 -10.49638,-18.81501 -5.775,-9.89433 -10.5,-18.16638 -10.5,-18.38235 0,-0.50619 17.19124,-17.47731 17.704,-17.47731 1.18058,0 30.296,17.38903 30.296,18.09413 0,0.46448 -2.17659,4.57082 -4.83687,9.12519 -2.66027,4.55437 -6.25541,10.80196 -7.9892,13.88353 l -3.15233,5.60285 7.9892,6.74195 c 4.51719,3.81199 7.9892,7.52244 7.9892,8.53787 0,2.16353 -14.08906,12.04261 -25,17.52969 -5.7643,2.89885 -22.88215,9.48479 -24.6524,9.48479 -0.15248,0 -0.78105,-0.9414 -1.39683,-2.092 z m 10.23963,-3.53363 c 4.02028,-1.44409 10.4596,-4.20114 14.3096,-6.12677 7.00177,-3.50203 20.49221,-12.32836 22.45166,-14.68936 0.77777,-0.93715 -0.97525,-2.95338 -6.95592,-8.00037 -4.39766,-3.71111 -7.99574,-7.16632 -7.99574,-7.67825 0,-0.51192 3.59139,-7.07896 7.98087,-14.5934 l 7.98086,-13.66264 -13.68339,-7.71299 -13.68339,-7.71298 -2.49027,3.15119 c -1.36965,1.73316 -4.61494,5.01476 -7.21175,7.29245 l -4.72148,4.14125 4.67069,7.85875 c 9.56861,16.09984 16.15786,28.20495 16.15786,29.68361 0,0.91029 -5.74188,4.83661 -14.25,9.74421 -7.8375,4.52077 -14.35938,8.30151 -14.49306,8.40165 -0.34027,0.25488 3.84802,12.52928 4.27527,12.52928 0.19173,0 3.63791,-1.18153 7.65819,-2.62563 z m -91.22437,-0.12082 c -7.39621,-2.97111 -15.44721,-7.21798 -21.96603,-11.58699 -7.81524,-5.2379 -19.00097,-15.0445 -18.97573,-16.63615 0.0134,-0.84172 2.42225,-4.21103 5.35312,-7.48734 l 5.32885,-5.95692 12.89688,7.39229 c 7.09329,4.06577 13.81493,7.97375 14.937,8.68442 1.93106,1.22305 2.6245,0.27771 12.97285,-17.68537 6.013,-10.43762 11.24515,-18.97749 11.62698,-18.97749 0.38183,0 2.77628,0.89247 5.321,1.98326 2.54472,1.09079 7.54187,2.52039 11.10478,3.17688 l 6.47802,1.19363 -0.27188,18.07311 -0.27187,18.07312 -16.17237,0.2744 -16.17237,0.2744 -0.9841,4.7256 c -0.54126,2.59908 -1.50647,7.30525 -2.14491,10.45816 -0.63844,3.15291 -1.48332,5.93189 -1.87749,6.1755 -0.39418,0.24362 -3.62641,-0.72591 -7.18273,-2.15451 z m 7.43094,-9.25355 c 0.90188,-4.675 1.86509,-9.5125 2.14046,-10.75 0.49446,-2.22207 0.70528,-2.25 16.98162,-2.25 l 16.48095,0 0,-15.87117 0,-15.87117 -5.12279,-0.67956 c -2.81753,-0.37376 -7.3319,-1.51896 -10.03194,-2.54489 l -4.90916,-1.86534 -1.32866,2.16607 c -0.73077,1.19133 -5.48527,9.36606 -10.56555,18.16606 -5.08029,8.8 -9.60812,16.3926 -10.06185,16.87245 -0.4582,0.48459 -7.52124,-2.91939 -15.88739,-7.65683 l -15.06243,-8.52928 -4.08862,4.8834 c -2.24873,2.68587 -3.81474,5.32652 -3.48002,5.86811 1.89176,3.06094 22.21622,16.84436 31.76464,21.5418 6.12959,3.01551 11.23161,5.37871 11.33783,5.25155 0.10622,-0.12716 0.93103,-4.0562 1.83291,-8.7312 z m 124.83585,-23.57755 c -2.87805,-2.51765 -5.23126,-5.33015 -5.22935,-6.25 0.002,-0.91985 3.58468,-7.86518 7.96172,-15.43407 l 7.95825,-13.76162 -3.71172,-2.29803 c -2.04145,-1.26391 -10.3846,-6.09064 -18.54034,-10.72605 -13.70356,-7.78859 -14.79295,-8.61864 -14.3585,-10.94035 0.25856,-1.38178 1.59827,-6.78733 2.97714,-12.01233 l 2.50703,-9.5 17.85147,0 17.85148,0 0.27321,16.53607 0.27321,16.53608 10.57117,1.87808 c 5.81414,1.03295 10.77879,2.41914 11.03255,3.08042 0.62198,1.62087 -5.02197,14.24585 -10.4919,23.46935 -7.13428,12.02998 -17.17332,24 -20.12836,24 -0.86033,0 -3.919,-2.0599 -6.79706,-4.57755 z m 11.80145,-3.17245 c 5.94426,-6.71588 13.02878,-17.42518 17.70119,-26.75794 6.44603,-12.87544 6.83241,-11.77421 -4.82937,-13.7642 -5.54741,-0.94662 -10.49567,-1.9742 -10.99614,-2.28351 -0.50047,-0.30931 -0.90995,-7.73583 -0.90995,-16.50337 l 0,-15.94098 -15.87117,0 -15.87117,0 -0.6573,4.95496 c -0.36151,2.72523 -1.33215,6.8677 -2.15697,9.20548 -0.82482,2.33779 -1.30445,4.75924 -1.06586,5.381 0.23859,0.62176 8.57625,5.75401 18.52814,11.405 9.95188,5.65098 18.09433,10.88767 18.09433,11.6371 0,0.74942 -1.96016,4.63721 -4.3559,8.63952 -2.39575,4.00232 -6.18776,10.38351 -8.42669,14.18042 l -4.07079,6.90348 4.67669,3.81083 c 2.57218,2.09596 4.97595,3.8269 5.3417,3.84652 0.36576,0.0196 2.55693,-2.10181 4.86926,-4.71431 z m -198.08374,-6 c -5.21532,-6.98584 -15.65115,-27.15305 -18.3881,-35.53495 -1.37219,-4.20233 -2.04953,-8.71505 -1.3081,-8.71505 0.13989,0 3.35595,-1.125 7.1468,-2.5 3.79086,-1.375 7.27077,-2.5 7.73313,-2.5 0.98683,0 3.4727,3.84546 11.31273,17.5 3.15793,5.5 6.09567,10.37393 6.5283,10.83095 0.43264,0.45702 9.15472,-3.96023 19.38241,-9.81611 l 18.5958,-10.64705 8.52325,8.52325 c 4.68779,4.68778 8.52325,8.95822 8.52325,9.48985 0,0.53163 -2.20154,4.71341 -4.89231,9.29286 -2.69078,4.57944 -6.44416,11.02625 -8.34086,14.32625 -2.31558,4.02879 -3.98949,5.90442 -5.09508,5.70906 -0.90558,-0.16002 -7.50584,-3.64478 -14.66723,-7.74391 l -13.02072,-7.45298 -3.37834,3.74392 c -1.85808,2.05915 -4.89194,5.63318 -6.7419,7.9423 -1.84996,2.30911 -4.15336,4.22161 -5.11867,4.25 -1.03615,0.0305 -3.81936,-2.71342 -6.79436,-6.69839 z m 14.65877,-5.29658 c 3.18567,-3.82438 6.35803,-6.95342 7.04968,-6.95342 0.69165,0 7.23354,3.51905 14.53753,7.82011 l 13.27997,7.82012 2.56186,-4.07012 c 1.40901,-2.23856 4.91539,-8.19725 7.79194,-13.24154 l 5.23009,-9.17142 -7.39949,-7.3995 -7.39949,-7.39949 -10.3807,5.94298 c -5.70938,3.26864 -13.70018,7.91305 -17.75733,10.32092 -4.05715,2.40787 -8.10715,4.37596 -9,4.37354 -1.03787,-0.003 -4.64405,-5.25371 -9.99867,-14.5589 -5.30252,-9.21463 -8.84148,-14.37562 -9.64592,-14.06693 -0.69882,0.26817 -3.16428,1.05494 -5.47877,1.74838 -2.3145,0.69344 -4.4114,1.79036 -4.65977,2.4376 -1.37474,3.58252 10.16076,28.2569 18.31916,39.18461 5.32714,7.13541 4.54437,7.30387 12.94991,-2.78694 z m 72.6407,-19.02272 c -5.38168,-1.72493 -6.25,-2.33778 -6.25,-4.41121 0,-1.32438 1.0125,-3.57826 2.25,-5.00863 l 2.25,-2.60067 6.75,1.77725 6.75,1.77726 0,4.26765 c 0,2.34721 0.1125,4.60515 0.25,5.01765 0.518,1.554 -5.97951,1.11038 -12,-0.8193 z m 9.56642,-3.57626 c -0.26959,-2.25404 -1.05638,-2.8369 -5.31642,-3.9385 -4.41811,-1.14247 -5.14547,-1.10329 -6.25,0.33669 -1.12014,1.46034 -1.66033,3.22266 -1,3.26243 0.1375,0.008 2.05,0.66353 4.25,1.4561 2.2,0.79258 5.04239,1.46081 6.31642,1.48495 1.92634,0.0365 2.26314,-0.40163 2,-2.60167 z m 10.37649,0.63246 0.30709,-5.29175 6.5,-1.81244 c 3.575,-0.99685 6.79305,-1.82825 7.15122,-1.84758 0.92001,-0.0496 4.84878,6.79793 4.84878,8.45107 0,1.42383 -8.411,4.31864 -15.30709,5.26822 l -3.80709,0.52423 0.30709,-5.29175 z m 10.59116,0.48458 c 4.98143,-1.47932 5.11026,-1.60929 4.00338,-4.03863 -0.69526,-1.52593 -1.69626,-2.29808 -2.55299,-1.96933 -0.77512,0.29744 -3.16996,0.82234 -5.32188,1.16645 -3.49674,0.55915 -3.91258,0.93091 -3.91258,3.49784 0,3.33308 0.68617,3.45152 7.78407,1.34367 z m -110.32606,-18.35675 -7.81246,-13.88528 -9.83949,3.38528 c -5.41172,1.8619 -10.44809,3.38527 -11.19193,3.38527 -4.23742,0 -4.51931,-35.67528 -0.41286,-52.25 1.13637,-4.58671 1.29925,-4.7467 4.73778,-4.654 1.95852,0.0528 5.81095,0.61807 8.56095,1.25617 l 5,1.16017 0.27362,17.24383 0.27361,17.24383 21.95733,0 21.95734,0 0.55898,2.75 c 0.30743,1.5125 1.46352,6.125 2.56907,10.25 1.10556,4.125 2.22381,8.4 2.48501,9.5 0.39964,1.68305 -1.82004,3.3074 -14.00668,10.25 -7.96487,4.5375 -15.11523,8.25 -15.88969,8.25 -0.77447,0 -4.92373,-6.24837 -9.22058,-13.88527 z m 23.88843,3.02362 c 10.06758,-5.79838 12.64158,-7.70956 12.1213,-9 -0.36331,-0.90109 -1.59032,-5.35085 -2.7267,-9.88835 l -2.06614,-8.25 -21.81438,0 -21.81437,0 -0.27307,-17.74306 -0.27308,-17.74306 -6.27453,-1.12175 c -3.451,-0.61696 -6.45612,-0.82795 -6.67805,-0.46885 -0.22193,0.35909 -1.16052,4.68576 -2.08575,9.61481 -1.27199,6.77636 -1.58547,12.79147 -1.28543,24.6651 0.21824,8.63675 0.70693,16.01331 1.08597,16.39235 0.37904,0.37904 4.57086,-0.7249 9.31516,-2.45319 11.39566,-4.1513 12.38819,-4.07897 15.30414,1.11535 7.65882,13.64302 13.34554,22.8241 13.96913,22.55285 0.39267,-0.1708 6.46578,-3.62329 13.4958,-7.6722 z m 33.49356,4.02165 c -3.212,-3.212 -5.84,-6.31755 -5.84,-6.90122 0,-1.19449 6.44931,-5.25878 8.34475,-5.25878 0.67674,0 3.38966,2.19219 6.02871,4.87153 l 4.79827,4.87152 -2.10619,4.12848 c -1.17493,2.30304 -2.83118,4.12847 -3.74586,4.12847 -0.90183,0 -4.26768,-2.628 -7.47968,-5.84 z m 6.23719,-5.43674 c -3.50473,-3.53977 -3.9734,-3.72767 -6.4654,-2.59224 l -2.68676,1.22417 4.76875,4.84154 4.76874,4.84155 1.69666,-2.2493 c 1.64676,-2.18317 1.58554,-2.36153 -2.08199,-6.06572 z m 59.91185,8.02674 c -1.08986,-1.7875 -1.98325,-3.71692 -1.9853,-4.28759 -0.002,-0.57068 2.25973,-3.26703 5.02619,-5.99189 l 5.02994,-4.95431 3.70826,1.9919 c 2.03955,1.09554 3.85848,2.77633 4.04208,3.73509 0.39514,2.06343 -9.88153,12.7568 -12.25969,12.7568 -0.86895,0 -2.47162,-1.4625 -3.56148,-3.25 z m 9.93963,-5.32154 3.20296,-3.64797 -2.15303,-1.50803 c -2.01805,-1.4135 -2.39337,-1.27334 -5.98698,2.23572 -3.36232,3.28322 -3.70317,4.03078 -2.77085,6.07701 1.30178,2.85711 3.05985,2.1371 7.7079,-3.15673 z m 76.57133,-2.79394 c -3.3,-0.6627 -6.5625,-1.55313 -7.25,-1.97873 -0.92036,-0.56976 -1.25,-5.24139 -1.25,-17.71481 l 0,-16.94098 -21.88646,0 -21.88645,0 -0.70194,-4.68085 c -0.38606,-2.57446 -1.59365,-7.56787 -2.68352,-11.09646 -1.08987,-3.52858 -1.75815,-6.99784 -1.48508,-7.70945 0.27307,-0.71162 5.81706,-4.32817 12.31997,-8.03678 16.37169,-9.33679 17.38154,-9.82433 18.31424,-8.8419 0.4519,0.476 4.04514,6.49044 7.98498,13.36544 3.93984,6.875 7.50405,12.84949 7.92046,13.27665 0.41641,0.42716 5.39705,-0.8384 11.06809,-2.81236 5.67104,-1.97396 10.6671,-3.22346 11.10236,-2.77666 0.43526,0.44681 1.20446,5.8884 1.70935,12.09243 0.96429,11.84926 0.10925,27.53392 -2.09719,38.47033 -1.44563,7.16535 -1.69968,7.28772 -11.17881,5.38413 z m 7.86374,-3.38452 c 2.96734,-10.41653 4.31903,-37.17865 2.34698,-46.46782 l -0.78927,-3.71783 -9.58002,3.46783 c -5.269,1.9073 -10.08883,3.45975 -10.71072,3.44988 -0.97442,-0.0155 -3.91655,-4.72675 -15.0962,-24.17381 l -2.1223,-3.69174 -12.9561,7.53648 c -7.12586,4.14507 -13.13633,7.71157 -13.35659,7.92556 -0.22026,0.21399 0.56866,3.65886 1.75317,7.65526 1.1845,3.99641 2.15222,8.50369 2.15048,10.01619 l -0.003,2.75 22.5,0 22.5,0 0,17.39182 0,17.39182 4.75,0.98996 c 7.0256,1.46423 8.06548,1.40102 8.61374,-0.5236 z m -172.38196,-8.5 c -1.49547,-3.44985 -3.72178,-14.09428 -3.24186,-15.5 0.25382,-0.74348 2.19255,-1.25 4.7844,-1.25 4.85985,0 5.44167,0.56764 7.17488,7 1.81488,6.73545 1.59825,7.84804 -1.9492,10.01096 -4.19121,2.55543 -5.5704,2.50225 -6.76822,-0.26096 z m 6.54756,-2.79747 c 0.35605,-0.5761 0.11272,-3.2761 -0.54073,-6 -1.08779,-4.53441 -1.43456,-4.95253 -4.1074,-4.95253 -3.16943,0 -3.21254,0.52844 -0.71384,8.75 0.98837,3.25208 3.95912,4.47238 5.36197,2.20253 z m 86.72066,2.87257 c -3.78033,-2.33706 -3.6721,-1.55932 -1.36729,-9.8251 l 1.81244,-6.5 5.15243,-0.30226 c 5.07689,-0.29783 5.15242,-0.26018 5.15242,2.5685 0,3.39023 -2.76437,13.19513 -4.22448,14.98376 -1.35503,1.65991 -2.63878,1.47795 -6.52552,-0.9249 z m 6.627,-6.25092 c 1.71719,-6.81956 1.52442,-7.75503 -1.52297,-7.3906 -2.17598,0.26021 -2.88379,1.11575 -3.98482,4.81642 -1.71787,5.77393 -1.75117,5.51973 0.88079,6.72313 2.98455,1.36462 3.31278,1.0703 4.627,-4.14895 z m -147.877,-34.98072 0,-16.45166 -5.25,-1.03408 c -2.8875,-0.56875 -7.05,-1.31494 -9.25,-1.65822 -9.12224,-1.42338 -9.19965,-1.73434 -3.50191,-14.06708 6.69517,-14.49167 22.65286,-36.38242 26.52167,-36.38242 1.54614,0 12.48024,9.76056 12.48024,11.14076 0,0.51704 -3.63948,7.2724 -8.08775,15.01191 -4.44826,7.73951 -7.71076,14.40162 -7.25,14.80469 0.46077,0.40308 8.82525,5.33851 18.58775,10.96762 9.7625,5.62911 17.74977,10.76131 17.7495,11.40488 -2.8e-4,0.64358 -0.90736,3.55609 -2.01573,6.47225 -1.10837,2.91616 -2.35148,7.64116 -2.76247,10.5 l -0.74725,5.19789 -18.23702,0.27256 -18.23703,0.27256 0,-16.45166 z m 35.64481,6.15654 c 1.15573,-4.5375 2.3889,-9.15 2.74037,-10.25 0.55614,-1.74058 -1.76115,-3.36198 -17.86485,-12.5 -12.60613,-7.15333 -18.50651,-11.04239 -18.51211,-12.2017 -0.005,-0.93593 3.63134,-7.91093 8.0797,-15.5 l 8.08791,-13.7983 -4.70895,-4.272 c -5.51002,-4.99872 -5.06972,-5.17307 -13.42441,5.31577 -8.36672,10.50394 -20.46597,32.36606 -18.8222,34.00983 0.271,0.271 4.94481,1.29161 10.38623,2.268 l 9.8935,1.77527 0.27418,16.70156 0.27418,16.70157 15.74756,0 15.74755,0 2.10134,-8.25 z m 8.97059,9.43672 c -0.73138,-1.18341 2.26914,-13.64655 3.78429,-15.71864 1.4213,-1.94376 4.68017,-1.59365 8.03995,0.86374 1.81111,1.32468 1.85359,1.80798 0.64099,7.29343 -0.71426,3.23111 -1.46047,6.43725 -1.65826,7.12475 -0.40267,1.3997 -9.9728,1.78643 -10.80697,0.43672 z m 8.42849,-2.93672 c 0.0241,-0.9625 0.62485,-3.37565 1.33491,-5.36255 1.15668,-3.23663 1.10149,-3.73092 -0.53032,-4.75 -2.99044,-1.86756 -3.51107,-1.40068 -5.2167,4.67815 -2.09191,7.45551 -2.14354,7.1844 1.36822,7.1844 2.17376,0 3.01209,-0.48198 3.04389,-1.75 z m 87.25328,-1 c -0.60379,-2.6125 -1.41097,-5.72745 -1.79374,-6.92211 -0.57326,-1.78916 0.046,-2.66309 3.51234,-4.95703 4.0876,-2.70504 4.24837,-2.73011 5.60553,-0.87408 1.63701,2.23874 3.17412,7.2857 4.03642,13.25322 l 0.61413,4.25 -5.43845,0 -5.43844,0 -1.09779,-4.75 z m 8.35236,-1.79032 c -0.65203,-4.75705 -2.1811,-8.45968 -3.49358,-8.45968 -0.42553,0 -1.52514,0.5625 -2.44357,1.25 -1.53878,1.15186 -1.54788,1.66219 -0.11591,6.5 1.35031,4.56195 1.88957,5.25 4.11467,5.25 2.46299,0 2.53696,-0.17326 1.93839,-4.54032 z m -90.96306,-17.07692 -3.81352,-2.49229 1.99464,-3.19523 c 1.09705,-1.75738 4.09457,-4.99363 6.66116,-7.19167 l 4.66653,-3.99643 2.39739,2.99643 c 3.52707,4.40838 3.07026,6.84102 -2.20193,11.72583 -2.5351,2.34883 -4.8976,4.35498 -5.25,4.45812 -0.35241,0.10314 -2.35683,-0.93401 -4.45427,-2.30476 z m 8.54732,-5.13276 c 3.15883,-3.25456 3.46834,-3.9812 2.34271,-5.5 -1.74536,-2.35499 -1.97245,-2.29051 -6.57362,1.86636 -4.09656,3.701 -4.9676,5.8277 -2.75288,6.72136 2.48941,1.0045 3.40474,0.5998 6.98379,-3.08772 z m 62.84922,3.03849 c -2.79565,-2.56711 -5.08301,-5.23147 -5.08301,-5.92082 0,-2.01238 4.0862,-8.36767 5.38008,-8.36767 1.8257,0 12.61992,11.34057 12.61992,13.25867 0,0.97135 -1.6798,2.55765 -3.91699,3.69898 l -3.91699,1.9983 -5.08301,-4.66746 z m 8.71551,-0.6069 c 1.00673,-0.78073 0.342,-1.98164 -2.95821,-5.3443 -2.3412,-2.38551 -4.5972,-4.33729 -5.01333,-4.33729 -0.41614,0 -1.26501,0.94994 -1.88637,2.11098 -0.97967,1.83051 -0.6306,2.62218 2.62732,5.95858 3.60617,3.69306 4.33703,3.856 7.23059,1.61203 z m 65.87461,1.06841 c -0.75513,-1.2375 -4.4408,-7.65 -8.19037,-14.25 -3.74957,-6.6 -6.90534,-12.12573 -7.01281,-12.2794 -0.17753,-0.25383 -24.04057,13.42864 -32.46995,18.61745 -1.925,1.18496 -4.07752,2.15616 -4.78339,2.15821 -0.70586,0.002 -5.08534,-3.86731 -9.73217,-8.5986 l -8.4488,-8.60234 2.39634,-4.14766 c 1.31799,-2.28122 5.10075,-8.87266 8.40614,-14.64766 3.30539,-5.775 6.66191,-10.6345 7.45893,-10.79889 0.79702,-0.16438 3.86874,1.1388 6.82604,2.89596 2.9573,1.75717 9.03028,5.30799 13.49552,7.89071 l 8.11861,4.69586 7.21417,-8.39756 c 3.96779,-4.61866 7.73941,-8.23246 8.38139,-8.03066 2.08551,0.65556 11.25047,13.62528 15.93048,22.54389 5.42008,10.32896 11.4114,26.96094 10.13142,28.12494 -1.07274,0.97553 -13.24298,5.07575 -15.0658,5.07575 -0.70553,0 -1.90061,-1.0125 -2.65575,-2.25 z m 9.64757,-2.3436 c 2.57233,-0.87649 4.91674,-1.98157 5.20979,-2.45573 0.72092,-1.16647 -5.89199,-18.1295 -9.72683,-24.95067 -4.49259,-7.99113 -12.72643,-20 -13.71292,-20 -0.46657,0 -3.71536,3.36401 -7.21953,7.47558 -3.50416,4.11157 -7.08515,7.48657 -7.95775,7.5 -0.87259,0.0134 -7.60222,-3.41169 -14.95473,-7.61139 -7.35251,-4.19969 -13.52596,-7.23718 -13.71878,-6.74999 -0.19282,0.48719 -3.59447,6.48274 -7.55923,13.32345 l -7.20864,12.43765 7.36044,7.36044 7.36044,7.36045 18.38593,-10.5481 c 10.11226,-5.80145 18.79229,-10.54809 19.28894,-10.54809 0.49666,0 4.65235,6.525 9.23486,14.5 4.58252,7.975 8.82891,14.5 9.43644,14.5 0.60753,0 3.20923,-0.71712 5.78157,-1.5936 z m -177.3207,-8.40833 c -4.675,-2.71941 -11.0875,-6.41033 -14.25,-8.20205 -3.1625,-1.79172 -5.75,-3.86117 -5.75,-4.59878 0,-1.39372 1.99367,-5.08866 10.16333,-18.83612 2.66017,-4.47638 4.83667,-8.56856 4.83667,-9.09373 0,-0.52518 -3.6,-3.99284 -8,-7.70593 -4.4,-3.71309 -8,-7.19878 -8,-7.74598 0,-2.44667 15.78361,-13.1923 27.67738,-18.84302 9.71793,-4.61699 20.8358,-8.37325 22.68407,-7.66401 1.30714,0.5016 5.63855,11.95145 5.63855,14.90521 0,0.97856 -5.46603,4.68181 -14.46915,9.80289 -13.55239,7.70876 -14.39914,8.36496 -13.36415,10.35683 0.60774,1.16964 5.31886,9.37014 10.46914,18.22334 5.15029,8.8532 9.36416,16.75438 9.36416,17.55817 0,0.8038 -1.6875,2.73815 -3.75,4.29855 -2.0625,1.56041 -5.55,5.01535 -7.75,7.67764 -2.2,2.66229 -4.675,4.83397 -5.5,4.82595 -0.825,-0.008 -5.325,-2.23956 -10,-4.95896 z m 17.27607,-5.46744 6.77607,-7.22143 -10.57597,-18.30337 c -5.81678,-10.06685 -10.37605,-18.79892 -10.13169,-19.4046 0.24435,-0.60568 6.93573,-4.85558 14.86972,-9.44422 l 14.42544,-8.34299 -2.06937,-5.90701 c -1.1814,-3.37231 -2.66404,-5.90701 -3.45523,-5.90701 -2.42338,0 -20.94605,7.80515 -27.14624,11.43898 -7.20312,4.22163 -16.9688,11.33898 -16.9688,12.36707 0,0.40864 3.375,3.61616 7.5,7.12783 4.125,3.51167 7.5,7.06742 7.5,7.90168 0,0.83425 -3.39436,7.35817 -7.54302,14.49761 -4.14866,7.13943 -7.18616,13.31769 -6.75,13.72946 0.43616,0.41177 5.29302,3.32677 10.79302,6.47776 5.5,3.151 10.88763,6.34345 11.97251,7.09435 1.08488,0.75089 2.43488,1.30948 3,1.2413 0.56512,-0.0682 4.07672,-3.37361 7.80356,-7.34541 z m 24.43954,2.56508 c -3.04749,-5.15899 -2.36202,-6.5926 4.03439,-8.43765 3.1625,-0.91223 7.1,-1.77098 8.75,-1.90833 2.94854,-0.24545 3.00517,-0.16022 3.30115,4.96837 0.28852,4.99913 0.1836,5.24391 -2.5,5.83268 -1.54063,0.33802 -4.1058,1.02737 -5.70037,1.5319 -4.62883,1.46457 -6.05921,1.10413 -7.88517,-1.98697 z m 11.40105,-1.76905 c 2.37547,-0.47509 2.88334,-1.08307 2.88334,-3.45166 0,-1.58125 -0.30798,-2.875 -0.6844,-2.875 -2.62441,0 -12.3156,3.48738 -12.3156,4.43177 0,2.13241 2.44418,3.67356 4.8632,3.06643 1.30357,-0.32718 3.66763,-0.85437 5.25346,-1.17154 z m 20.88334,3.68186 c -1.375,-0.45847 -3.76052,-1.11229 -5.30115,-1.45294 -2.6831,-0.59326 -2.78846,-0.83928 -2.5,-5.83748 l 0.30115,-5.2181 3.93992,0.31697 c 5.56061,0.44737 14.00866,3.54387 14.31953,5.24861 0.14387,0.78893 -0.63654,2.89692 -1.73424,4.68442 -2.0782,3.38415 -4.11824,3.89467 -9.02521,2.25852 z m 6.96482,-3.94278 c 1.46658,-2.74034 1.52318,-2.67875 -3.71482,-4.04271 -2.6125,-0.68028 -5.5375,-1.44409 -6.5,-1.69734 -1.37702,-0.36233 -1.75,0.17212 -1.75,2.50758 0,2.58601 0.48268,3.09625 3.75,3.96403 5.67434,1.50709 7.08391,1.38156 8.21482,-0.73156 z m -55.44846,-26.0375 c -4.76812,-8.23446 -8.40106,-15.40578 -8.0732,-15.93627 0.32785,-0.53048 6.09977,-4.13562 12.82647,-8.0114 6.7267,-3.87579 12.84236,-7.44912 13.59035,-7.94072 1.10769,-0.72802 0.76007,-2.53977 -1.87397,-9.76684 -1.77867,-4.88016 -3.29066,-9.74679 -3.35998,-10.81475 -0.15712,-2.4207 3.10352,-3.21901 16.87397,-4.13129 14.26828,-0.94525 39.05846,2.2588 40.1847,5.19375 0.42686,1.11238 -0.95924,9.84911 -2.32096,14.62928 -0.4486,1.57476 -2.13177,1.75 -16.80868,1.75 -12.33531,0 -16.57864,0.32349 -17.4118,1.32738 -0.70416,0.84846 -1.19934,8.87155 -1.37245,22.23687 l -0.27081,20.90949 -5.19789,0.7474 c -2.85884,0.41107 -7.58384,1.65426 -10.5,2.76263 -2.91616,1.10837 -5.82284,2.01544 -6.45928,2.01572 -0.63644,2.8e-4 -5.05836,-6.73678 -9.82647,-14.97125 z m 22.23364,8.61656 8.25,-2.10133 0,-21.77174 0,-21.77173 17.36989,0 17.3699,0 1.20503,-6.12508 c 0.66277,-3.36878 0.83005,-6.50006 0.37173,-6.95838 -2.21298,-2.21298 -20.11245,-4.13202 -34.40376,-3.6885 -8.02296,0.24898 -15.06952,0.75079 -15.65901,1.11511 -0.711,0.43942 0.0906,3.91471 2.38125,10.32366 1.89919,5.31368 3.25389,10.18028 3.01045,10.81467 -0.24344,0.63438 -6.52032,4.63376 -13.94863,8.8875 l -13.50601,7.73408 7.65458,13.47767 c 6.61934,11.65488 7.92507,13.38893 9.65458,12.82154 1.1,-0.36087 5.7125,-1.60173 10.25,-2.75747 z m 34.40975,4.2009 c -2.93714,-1.03847 -7.66214,-2.22192 -10.5,-2.62989 l -5.15975,-0.74177 -0.27246,-18.21274 -0.27247,-18.21274 16.77247,-0.27428 16.77246,-0.27428 2.01992,-10.49015 c 1.51141,-7.84929 2.43039,-10.56919 3.65045,-10.80415 2.23522,-0.43046 18.79648,7.4547 27.32963,13.01222 8.89896,5.79576 20.5,15.4505 20.5,17.06072 0,0.67906 -2.01794,3.48166 -4.48431,6.22801 -2.46638,2.74634 -4.49138,5.33085 -4.5,5.74335 -0.0417,1.9929 -4.68095,0.0673 -17.48606,-7.25808 -7.68371,-4.39556 -14.20871,-7.97557 -14.5,-7.95558 -0.2913,0.02 -5.25463,8.34132 -11.02963,18.49184 -6.67754,11.73688 -11.04607,18.41001 -12,18.33057 -0.825,-0.0687 -3.90311,-0.97458 -6.84025,-2.01305 z m 15.52242,-15.87856 c 4.66676,-7.95693 9.35655,-16.15464 10.42175,-18.21714 1.10765,-2.14469 2.67717,-3.7489 3.6664,-3.74743 0.95133,0.001 4.42968,1.631 7.72968,3.62131 3.3,1.99031 9.56483,5.64189 13.92183,8.11462 l 7.92184,4.49587 4.27945,-4.86719 4.27945,-4.86718 -4.70128,-4.22708 c -6.96618,-6.26352 -20.39761,-15.02605 -29.75073,-19.40907 -4.5349,-2.12512 -8.74146,-3.86385 -9.34791,-3.86385 -0.60646,0 -1.14057,1.2375 -1.18692,2.75 -0.0464,1.5125 -0.83386,6.30549 -1.75,10.6511 l -1.66573,7.9011 -16.25,-0.21293 -16.25,-0.21293 0,16.01652 0,16.01651 3.75,0.62721 c 2.0625,0.34496 6.225,1.45285 9.25,2.46198 3.025,1.00912 5.88186,1.74498 6.34857,1.63525 0.46671,-0.10974 4.66683,-6.70974 9.3336,-14.66667 z"
       id="path2987"
       inkscape:connector-curvature="0" />
    <path
       style="fill:#ff0000;fill-opacity:1;stroke:none"
       d="m 354.39526,666.21588 c -18.15486,-2.6577 -41.09935,-12.12061 -56.91632,-23.47378 -38.25716,-27.46039 -59.67087,-70.44308 -57.63802,-115.69394 1.5657,-34.85201 14.96499,-65.13614 39.81429,-89.98544 21.95931,-21.95931 47.60985,-34.52176 78.96458,-38.67321 9.61986,-1.27369 33.61081,-0.49858 42.3943,1.3697 41.8651,8.90486 76.46497,35.43372 95.02796,72.86106 20.61408,41.56282 18.47116,90.39415 -5.70434,129.98648 -20.41827,33.43909 -57.17877,57.91356 -95.07551,63.29954 -8.16404,1.1603 -33.73258,1.35399 -40.86694,0.30959 l 0,0 z m 39.31438,-7.00625 c 2.07184,-0.29494 4.13677,-0.90606 4.58874,-1.35802 0.61949,-0.6195 0.0899,-3.32746 -2.15146,-11.00161 -2.36321,-8.09124 -2.79175,-10.36105 -2.08874,-11.06309 0.48647,-0.48578 5.38448,-3.51283 10.88448,-6.72677 11.60894,-6.78372 14.64286,-8.95622 14.64286,-10.48528 0,-2.6229 -15.03274,-29.22227 -16.92558,-29.94862 -0.56998,-0.21872 -3.82525,0.45347 -7.23394,1.49377 -5.35739,1.63501 -15.09869,3.96563 -16.73334,4.00348 -0.29464,0.007 -0.53571,9.81597 -0.53571,21.79812 l 0,21.78571 -5.89286,0.002 c -3.24107,10e-4 -10.95653,0.2124 -17.14546,0.46908 l -11.25262,0.4667 -0.67874,2.56664 c -0.89285,3.37627 -2.25727,14.50636 -1.83061,14.93301 0.1834,0.18341 3.79743,1.05956 8.03117,1.947 6.68053,1.40032 9.86854,1.61618 24.12626,1.63365 9.03572,0.0111 18.12372,-0.2212 20.19555,-0.51615 l 0,2.4e-4 z m 28.37588,-7.7032 c 5.5,-2.21292 11.76786,-4.99507 13.92857,-6.18256 6.85895,-3.76958 17.41327,-10.96557 19.92696,-13.5863 2.34271,-2.44246 2.38687,-2.5915 1.27205,-4.29293 -0.63521,-0.96944 -3.81662,-4.08102 -7.06982,-6.91462 -3.25319,-2.83359 -6.34657,-5.55319 -6.87416,-6.04354 -0.79236,-0.73644 0.0302,-2.61542 4.72799,-10.79964 3.12798,-5.44945 6.68523,-11.8913 7.90498,-14.31524 l 2.21774,-4.40715 -3.73144,-2.46167 c -9.34376,-6.16419 -25.56538,-15.50974 -26.92114,-15.50974 -1.06422,0 -17.88173,16.43549 -17.88173,17.47553 0,0.46741 4.61756,9.00895 10.26124,18.98122 10.20915,18.03934 10.25356,18.13736 8.75,19.30882 -0.83118,0.64758 -6.31137,3.98583 -12.17821,7.41832 -13.8624,8.11043 -13.92605,8.15456 -14.38161,9.96963 -0.38191,1.52168 3.45288,13.415 4.93352,15.3009 1.06658,1.35853 3.55793,0.70895 15.11506,-3.94103 z m -87.3822,-4.15625 c 0.65407,-2.75 1.72064,-7.49107 2.37015,-10.53572 l 1.18092,-5.53571 15.91357,0 15.91358,0 0.46302,-8.03571 c 0.25468,-4.41965 0.4645,-12.754 0.46628,-18.52079 l 0.004,-10.48507 -4.10714,-0.77109 c -2.25893,-0.42409 -7.48214,-1.8844 -11.60714,-3.24514 l -7.5,-2.47406 -1.42857,1.7586 c -0.78572,0.96724 -5.28572,8.36539 -10,16.44034 -4.71429,8.07494 -9.375,15.63885 -10.35715,16.80868 l -1.78571,2.12697 -14.55741,-8.38399 -14.55742,-8.38398 -2.45123,2.83262 c -4.73908,5.47606 -8.07712,10.11666 -8.07712,11.2285 0,1.48978 10.29977,11.00323 16.69605,15.42139 9.81749,6.78135 26.97801,15.17838 30.44681,14.89833 1.59256,-0.12858 1.91434,-0.68499 2.97494,-5.14417 z m 132.07659,-25.89757 c 6.76407,-4.5847 18.70511,-21.94997 25.55598,-37.16478 2.9995,-6.66149 3.6161,-9.66456 2.16809,-10.55947 -0.4377,-0.27052 -5.17877,-1.37336 -10.53572,-2.45076 l -9.73988,-1.95891 -0.35714,-16.3414 -0.35715,-16.3414 -18.23472,-0.1903 -18.23472,-0.19032 -2.67332,10.9046 c -1.47032,5.99752 -2.66648,11.41728 -2.65813,12.04389 0.0234,1.75784 1.3989,2.69854 18.22946,12.46729 8.64286,5.01646 16.23173,9.47145 16.86415,9.89999 1.00879,0.68355 0.58668,1.74307 -3.4407,8.63628 -5.26461,9.01087 -10.92345,19.95479 -10.92345,21.12547 0,1.6112 3.1779,5.18504 7.32588,8.2386 2.34292,1.72476 4.46556,3.13381 4.71699,3.13122 0.25142,-0.003 1.2839,-0.56508 2.29438,-1.25 z M 283.1287,611.45732 c 2.21589,-2.25893 5.49384,-5.81733 7.28434,-7.90756 l 3.25545,-3.80042 9.56566,5.422 c 5.26111,2.98211 11.56745,6.45998 14.01409,7.72861 l 4.44844,2.30661 1.76231,-1.78534 c 1.67973,-1.70166 11.45652,-17.96905 15.14398,-25.19774 l 1.74072,-3.41242 -3.74148,-4.08758 c -7.8985,-8.62917 -13.08482,-13.73044 -13.95932,-13.73044 -0.50023,0 -6.61599,3.25076 -13.59058,7.22392 -14.88208,8.47774 -23.74218,13.0245 -24.29774,12.46893 -0.21858,-0.21858 -3.98896,-6.42639 -8.37862,-13.79513 -6.59295,-11.06732 -8.28143,-13.42572 -9.70724,-13.55869 -0.94933,-0.0885 -4.77962,0.89982 -8.51176,2.19634 l -6.78571,2.35731 0.17714,2.44652 c 0.47433,6.5508 9.5108,26.6472 17.48042,38.87508 3.38857,5.19913 8.03201,10.35714 9.3239,10.35714 0.41091,0 2.56011,-1.84821 4.776,-4.10714 l 0,0 z m 105.02825,-26.40958 c 2.55357,-0.60236 5.86507,-1.71193 7.35889,-2.46572 2.25565,-1.13821 2.63657,-1.63724 2.24725,-2.94404 -0.94523,-3.17283 -3.97497,-7.64474 -5.17196,-7.63385 -0.67094,0.006 -3.95204,0.76141 -7.29132,1.67846 l -6.07143,1.66737 -0.48277,3.14297 c -0.26552,1.72863 -0.5066,4.32811 -0.53572,5.77663 l -0.0529,2.63366 2.67858,-0.38015 c 1.47321,-0.20908 4.76785,-0.87298 7.32142,-1.47533 l -1e-5,0 z m -17.14286,-4.35446 0,-5.58547 -7.10908,-1.67823 -7.10908,-1.67823 -1.42877,1.72799 c -2.13306,2.57979 -3.14114,5.41044 -2.63912,7.41062 0.36975,1.47318 1.28072,2.0259 5.25948,3.19111 6.25992,1.83327 7.15417,2.01602 10.348,2.11482 l 2.67857,0.0829 0,-5.58547 z m -73.67224,-7.53073 c 7.75975,-4.02744 19.34071,-11.21975 20.32219,-12.62101 0.89643,-1.27983 0.67977,-2.77878 -1.9094,-13.21036 l -2.92056,-11.76672 -21.9685,0 -21.96849,0 -0.1915,-16.96156 -0.1915,-16.96157 -2.73548,-0.89578 c -1.50451,-0.49269 -5.43223,-1.10307 -8.72825,-1.35643 l -5.99277,-0.46063 -0.74686,1.96439 c -2.13482,5.61499 -3.15718,16.05156 -3.18651,32.52873 -0.0323,18.14265 0.61528,22.85714 3.13959,22.85714 0.73563,0 5.7121,-1.41066 11.05882,-3.13479 l 9.72131,-3.13478 2.91972,5.09907 c 6.95437,12.14526 10.74169,18.34616 12.43274,20.35586 l 1.8101,2.15118 2.6538,-1.23303 c 1.45958,-0.67817 4.37628,-2.12704 6.48155,-3.21971 l 0,0 z m 49.2419,1.15191 c 0.75967,-1.08035 1.95227,-3.08136 2.65022,-4.44668 l 1.269,-2.48239 -4.20872,-3.84911 c -6.69376,-6.12181 -6.80653,-6.17116 -10.41434,-4.55715 -4.13195,1.8485 -5.9237,3.89438 -4.97048,5.67548 1.30839,2.44476 11.5074,11.62414 12.91532,11.62414 0.75778,0 1.99933,-0.88393 2.759,-1.96429 l 0,0 z m 65.94806,-2.55266 c 2.50454,-2.48433 5.01043,-5.37834 5.56865,-6.43116 0.936,-1.7653 0.88043,-2.05831 -0.71428,-3.76685 -0.95108,-1.01895 -2.90288,-2.45457 -4.33734,-3.19027 l -2.60813,-1.33763 -5.07045,5.33787 c -2.78875,2.93583 -5.07045,5.67429 -5.07045,6.08547 0,1.03831 2.0891,5.06173 3.41113,6.56952 1.9675,2.24396 4.03831,1.47701 8.82087,-3.26695 z m 85.58993,-6.17849 c 2.28411,-1.22242 4.15125,-12.26038 4.77582,-28.23313 0.40491,-10.35514 -0.44077,-24.77069 -1.63587,-27.88506 -0.58166,-1.51577 -1.647,-1.35259 -12.22817,1.87303 -5.26201,1.6041 -9.78152,2.70689 -10.04336,2.45064 -0.26184,-0.25625 -4.02013,-6.30977 -8.35177,-13.45226 -6.86743,-11.32382 -8.08878,-12.96284 -9.54017,-12.80276 -1.75278,0.19334 -18.47181,9.29275 -24.9714,13.59081 -2.09871,1.38783 -4.00199,3.00846 -4.22952,3.60138 -0.22753,0.59293 0.62474,5.44379 1.89391,10.7797 1.26918,5.33592 2.45538,10.42488 2.63599,11.3088 l 0.32839,1.60715 21.77211,0 21.77211,0 0.0845,15.17857 c 0.0465,8.34821 0.28756,16.14286 0.53572,17.32143 0.42298,2.00883 0.83094,2.24066 6.52263,3.7067 6.88015,1.77217 8.8269,1.94625 10.67908,0.955 l 0,0 z M 330.19748,554.1881 c 1.48384,-0.757 3.12253,-1.88801 3.64152,-2.51336 1.25914,-1.51717 0.59429,-7.84793 -1.26577,-12.0529 -1.24043,-2.8042 -1.74717,-3.24651 -4.16429,-3.63482 -1.51359,-0.24316 -3.71628,-0.16611 -4.89485,0.17124 -2.06822,0.59198 -2.137,0.74639 -1.97493,4.43319 0.28335,6.44571 3.26425,14.97301 5.23414,14.97301 0.39945,0 1.94033,-0.61936 3.42418,-1.37636 z m 94.28088,0.0549 c 1.5237,-1.52367 4.39288,-11.48864 4.39288,-15.25692 0,-3.03797 -1.13497,-3.48462 -7.10964,-2.79792 l -3.89534,0.4477 -1.77045,6.67822 c -2.02513,7.63885 -1.89093,8.15301 2.7715,10.61857 3.72669,1.97072 3.93897,1.98246 5.61105,0.31038 l 0,-3e-5 z m -115.08616,-26.27107 4.30196,-0.44964 0.4327,-3.65348 c 0.23798,-2.00941 1.4498,-7.00702 2.69293,-11.10578 l 2.26024,-7.4523 -2.06869,-1.67266 c -1.13777,-0.91996 -9.21965,-5.92537 -17.95972,-11.12314 -8.85989,-5.26903 -15.89185,-9.90152 -15.89286,-10.46987 -10e-4,-0.56065 3.39133,-7.21392 7.5385,-14.78504 8.7431,-15.96151 8.71427,-14.48167 0.41628,-21.36933 -5.02471,-4.17072 -6.05017,-4.51004 -8.48204,-2.8067 -4.76413,3.33693 -18.27465,22.84161 -23.9156,34.52614 -3.86895,8.01407 -4.88698,12.15149 -3.31159,13.45886 0.53181,0.44134 4.66335,1.49344 9.18121,2.33801 4.51786,0.84456 8.9375,1.71033 9.82143,1.92393 l 1.60714,0.38838 0,16.35113 0,16.35114 14.53808,0 c 7.99594,0 16.47396,-0.20235 18.84003,-0.44965 l 0,0 z m 22.13011,-0.12217 c 1.05905,-0.67303 3.03819,-8.77984 3.05265,-12.50406 0.01,-2.5412 -0.2006,-2.81214 -3.22309,-4.14914 -4.13734,-1.83014 -5.85348,-1.26424 -7.50385,2.47442 -1.603,3.63137 -3.21191,12.02103 -2.60741,13.59634 0.34348,0.89506 1.45043,1.1518 4.92964,1.14332 2.46769,-0.006 4.87611,-0.25841 5.35206,-0.56088 l 0,0 z m 97.2881,-2.98183 c -1.54142,-9.75097 -3.95283,-15.73207 -6.34272,-15.73207 -1.26753,0 -6.63362,3.55768 -7.51354,4.98142 -0.26855,0.43453 0.24476,3.83075 1.14071,7.54718 l 1.62898,6.75712 5.82417,0 5.82416,0 -0.56176,-3.55365 0,0 z m -11.18917,-21.28314 c 2.13472,-1.8767 1.42449,-3.54664 -3.88615,-9.13736 -6.35743,-6.69272 -7.35751,-7.2902 -9.285,-5.54707 -1.53996,1.39267 -4.15028,6.06327 -4.15028,7.42603 0,0.45038 2.29058,3.18116 5.09018,6.06839 l 5.09017,5.24953 2.94554,-1.4803 c 1.62004,-0.81417 3.50804,-1.97482 4.19554,-2.57922 l 0,0 z m -74.25638,-0.1511 c 6.29178,-5.75034 6.85048,-8.84891 2.49358,-13.8297 l -2.34435,-2.68004 -5.49265,5.34388 c -5.33579,5.19125 -8.31353,9.37025 -7.35871,10.32727 1.29218,1.29516 6.57088,4.3119 7.61523,4.35206 0.65584,0.0252 2.94494,-1.55585 5.0869,-3.51347 l 0,0 z m 147.26317,-0.0391 c 3.72563,-1.19343 7.06661,-2.69294 7.42438,-3.33227 1.13167,-2.02217 -2.43428,-12.79233 -8.36435,-25.26265 -4.91833,-10.34275 -15.70457,-25.66377 -18.0677,-25.66377 -0.64487,0 -6.3084,5.78036 -12.91689,13.18334 l -2.52288,2.8262 -11.39129,-6.56228 c -12.27714,-7.07261 -16.31209,-9.01521 -17.36884,-8.36211 -0.37048,0.22897 -1.59937,1.76598 -2.73087,3.41558 -2.79394,4.07325 -15.10407,25.43296 -15.10407,26.20757 0,0.81042 12.56248,13.44944 15.89268,15.9895 3.06489,2.33771 1.25922,3.04805 20.04659,-7.88623 6.99873,-4.07327 14.25958,-8.18361 16.13522,-9.13407 l 3.41025,-1.7281 7.70985,13.54302 c 6.92933,12.17197 8.81833,14.84321 10.54687,14.91443 0.28995,0.0119 3.57542,-0.95472 7.30105,-2.14814 l 0,-2e-5 z m -157.97627,-14.90015 7.7091,-7.85699 -1.89615,-3.7865 c -1.04288,-2.08258 -5.615,-10.32766 -10.16026,-18.32242 -6.51629,-11.46166 -8.11012,-14.78514 -7.53604,-15.71429 0.40044,-0.64807 6.07815,-4.39262 12.61713,-8.32119 6.53897,-3.92858 12.53839,-7.79545 13.33202,-8.59306 1.37909,-1.38601 1.3956,-1.63208 0.37288,-5.55854 -1.68475,-6.46818 -4.01748,-10.80971 -5.95564,-11.08424 -6.57746,-0.93164 -38.14065,14.82015 -47.6306,23.77033 -2.57023,2.42404 -2.59174,2.48994 -1.34086,4.10739 0.6992,0.90411 4.26237,4.33152 7.91816,7.61646 3.65578,3.28495 6.64688,6.43848 6.64688,7.00783 0,0.56936 -3.21429,6.60532 -7.14286,13.41325 -3.92857,6.80793 -7.14286,13.04076 -7.14286,13.85072 0,1.73758 2.58945,3.58741 14.63396,10.45408 11.63175,6.63136 15.34714,8.29848 16.73955,7.51115 0.61957,-0.35033 4.59559,-4.17261 8.83559,-8.49396 l 0,-2e-5 z m 32.69698,2.35428 c 5.61138,-1.6551 5.90036,-2.02356 5.45334,-6.95336 -0.20998,-2.31574 -0.73189,-4.56052 -1.15979,-4.98842 -1.02728,-1.02728 -14.0393,1.87601 -15.88202,3.54365 -2.04923,1.85452 -1.53264,4.94771 1.38489,8.29243 1.37673,1.57832 5.08075,1.61668 10.20358,0.1057 z m 30.4627,-1.6399 c 2.13737,-3.18014 2.087,-5.45565 -0.15325,-6.92352 -2.18171,-1.4295 -11.20665,-3.86368 -14.32495,-3.86368 -2.25353,0 -2.28258,0.0451 -2.76236,4.28575 -0.27757,2.45339 -0.18641,4.82017 0.21321,5.53571 0.95712,1.71377 7.54285,3.66885 11.84877,3.51751 3.1764,-0.11165 3.71792,-0.37848 5.17858,-2.55174 l 0,-3e-5 z m -40.97263,-14.73998 c 3.08573,-0.98542 7.8268,-2.17174 10.53571,-2.63627 l 4.92529,-0.8446 0.0464,-3.6046 c 0.17971,-13.96248 1.25184,-39.06951 1.68693,-39.50461 0.75024,-0.75024 11.25134,-1.46496 22.59444,-1.5378 6.58286,-0.0423 10.04772,-0.34818 10.81764,-0.95506 0.9959,-0.78499 3.43186,-11.38793 3.42747,-14.91861 -0.004,-3.51166 -14.9186,-5.993 -35.35859,-5.88275 -16.81285,0.0907 -21.98092,0.91614 -22.35969,3.57133 -0.11925,0.83599 1.11582,5.61621 2.74462,10.62273 2.46973,7.59132 2.80223,9.25666 2.00255,10.02962 -0.52744,0.50977 -5.94109,3.8446 -12.03037,7.41072 -6.08929,3.56612 -11.84872,7.08954 -12.79873,7.82983 l -1.7273,1.34598 3.24928,6.34788 c 6.36042,12.42586 14.15577,24.54427 15.77738,24.52701 0.47108,-0.005 3.3812,-0.81537 6.46694,-1.8008 l 0,0 z m 49.27831,-0.51151 c 0.96094,-1.27678 5.82172,-9.23214 10.80175,-17.67857 4.98003,-8.44643 9.28128,-15.59075 9.55833,-15.87628 0.27706,-0.28553 5.69528,2.31676 12.0405,5.78285 11.97001,6.53865 18.46576,9.62213 19.47111,9.24278 1.02424,-0.38648 10.02528,-12.09932 10.02528,-13.04565 0,-2.16564 -15.51738,-14.48266 -25.71428,-20.41088 -6.38205,-3.71035 -19.87825,-9.96491 -21.51969,-9.97288 -0.63939,-0.003 -1.54087,0.45021 -2.00328,1.00738 -0.88404,1.0652 -3.15815,9.91174 -3.97827,15.47594 -0.26547,1.80107 -0.69522,3.61747 -0.955,4.03644 -0.30436,0.49086 -6.23038,0.85041 -16.66346,1.01103 -8.90512,0.1371 -16.41172,0.47017 -16.68135,0.74015 -0.26963,0.26998 -0.25501,8.67062 0.0325,18.66807 l 0.52272,18.1772 4.01578,0.49189 c 2.20868,0.27053 6.90863,1.39572 10.44435,2.50041 3.53571,1.10469 6.97471,2.04521 7.64222,2.09004 0.66751,0.0449 1.99987,-0.96313 2.96081,-2.23992 l -2e-5,0 z"
       id="path3012"
       inkscape:connector-curvature="0" />
  </g>
</svg>
