<?xml version="1.0" encoding="UTF-8" standalone="no"?>
<!-- Created with Inkscape (http://www.inkscape.org/) -->

<svg
   xmlns:dc="http://purl.org/dc/elements/1.1/"
   xmlns:cc="http://creativecommons.org/ns#"
   xmlns:rdf="http://www.w3.org/1999/02/22-rdf-syntax-ns#"
   xmlns:svg="http://www.w3.org/2000/svg"
   xmlns="http://www.w3.org/2000/svg"
   xmlns:sodipodi="http://sodipodi.sourceforge.net/DTD/sodipodi-0.dtd"
   xmlns:inkscape="http://www.inkscape.org/namespaces/inkscape"
   width="744.09448819"
   height="1052.3622047"
   id="svg2"
   version="1.1"
   inkscape:version="0.48.2 r9819"
   sodipodi:docname="Новый документ 1">
  <defs
     id="defs4" />
  <sodipodi:namedview
     id="base"
     pagecolor="#ffffff"
     bordercolor="#666666"
     borderopacity="1.0"
     inkscape:pageopacity="0.0"
     inkscape:pageshadow="2"
     inkscape:zoom="1.4"
     inkscape:cx="522.46104"
     inkscape:cy="539.27092"
     inkscape:document-units="px"
     inkscape:current-layer="layer1"
     showgrid="false"
     inkscape:window-width="1280"
     inkscape:window-height="750"
     inkscape:window-x="-4"
     inkscape:window-y="-4"
     inkscape:window-maximized="1" />
  <metadata
     id="metadata7">
    <rdf:RDF>
      <cc:Work
         rdf:about="">
        <dc:format>image/svg+xml</dc:format>
        <dc:type
           rdf:resource="http://purl.org/dc/dcmitype/StillImage" />
        <dc:title></dc:title>
      </cc:Work>
    </rdf:RDF>
  </metadata>
  <g
     inkscape:label="Layer 1"
     inkscape:groupmode="layer"
     id="layer1">
    <path
       style="fill:#ff0000;fill-opacity:1;stroke:none"
       d="m 485.71428,535.21932 c 0,12.28333 -11.99845,-23.79699 -16.03919,-22.31368 -13.39039,4.91545 -32.07866,8.81639 -24.24455,40.57114 50.88341,206.25058 -20.2952,-3.97174 -34.00197,-3.97174 -11.77521,0 -25.5896,3.50576 -35.45071,2.23707 -50.85419,-6.54271 -69.69925,-30.36936 -24.09609,-22.96934 24.45519,3.96834 33.83252,-19.35617 33.83252,-22.12488 0,-3.91888 -28.73402,-34.63165 -29.02267,-37.88051 -3.32598,-37.43456 7.34546,5.07779 37.87695,9.49838 5.65635,0.81897 7.85572,-47.26357 15.26133,-45.79997 6.42426,1.26964 -1.18299,39.89638 7.31296,39.89638 7.20298,0 15.46219,-69.35086 30.4656,-73.71256 7.29298,-2.12016 -7.71037,68.21777 -0.0537,80.60075 9.83075,15.89913 41.7304,-24.8304 43.92801,-24.22903 18.85018,5.1583 -38.5039,40.49213 -22.58725,44.01024 130.2858,28.79754 56.594,18.39073 26.847,25.59006 -6.35902,1.539 -10.02822,7.29078 -10.02822,10.59769 z"
       id="path2985"
       inkscape:connector-curvature="0"
       sodipodi:nodetypes="sssssssssssssssss" />
  </g>
</svg>
