<?xml version="1.0" encoding="UTF-8" standalone="no"?>
<!-- Created with Inkscape (http://www.inkscape.org/) -->

<svg
   xmlns:dc="http://purl.org/dc/elements/1.1/"
   xmlns:cc="http://creativecommons.org/ns#"
   xmlns:rdf="http://www.w3.org/1999/02/22-rdf-syntax-ns#"
   xmlns:svg="http://www.w3.org/2000/svg"
   xmlns="http://www.w3.org/2000/svg"
   xmlns:sodipodi="http://sodipodi.sourceforge.net/DTD/sodipodi-0.dtd"
   xmlns:inkscape="http://www.inkscape.org/namespaces/inkscape"
   width="744.09448819"
   height="1052.3622047"
   id="svg3010"
   version="1.1"
   inkscape:version="0.48.4 r9939"
   sodipodi:docname="csoft_icon.svg">
  <defs
     id="defs3012" />
  <sodipodi:namedview
     id="base"
     pagecolor="#ffffff"
     bordercolor="#666666"
     borderopacity="1.0"
     inkscape:pageopacity="0.0"
     inkscape:pageshadow="2"
     inkscape:zoom="0.7"
     inkscape:cx="550.29305"
     inkscape:cy="445.24935"
     inkscape:document-units="px"
     inkscape:current-layer="layer1"
     showgrid="false"
     inkscape:window-width="1152"
     inkscape:window-height="815"
     inkscape:window-x="-4"
     inkscape:window-y="-4"
     inkscape:window-maximized="1" />
  <metadata
     id="metadata3015">
    <rdf:RDF>
      <cc:Work
         rdf:about="">
        <dc:format>image/svg+xml</dc:format>
        <dc:type
           rdf:resource="http://purl.org/dc/dcmitype/StillImage" />
        <dc:title></dc:title>
      </cc:Work>
    </rdf:RDF>
  </metadata>
  <g
     inkscape:label="Layer 1"
     inkscape:groupmode="layer"
     id="layer1">
    <g
       id="g3137">
      <g
         transform="matrix(-0.99999875,-0.00158371,0.00158371,-0.99999875,745.48782,1061.4064)"
         id="g3114">
        <rect
           style="fill:#ff0000;fill-opacity:1;stroke:none"
           id="rect3054"
           width="371.73615"
           height="371.73615"
           x="185.86807"
           y="345.2554" />
        <path
           style="fill:#000000;fill-opacity:1;stroke:none"
           d="m 372.49547,530.04308 -184.35076,-184.35283 184.60434,0 184.60434,0 0,184.35283 c 0,101.39407 -0.11411,184.35284 -0.25358,184.35284 -0.13946,0 -83.21142,-82.95877 -184.60434,-184.35284 z"
           id="path3112"
           inkscape:connector-curvature="0" />
        <g
           id="g3108"
           transform="translate(-419.31483,-231.63883)">
          <path
             inkscape:connector-curvature="0"
             id="path3829-4"
             d="m 780.96446,900.40902 c -3.72339,-0.40069 -15.12735,-2.83752 -20.20307,-4.31704 -43.03387,-12.54395 -78.6567,-46.79024 -92.3383,-88.77017 -13.4353,-41.22417 -5.95401,-87.36852 19.74904,-121.81139 22.9755,-30.78787 55.49034,-49.9047 92.79233,-54.55649 6.88724,-0.85888 27.42453,-0.84825 34.34518,0.0178 20.0322,2.50675 41.99974,10.99283 59.16315,22.85477 19.43833,13.43417 34.3977,30.59772 44.63996,51.2174 9.28961,18.70183 13.55284,35.96915 14.21593,57.57869 1.27192,41.45074 -17.65409,81.98719 -50.59136,108.3585 -20.68755,16.56355 -46.88872,27.36651 -70.9379,29.24831 -6.30652,0.49347 -26.80888,0.61292 -30.83496,0.17965 l 0,0 z m 30.5086,-8.23766 c 8.575,-0.55537 10.13132,-1.11101 9.58307,-3.42142 -0.17927,-0.75544 -1.43192,-4.87325 -2.78368,-9.15068 -1.35175,-4.27742 -2.45773,-8.52898 -2.45773,-9.4479 0,-1.54412 0.27756,-1.83004 3.6618,-3.77198 9.96788,-5.71976 19.36087,-11.49047 21.00593,-12.90528 l 1.83414,-1.5774 -2.36774,-4.73605 c -6.2966,-12.59468 -13.9784,-25.19163 -15.36222,-25.19163 -0.46596,0 -3.30768,0.79543 -6.31494,1.76761 -3.00726,0.97218 -7.9723,2.26176 -11.03343,2.86573 l -5.56568,1.09812 0,21.88301 0,21.88301 -9.76868,0 c -5.37278,0 -13.18656,0.14793 -17.36397,0.32875 l -7.59529,0.32875 -0.87015,3.83813 c -0.47858,2.11097 -0.9901,5.91114 -1.13672,8.44483 l -0.26657,4.60671 3.72721,0.8224 c 12.35013,2.72506 12.49246,2.74143 24.1828,2.78271 6.25032,0.0221 14.75165,-0.17928 18.89185,-0.44742 z m 28.58532,-6.18634 c 14.53582,-5.3666 24.65553,-10.80779 35.22375,-18.9392 5.88268,-4.52625 5.88422,-4.53228 2.14293,-8.42845 -1.70077,-1.77116 -5.33791,-5.09557 -8.08254,-7.38756 -4.51362,-3.76924 -4.93723,-4.26814 -4.43526,-5.22354 0.30524,-0.58095 3.21779,-5.71561 6.47233,-11.41034 6.21966,-10.88306 8.57981,-15.31105 8.57981,-16.09702 0,-0.53424 -4.75876,-3.64462 -14.35941,-9.38548 -10.10974,-6.04528 -14.80587,-8.46668 -15.80515,-8.14941 -0.4937,0.15675 -4.58034,3.98104 -9.08143,8.49843 l -8.18381,8.21342 9.79884,17.13037 c 5.38936,9.4217 10.06569,17.7746 10.39184,18.56201 0.93356,2.25379 2.1876,1.35712 -20.44374,14.61776 -3.02994,1.77538 -5.94674,3.81889 -6.48178,4.54116 -0.9098,1.22818 -0.92423,1.47346 -0.22274,3.78807 1.12418,3.70928 3.74303,10.60339 4.47021,11.7678 0.78972,1.26454 1.06404,1.20708 10.01615,-2.09802 l 0,0 z m -83.68072,-2.7755 c 0.38839,-1.31951 1.45262,-6.0706 2.36495,-10.55798 l 1.65879,-8.15886 1.50584,-0.30116 c 0.82819,-0.16564 7.96063,-0.30117 15.84985,-0.30117 l 14.34404,0 0.49258,-1.29557 c 0.2843,-0.74777 0.49258,-8.41715 0.49258,-18.13835 l 0,-16.84278 -2.14658,-0.3497 c -4.48433,-0.73055 -10.81451,-2.40358 -15.46823,-4.08816 l -4.82935,-1.74815 -0.87882,1.15458 c -0.8207,1.07822 -6.61824,10.73698 -14.94178,24.89315 -4.06275,6.90969 -6.41128,10.27995 -7.43801,10.67395 -0.39072,0.14993 -7.12226,-3.42903 -14.95897,-7.95323 l -14.24858,-8.22583 -2.27616,2.50002 c -4.06674,4.46668 -8.17142,9.86925 -8.17142,10.75519 0,1.76815 11.11385,11.44815 19.69797,17.15663 7.54475,5.0173 24.33961,12.96898 27.8859,13.20285 0.19758,0.013 0.67701,-1.05592 1.0654,-2.37543 l 0,0 z m 135.65707,-31.40236 c 8.77517,-8.7996 20.70516,-28.03682 24.86902,-40.10152 1.15372,-3.34288 1.16104,-3.46538 0.24717,-4.1386 -0.99117,-0.73016 -7.08757,-2.19889 -14.71562,-3.54526 -2.50013,-0.44128 -4.94343,-0.91739 -5.42957,-1.05802 -0.8137,-0.23541 -0.88423,-1.34581 -0.88827,-13.985 -0.003,-7.55111 -0.14772,-14.92254 -0.32289,-16.38094 l -0.3185,-2.65165 -17.57329,0 c -16.29794,0 -17.59267,0.0641 -17.84048,0.88388 -1.77714,5.87859 -5.34471,21.08668 -5.11578,21.80796 0.39085,1.23147 5.40124,4.44482 20.21466,12.96443 6.66701,3.83437 13.06656,7.56643 14.22122,8.29346 l 2.09939,1.32186 -5.0744,8.8052 c -2.79092,4.84286 -6.41339,11.37179 -8.04994,14.50873 l -2.97554,5.70352 0.89979,1.55883 c 0.99185,1.71833 5.5143,5.89241 8.7084,8.03759 2.63422,1.76917 3.51352,1.51648 7.04463,-2.02447 l 0,0 z m -185.06396,-8.96132 c 1.94455,-2.20792 4.86634,-5.54606 6.49288,-7.4181 2.77785,-3.19711 3.02311,-3.36112 4.04061,-2.70211 2.95154,1.91161 23.33428,13.17331 25.09294,13.86412 1.95581,0.76827 2.05829,0.75606 3.27894,-0.39068 1.16476,-1.09424 9.3389,-14.67887 14.35798,-23.86157 2.13158,-3.89983 2.13946,-3.93339 1.24472,-5.3033 -0.49524,-0.75825 -4.32535,-4.84638 -8.51135,-9.08475 l -7.61092,-7.70612 -12.78053,7.27342 c -16.26949,9.25897 -23.93197,13.20268 -24.91752,12.82449 -0.42695,-0.16383 -4.20092,-6.06023 -8.3866,-13.10309 -7.36951,-12.4 -8.8786,-14.56355 -10.15816,-14.56355 -0.33269,0 -3.78088,1.06471 -7.66265,2.36604 -5.07735,1.70213 -7.05566,2.5879 -7.05029,3.15673 0.088,9.31858 19.17645,45.71555 25.88648,49.3591 1.51547,0.8229 2.29206,0.27555 6.68347,-4.71063 l 0,0 z M 807.7335,818.36175 c 3.94713,-0.70742 10.39191,-2.87549 11.70264,-3.93685 l 1.1121,-0.90054 -1.34544,-2.72246 c -0.74,-1.49736 -1.86186,-3.33748 -2.49304,-4.08915 l -1.14758,-1.36667 -6.63565,1.80389 -6.63566,1.80389 -0.30358,1.83562 c -0.16698,1.0096 -0.30609,3.36412 -0.30915,5.23227 l -0.006,3.39664 1.6415,-0.27939 c 0.90282,-0.15365 2.89156,-0.50341 4.41941,-0.77725 l 0,0 z m -14.69971,0.11487 c 0.57546,-0.36437 0.6219,-1.3063 0.25254,-5.12231 l -0.45258,-4.67583 -6.30505,-1.67006 -6.30504,-1.67006 -1.39866,1.33999 c -0.76925,0.73699 -1.88126,2.33694 -2.47112,3.55543 -1.75232,3.6198 -0.51413,5.10188 5.7945,6.93585 5.30741,1.5429 9.6831,2.06828 10.88541,1.30699 l 0,0 z m -76.30302,-11.08768 c 5.54007,-2.78664 17.50836,-9.59604 20.54458,-11.68893 4.12773,-2.84527 4.07041,-1.84548 0.84623,-14.75905 l -2.86654,-11.48109 -21.84455,-0.009 c -12.0145,-0.005 -21.88786,-0.0662 -21.9408,-0.13566 -0.0529,-0.0695 -0.22341,-7.84868 -0.37881,-17.28717 l -0.28255,-17.16091 -3.78807,-0.90502 c -2.08344,-0.49776 -5.61647,-1.04488 -7.85118,-1.2158 -4.96718,-0.37994 -5.38315,-0.0749 -6.48137,4.75364 -1.831,8.05032 -2.51373,15.85579 -2.55086,29.16361 -0.036,12.90053 0.41614,18.12544 1.83867,21.24755 0.72794,1.59765 0.82377,1.57953 12.89799,-2.43878 5.06961,-1.68717 9.29671,-2.97279 9.39357,-2.85695 0.0969,0.11584 1.4999,2.59711 3.11787,5.51392 7.6412,13.77525 12.74722,21.71828 13.96116,21.71828 0.2736,0 2.6967,-1.10621 5.38466,-2.45825 l 0,0 z m 52.52164,-0.69847 c 0.80766,-1.18062 1.87018,-2.92971 2.36117,-3.88688 l 0.8927,-1.7403 -4.89364,-4.76042 c -4.61796,-4.49224 -4.99093,-4.74463 -6.62058,-4.48018 -2.1726,0.35257 -7.30173,3.71225 -7.30173,4.78279 0,0.44121 2.59315,3.3738 5.76256,6.51687 6.72694,6.67103 7.4874,6.94792 9.79952,3.56812 z m 65.97649,-2.54283 c 4.84185,-4.96081 6.16543,-6.86505 5.66966,-8.15699 -0.33594,-0.87547 -6.19663,-4.83128 -7.15771,-4.83128 -1.05796,0 -9.84491,9.46894 -9.84491,10.60902 0,1.40047 1.31958,3.95836 2.93007,5.67969 2.20457,2.35628 3.30283,1.92491 8.40289,-3.30044 z m 85.7733,-6.29601 c 2.19608,-2.44699 4.41813,-19.18642 4.40824,-33.20876 -0.005,-6.7474 -1.08272,-19.76614 -1.78907,-21.60685 -0.49768,-1.29693 -1.76245,-1.10364 -10.59201,1.61871 -4.43777,1.36828 -8.88559,2.63699 -9.88405,2.81938 l -1.81537,0.3316 -6.98782,-11.78447 c -3.8433,-6.48146 -7.51903,-12.63826 -8.16829,-13.68178 l -1.18046,-1.8973 -1.86317,0.77848 c -2.71874,1.13596 -17.25571,9.30089 -23.12131,12.98646 -5.93963,3.73209 -5.72163,2.78459 -3.05165,13.26317 0.92016,3.6113 1.94693,8.21381 2.28171,10.2278 l 0.60867,3.6618 21.8939,0 21.8939,0 0.15755,16.65018 c 0.13452,14.21573 0.27192,16.76443 0.93969,17.43161 0.90808,0.90727 10.36972,3.20675 13.40799,3.25857 1.36565,0.0233 2.33778,-0.26499 2.86155,-0.8486 l 0,0 z M 753.26377,786.56297 c 1.01547,-0.51219 2.33453,-1.55195 2.93127,-2.31057 1.24806,-1.58666 1.15146,-3.0651 -0.59837,-9.15688 -1.43012,-4.97878 -2.49651,-5.817 -7.07411,-5.56046 -1.87,0.1048 -3.63378,0.42432 -3.91952,0.71006 -1.05935,1.05936 1.86458,14.38731 3.65596,16.66467 1.07723,1.36948 1.68566,1.32731 5.00477,-0.34682 l 0,0 z m 93.73409,0.41995 c 1.22425,-0.9467 3.76785,-10.04391 3.84558,-13.75376 0.0712,-3.3969 0.0253,-3.54242 -1.17007,-3.71105 -0.68428,-0.0965 -2.87924,-0.0223 -4.87769,0.16498 l -3.63355,0.34049 -1.56253,5.6434 c -2.30425,8.32227 -2.25158,8.54496 2.63173,11.12734 2.31672,1.22513 3.37213,1.26689 4.76653,0.1886 l 0,0 z M 720.69777,760.85479 c 11.43644,0 14.88456,-0.14485 15.02911,-0.63134 0.10318,-0.34724 0.57971,-2.77544 1.05894,-5.396 0.47924,-2.62057 1.63775,-7.04044 2.57447,-9.82196 0.93672,-2.78152 1.70313,-5.45874 1.70313,-5.94939 0,-1.17549 -2.7774,-3.01046 -20.8344,-13.76479 -8.72736,-5.19782 -15.02602,-9.25762 -15.02602,-9.68502 0,-0.92346 3.04739,-7.00137 7.91088,-15.77799 2.06448,-3.72554 4.54186,-8.33898 5.50529,-10.25209 l 1.75168,-3.47839 -2.13076,-2.3116 c -2.9386,-3.18801 -9.37111,-8.28932 -10.45244,-8.28932 -2.19486,0 -11.36038,11.00684 -18.18191,21.83459 -6.23594,9.89824 -11.67685,21.28289 -11.67685,24.43282 0,2.36585 1.2485,2.8577 12.07514,4.75693 4.83568,0.84829 8.98362,1.66068 9.21764,1.80532 0.23402,0.14463 0.4255,7.66867 0.4255,16.72009 l 0,16.45712 3.10454,-0.32448 c 1.7075,-0.17847 9.78323,-0.3245 17.94606,-0.3245 z m 32.82762,-0.27983 c 0.94751,-0.19428 1.28299,-1.0216 2.45108,-6.04466 0.74432,-3.20076 1.21667,-6.36401 1.04966,-7.02943 -0.58919,-2.34753 -6.02507,-4.57743 -8.25251,-3.38534 -1.59982,0.8562 -5.29645,13.89856 -4.51586,15.93276 0.40071,1.0442 5.36697,1.32643 9.26763,0.52667 l 0,0 z m 97.85044,-0.85659 c -1.50155,-8.99378 -2.95056,-13.93758 -4.72869,-16.13348 -0.89922,-1.11049 -0.98685,-1.12143 -2.62311,-0.32744 -3.06756,1.48853 -5.98596,3.92086 -5.98596,4.98898 0,0.83095 2.07431,10.05106 2.80817,12.48209 0.13673,0.45293 1.69026,0.63135 5.49712,0.63135 l 5.30652,0 -0.27405,-1.6415 z M 839.75626,736.4745 c 1.21212,-0.99554 1.40495,-1.44565 1.11473,-2.60199 -0.42275,-1.68435 -10.79776,-12.41685 -12.00144,-12.41497 -0.9645,0.002 -4.33427,4.84311 -5.00951,7.19756 -0.44426,1.54903 -0.30742,1.74416 4.59305,6.54964 l 5.05094,4.95304 2.39329,-1.23975 c 1.31631,-0.68186 3.05284,-1.78145 3.85894,-2.44353 l 0,0 z m -73.33507,-0.99979 c 5.71347,-5.52714 5.9885,-7.35784 1.87442,-12.47725 l -1.61297,-2.00713 -1.31912,1.0253 c -4.27219,3.32062 -11.67319,11.51488 -11.67319,12.92434 0,0.58867 6.6447,4.67913 7.62101,4.69147 0.44137,0.006 2.74081,-1.86495 5.10985,-4.15673 z m 148.08273,0.0867 c 3.02646,-1.05865 5.72826,-2.15044 6.00401,-2.42619 1.05358,-1.05358 -2.52472,-12.02547 -7.34958,-22.53551 -4.17013,-9.08381 -13.14046,-23.12999 -17.21072,-26.94938 l -1.26869,-1.19049 -2.63381,2.45319 c -1.4486,1.34925 -4.88744,5.01012 -7.64188,8.13528 -2.75443,3.12516 -5.19661,5.68211 -5.42707,5.68211 -0.23045,0 -5.11028,-2.73274 -10.84405,-6.07277 -5.73377,-3.34002 -11.88618,-6.79329 -13.67201,-7.67392 -3.2328,-1.59417 -3.25179,-1.59687 -4.35251,-0.61949 -1.52563,1.35468 -3.67546,4.75675 -11.1528,17.64918 l -6.44455,11.11168 4.4054,4.46762 c 2.42298,2.45719 6.4141,6.28383 8.86918,8.50365 3.7293,3.37195 4.66719,3.98497 5.70006,3.72573 0.67997,-0.17066 5.92897,-3.05392 11.66446,-6.40726 9.05903,-5.29649 20.22914,-11.65125 23.71857,-13.49366 1.05023,-0.55451 1.44419,0.0208 8.68012,12.67574 4.16897,7.29113 8.06483,13.77535 8.65746,14.40937 1.33846,1.43194 2.567,1.25957 10.29841,-1.44488 l 0,0 z M 754.21265,721.94672 c 8.82797,-8.80326 8.50593,-8.20683 6.53575,-12.10463 -0.49144,-0.97227 -4.89432,-8.79072 -9.78417,-17.37433 -4.88986,-8.5836 -8.89066,-15.77968 -8.89066,-15.99127 0,-0.85086 3.60767,-3.29543 14.04984,-9.52021 6.0233,-3.5906 11.70529,-7.17214 12.62666,-7.95897 1.66509,-1.42197 1.67181,-1.44577 1.11013,-3.93754 -0.63832,-2.83176 -3.22549,-9.53773 -4.34273,-11.2564 -0.44027,-0.67728 -1.24769,-1.13642 -1.99844,-1.13642 -2.59759,0 -13.91212,4.24557 -22.20307,8.33129 -12.06537,5.94573 -26.51651,15.69916 -26.51651,17.89665 0,0.58823 2.39352,3.10603 6.18719,6.50843 9.03248,8.10093 9.60822,8.75612 9.03023,10.27636 -0.26281,0.69123 -3.0809,5.78551 -6.26242,11.32063 -6.94664,12.08554 -7.94484,14.01141 -7.94484,15.32822 0,1.30447 3.09619,3.38162 15.67078,10.51309 9.74746,5.52811 12.78295,7.08204 13.99111,7.16232 0.34101,0.0227 4.27452,-3.60309 8.74115,-8.05722 l 0,0 z m 32.81272,1.73559 c 2.63902,-0.72124 5.10378,-1.5622 5.47723,-1.86881 0.95432,-0.78349 0.62849,-8.79417 -0.38312,-9.4193 -0.85452,-0.52805 -2.96539,-0.25623 -8.35872,1.07636 -8.21674,2.0302 -9.29101,3.13863 -7.14548,7.37265 1.39375,2.75044 2.9422,4.15139 4.58783,4.15081 0.56322,-2e-4 3.18324,-0.59047 5.82226,-1.31171 z m 29.49294,0.25417 c 1.66447,-1.30927 3.45031,-4.7096 3.2408,-6.17063 -0.29709,-2.07174 -7.16644,-4.71205 -14.60858,-5.61496 l -2.8355,-0.34402 -0.32122,1.60612 c -0.55479,2.77395 -0.36706,7.88442 0.31012,8.44212 0.87724,0.72246 9.3801,3.05782 11.2961,3.10254 0.88009,0.0206 2.166,-0.42942 2.91828,-1.02117 z m -39.03895,-16.86633 c 2.99737,-0.96899 7.59775,-2.1424 10.22306,-2.60756 l 4.77329,-0.84577 0.29973,-1.81186 c 0.16485,-0.99652 0.30968,-7.0394 0.32184,-13.42861 0.0307,-16.10811 0.69647,-26.93535 1.71925,-27.95813 0.66566,-0.66566 3.15682,-0.85141 15.56728,-1.16075 8.12615,-0.20255 15.50523,-0.50412 16.39794,-0.67016 1.86979,-0.34776 2.16399,-1.08237 3.46952,-8.66359 1.14739,-6.66292 0.99742,-7.28585 -2.02329,-8.40384 -6.38,-2.3613 -24.1586,-4.21553 -35.64677,-3.7178 -8.33772,0.36124 -16.34159,1.44023 -17.4389,2.35091 -1.20747,1.00212 -0.89546,2.74285 2.06124,11.49996 1.5428,4.56943 2.73605,8.79211 2.65165,9.38374 -0.17349,1.2163 -0.36381,1.34293 -15.55826,10.35177 -7.58494,4.49712 -10.90087,6.73438 -10.9975,7.42 -0.15167,1.07609 5.53871,11.79962 11.10752,20.9321 4.45101,7.2994 5.7938,9.09138 6.81246,9.09138 0.44559,0 3.26256,-0.79281 6.25994,-1.76179 z m 48.82163,-0.13225 c 0.81389,-1.04172 3.97213,-6.09879 7.01833,-11.23795 3.0462,-5.13915 7.34052,-12.38348 9.54294,-16.09851 2.20243,-3.71503 4.2513,-6.84934 4.55305,-6.96513 0.30175,-0.11579 5.93067,2.75571 12.50871,6.38111 6.57805,3.62541 13.47023,7.21182 15.31597,7.96981 l 3.35589,1.37816 1.06057,-1.44383 c 0.58331,-0.79411 2.59843,-3.29177 4.47802,-5.55036 3.92571,-4.71726 4.43817,-5.95987 3.08213,-7.4735 -3.43989,-3.83966 -15.77491,-13.19917 -23.08701,-17.51785 -8.39561,-4.95862 -20.75058,-10.68245 -23.05824,-10.68245 -1.48493,0 -2.18541,1.93454 -4.0405,11.15868 -0.86075,4.27992 -1.67243,8.29307 -1.80374,8.91811 -0.22777,1.08419 -0.4646,1.13647 -5.15361,1.13758 -2.70318,6.6e-4 -10.19923,0.15058 -16.65789,0.33321 l -11.74303,0.33204 0.002,11.66235 c 10e-4,6.4143 0.14984,14.56024 0.33048,18.10208 0.31076,6.09306 0.38542,6.44015 1.38691,6.44764 1.79736,0.0134 9.90563,1.88112 14.94808,3.44318 2.63902,0.81752 5.17687,1.51189 5.63967,1.54304 0.46279,0.0312 1.50734,-0.79569 2.32122,-1.83741 l 3e-5,0 z"
             style="fill:#ff0000;fill-opacity:1;stroke:none" />
          <path
             inkscape:connector-curvature="0"
             id="path3106"
             d="m 775.75926,899.21991 c -19.18543,-3.84546 -32.14894,-8.7044 -46.97209,-17.60591 -17.69236,-10.62453 -33.76406,-26.15233 -45.33876,-43.80442 -7.14802,-10.90115 -13.73686,-25.88445 -17.09539,-38.87566 -3.14845,-12.1786 -3.69872,-17.04505 -3.71395,-32.84517 -0.0154,-16.02214 0.43496,-20.20019 3.54141,-32.8515 5.24824,-21.37395 16.4799,-42.45713 30.88581,-57.97636 l 3.43661,-3.7022 2.43735,2.49569 2.43736,2.49568 -2.71032,2.97429 c -9.59218,10.52639 -21.55592,30.02895 -24.37963,39.74218 -1.41311,4.86095 -1.20356,4.99216 12.17725,7.62482 l 8.52276,1.67685 0.13316,16.48081 0.13317,16.48082 17.29197,-0.2781 c 9.51058,-0.15295 17.77152,-0.3736 18.35765,-0.49032 0.89957,-0.17915 1.20269,-0.90242 1.94457,-4.63978 0.48339,-2.43516 1.65164,-7.08735 2.59612,-10.33821 0.94447,-3.25086 1.71723,-6.24217 1.71723,-6.64736 0,-1.1617 -2.22691,-2.7688 -12.69434,-9.16115 -19.45933,-11.8836 -22.661,-13.9584 -22.661,-14.68514 0,-0.85727 2.71568,-6.31267 8.70656,-17.49017 l 4.25165,-7.93255 2.61227,2.64513 c 1.43675,1.45482 2.61227,2.8363 2.61227,3.06996 0,0.23367 -1.72491,3.48071 -3.83314,7.21566 -4.97755,8.81824 -5.16364,9.46922 -3.22478,11.28038 2.71016,2.53168 26.62598,16.15016 28.36176,16.15016 0.41962,0 1.19593,-0.47987 1.72511,-1.06638 0.5292,-0.58652 2.05665,-1.98384 3.39434,-3.10518 l 2.43218,-2.03879 2.46239,2.42536 2.46238,2.42535 -1.67107,2.06878 c -3.0829,3.81663 -3.11455,4.08797 -0.67167,5.75915 2.51493,1.72048 5.16792,3.12816 5.89548,3.12816 0.28193,0 1.33334,-0.72063 2.33647,-1.6014 l 1.82389,-1.60139 30.48212,30.479 30.48211,30.47899 -1.51524,2.20233 -1.51525,2.20233 1.06933,2.20893 c 1.28455,2.65352 3.35097,4.82666 4.58964,4.82666 0.49642,0 1.91606,-0.77361 3.15476,-1.71912 l 2.25216,-1.71912 2.44675,2.48411 2.44675,2.4841 -3.58876,3.58876 -3.58876,3.58877 3.802,6.61653 c 10.58583,18.42226 16.8018,29.8617 16.56359,30.48247 -0.29812,0.77687 -5.63363,4.21708 -16.44761,10.60501 -9.43859,5.57546 -11.11168,6.89228 -11.11168,8.74552 0,1.41525 2.08857,7.81824 4.01977,12.32355 1.22152,2.8497 1.92682,2.92772 7.76368,0.85885 14.47376,-5.13022 25.41074,-10.56952 34.78799,-17.30117 8.24967,-5.9222 9.26215,-7.11879 8.00735,-9.46339 -0.26099,-0.48767 -3.66639,-3.78496 -7.56757,-7.32733 l -7.09305,-6.44066 1.02664,-2.01239 c 0.56465,-1.10681 1.4264,-2.66974 1.915,-3.47317 l 0.88836,-1.46079 11.48687,11.49501 11.48687,11.49502 -4.69788,4.03593 c -20.50636,17.61695 -45.37541,29.11302 -70.35779,32.52387 -2.22233,0.30342 -10.97278,0.65347 -19.44543,0.7779 -14.74093,0.21649 -15.66604,0.17388 -21.46575,-0.98859 l 0,0 z m 41.52255,-7.39508 c 1.72522,-0.31793 3.40857,-0.90557 3.74078,-1.30587 0.48014,-0.57853 0.0779,-2.51057 -1.96105,-9.41973 -3.69205,-12.51075 -3.622,-11.60384 -1.03237,-13.36621 1.19724,-0.81478 5.01786,-3.14535 8.49026,-5.17905 5.04842,-2.95672 11.15081,-6.875 15.84013,-10.17078 0.75588,-0.53125 -9.3686,-19.39697 -14.33195,-26.70582 -2.96935,-4.37256 -2.48812,-4.26547 -9.88759,-2.20027 -3.58619,1.00091 -8.79318,2.32974 -11.5711,2.95297 l -5.05077,1.13314 -0.13163,21.79071 -0.13164,21.7907 -8.45466,0.0615 c -4.65006,0.0338 -12.42739,0.20431 -17.28296,0.37881 l -8.82829,0.31727 -0.63052,2.77792 c -0.71723,3.15994 -1.92557,14.04833 -1.59563,14.37827 0.32626,0.32627 9.18551,2.25882 14.07436,3.07018 5.15591,0.85569 33.66594,0.63216 38.74463,-0.30377 l 0,0 z m -60.75484,-8.58329 c 0.41655,-1.40266 1.48879,-6.11881 2.38276,-10.48033 0.89397,-4.36152 1.6909,-8.01726 1.77095,-8.12384 0.08,-0.10659 7.25377,-0.33388 15.9416,-0.50508 l 15.79606,-0.31128 0.32327,-1.51523 c 0.1778,-0.83337 0.35016,-9.01911 0.38303,-18.19052 l 0.0598,-16.67529 -5.35602,-1.164 c -2.94581,-0.64021 -7.99859,-2.03819 -11.2284,-3.10663 -3.2298,-1.06845 -6.03079,-1.84471 -6.22442,-1.72504 -0.19364,0.11967 -4.74362,7.50876 -10.11109,16.42019 -5.36746,8.91144 -10.47417,17.03354 -11.34824,18.04911 l -1.58922,1.8465 -3.46154,-1.69254 c -1.90385,-0.9309 -8.39176,-4.51063 -14.41757,-7.95496 -6.02582,-3.44432 -11.13972,-6.25241 -11.36422,-6.24019 -0.57378,0.0312 -8.25375,9.22847 -9.61541,11.51503 l -1.126,1.89084 1.08321,1.49344 c 2.79355,3.85154 14.77732,13.44502 22.47699,17.99373 7.50119,4.43145 21.69172,10.93568 24.00283,11.00169 0.60946,0.0174 1.08764,-0.7273 1.62167,-2.5256 l 0,0 z M 706.90628,843.2541 c 2.31177,-2.56135 5.46759,-5.99648 7.01293,-7.63363 l 2.8097,-2.97663 9.05959,5.11328 c 12.44505,7.02406 18.1483,9.85491 19.11053,9.48567 1.12611,-0.43213 3.37327,-3.73956 8.5598,-12.5986 6.93585,-11.84701 9.02432,-15.90242 8.702,-16.89765 -0.15988,-0.49369 -3.98417,-4.73139 -8.49842,-9.41711 l -8.20772,-8.51949 -4.54569,2.63737 c -8.14219,4.72401 -24.49716,13.68068 -28.71239,15.72411 l -4.11757,1.99608 -1.01015,-1.25744 c -0.55558,-0.69158 -3.49838,-5.3021 -6.53954,-10.24558 -7.84584,-12.75359 -9.79287,-15.66692 -10.70417,-16.01662 -0.83462,-0.32028 -14.00213,3.8601 -15.14418,4.80792 -3.20478,2.65972 13.33443,37.30479 22.87438,47.91551 3.41168,3.79462 4.17014,3.62289 9.3509,-2.11719 z m 102.69818,-25.14299 c 5.20231,-1.19992 9.48819,-2.8099 10.52243,-3.95272 0.75921,-0.83892 0.65921,-1.16933 -1.43852,-4.75289 -1.23995,-2.11821 -2.44725,-3.97044 -2.6829,-4.11607 -0.46181,-0.28543 -13.26153,3.09934 -13.80525,3.65067 -0.18045,0.18297 -0.49082,2.68675 -0.68971,5.56396 l -0.36163,5.23129 2.20494,-0.34555 c 1.21272,-0.19005 4.02551,-0.76546 6.25064,-1.27869 z m -16.47014,0.54721 c 0.56738,-0.35923 0.63717,-1.38017 0.35231,-5.15371 -0.19539,-2.58816 -0.45371,-4.80421 -0.57406,-4.92456 -0.12035,-0.12035 -3.0063,-0.96231 -6.41322,-1.87104 l -6.1944,-1.65222 -1.43521,1.35038 c -1.74431,1.6412 -3.36301,4.67016 -3.36301,6.29298 0,1.71455 1.78811,3.10535 5.59053,4.34834 5.73122,1.8735 10.59354,2.52379 12.03706,1.60983 z m -73.40621,-12.63736 c 8.39105,-4.37348 17.96592,-10.07305 19.84212,-11.81128 1.05609,-0.97843 1.15217,-1.3966 0.87349,-3.80191 -0.17222,-1.48641 -1.35949,-6.88441 -2.63837,-11.99556 l -2.32525,-9.293 -21.90802,0 -21.90801,0 -0.0663,-5.68211 c -0.0365,-3.12516 -0.20693,-10.89551 -0.37881,-17.26744 l -0.3125,-11.58534 -4.04061,-0.90677 c -2.22233,-0.49872 -5.90422,-0.96742 -8.18197,-1.04156 -3.63481,-0.11832 -4.23134,-0.0124 -4.87697,0.86603 -1.08084,1.47056 -2.74453,10.60659 -3.40437,18.69488 -0.81184,9.95152 -0.35037,30.43637 0.76522,33.96864 0.79672,2.52262 0.92202,2.65165 2.57492,2.65165 1.45438,0 8.19444,-1.9466 18.2275,-5.26428 l 2.07388,-0.68579 4.20475,7.39445 c 7.9107,13.91174 11.83633,19.76882 13.24977,19.76882 0.29533,0 3.99863,-1.80424 8.22954,-4.00943 l 0,0 z m 50.4855,-0.49843 c 1.24447,-1.92374 2.26266,-3.83091 2.26266,-4.23817 0,-0.8564 -8.20781,-8.78084 -9.88753,-9.54618 -1.35892,-0.61916 -5.68094,1.18959 -7.94748,3.326 l -1.42002,1.3385 0.98739,1.38428 c 0.54307,0.76136 3.27216,3.60031 6.06464,6.30878 6.40829,6.21549 6.80565,6.27253 9.94034,1.42679 z M 754.66529,786.0063 c 2.40059,-1.57019 2.87996,-2.99675 2.21668,-6.59651 -1.62079,-8.79639 -3.48167,-10.8071 -9.24316,-9.98741 l -3.19427,0.45445 0.086,3.13142 c 0.0904,3.29221 1.72609,10.39205 3.02467,13.12862 0.42099,0.88717 1.14339,1.70131 1.60533,1.80919 0.91824,0.21446 3.72159,-0.77338 5.5048,-1.93976 l 0,0 z m -0.37776,-25.7187 c 0.78887,-0.95053 2.46956,-7.29792 2.81037,-10.61383 0.16995,-1.65346 0.0358,-2.80375 -0.38852,-3.33164 -0.88969,-1.10684 -3.34982,-2.32191 -5.52871,-2.73067 -2.49813,-0.46865 -3.47716,0.71106 -5.14799,6.20317 -1.74667,5.74142 -2.27705,8.7664 -1.775,10.12356 0.37619,1.01695 0.74584,1.0998 4.90696,1.0998 3.36468,0 4.65725,-0.18933 5.12289,-0.75039 z"
             style="fill:#000000;fill-opacity:1;stroke:none" />
        </g>
      </g>
      <text
         sodipodi:linespacing="125%"
         id="text3029"
         y="700.91925"
         x="193.77998"
         style="font-size:94.48971558px;font-style:normal;font-variant:normal;font-weight:normal;font-stretch:normal;line-height:125%;letter-spacing:0px;word-spacing:0px;fill:#000000;fill-opacity:1;stroke:none;font-family:Arial;-inkscape-font-specification:Arial"
         xml:space="preserve"><tspan
           style="font-style:normal;font-variant:normal;font-weight:bold;font-stretch:normal;fill:#00ff00;font-family:Courier New;-inkscape-font-specification:Courier New"
           y="700.91925"
           x="193.77998"
           id="tspan3031"
           sodipodi:role="line">S</tspan></text>
      <text
         sodipodi:linespacing="125%"
         id="text3029-1"
         y="409.92023"
         x="495.71664"
         style="font-size:94.48971558px;font-style:normal;font-variant:normal;font-weight:normal;font-stretch:normal;line-height:125%;letter-spacing:0px;word-spacing:0px;fill:#000000;fill-opacity:1;stroke:none;font-family:Arial;-inkscape-font-specification:Arial"
         xml:space="preserve"><tspan
           style="font-style:normal;font-variant:normal;font-weight:bold;font-stretch:normal;fill:#000000;font-family:Courier New;-inkscape-font-specification:Courier New"
           y="409.92023"
           x="495.71664"
           id="tspan3031-7"
           sodipodi:role="line">C</tspan></text>
    </g>
  </g>
</svg>
